<?xml version="1.0" encoding="iso-8859-1"?>
<!-- Generator: Adobe Illustrator 19.0.0, SVG Export Plug-In . SVG Version: 6.00 Build 0)  -->
<svg version="1.1" id="Capa_1" xmlns="http://www.w3.org/2000/svg" xmlns:xlink="http://www.w3.org/1999/xlink" x="0px" y="0px"
	 viewBox="0 0 512 512" style="enable-background:new 0 0 512 512;" xml:space="preserve">
<path style="fill:#EF4246;" d="M307.651,230.457h-93.776l2.475-35.896c0.527-7.642,6.88-13.572,14.54-13.572h59.746
	c7.66,0,14.014,5.93,14.54,13.572L307.651,230.457z"/>
<path style="fill:#C6C5CA;" d="M497.265,84.055l-19.929-17.642c-3.15-2.789-7.962-2.495-10.748,0.653
	c-2.788,3.149-2.495,7.961,0.653,10.748l19.929,17.643c10.155,8.988,12.577,24.021,5.786,35.698l-72.723,123.089h-65.487
	c-4.206,0-7.614,3.409-7.614,7.614c0,4.206,3.409,7.614,7.614,7.614h56.49l-58.853,99.612c-2.139,3.621-0.938,8.29,2.682,10.429
	c1.216,0.719,2.55,1.06,3.867,1.06c2.604,0,5.142-1.337,6.562-3.742l140.6-237.975C516.546,120.885,512.833,97.836,497.265,84.055z"
	/>
<rect x="139.13" y="299.42" style="fill:#EF4246;" width="186.07" height="68.56"/>
<path style="fill:#D8323A;" d="M139.126,339.789h41.693c5.118,0,9.267-4.149,9.267-9.267v-6.323c0-5.118,4.149-9.267,9.267-9.267
	H325.2v-15.516H139.126V339.789z"/>
<g>
	<path style="fill:#FC5759;" d="M351.328,216.559H171.507c-32.393,0-58.654,26.26-58.654,58.654v41.411
		c0,5.118,4.149,9.267,9.267,9.267h51.354c5.118,0,9.267-4.149,9.267-9.267v-6.323c0-5.118,4.149-9.267,9.267-9.267h159.32
		c7.175,0,12.991-5.816,12.991-12.991V229.55C364.319,222.375,358.503,216.559,351.328,216.559z"/>
	<rect x="54.1" y="358.39" style="fill:#FC5759;" width="360.9" height="68.06"/>
</g>
<rect x="54.1" y="402.07" style="fill:#EF4246;" width="360.9" height="24.386"/>
<g>
	<circle style="fill:#808080;" cx="55.08" cy="392.42" r="55.08"/>
	<circle style="fill:#808080;" cx="414.02" cy="392.42" r="55.08"/>
</g>
<g>
	<path style="fill:#EF4246;" d="M225.939,234.303c-4.206,0-7.614,3.409-7.614,7.614v33.103c0,4.206,3.409,7.614,7.614,7.614
		s7.614-3.409,7.614-7.614v-33.103C233.554,237.712,230.145,234.303,225.939,234.303z"/>
	<path style="fill:#EF4246;" d="M259.026,234.303c-4.206,0-7.614,3.409-7.614,7.614v33.103c0,4.206,3.409,7.614,7.614,7.614
		c4.206,0,7.614-3.409,7.614-7.614v-33.103C266.641,237.712,263.232,234.303,259.026,234.303z"/>
	<path style="fill:#EF4246;" d="M292.113,234.303c-4.206,0-7.614,3.409-7.614,7.614v33.103c0,4.206,3.409,7.614,7.614,7.614
		c4.206,0,7.614-3.409,7.614-7.614v-33.103C299.728,237.712,296.319,234.303,292.113,234.303z"/>
	<path style="fill:#EF4246;" d="M325.2,234.303c-4.206,0-7.614,3.409-7.614,7.614v33.103c0,4.206,3.409,7.614,7.614,7.614
		c4.206,0,7.614-3.409,7.614-7.614v-33.103C332.815,237.712,329.406,234.303,325.2,234.303z"/>
</g>
<g>
	<circle style="fill:#4D4D4D;" cx="55.08" cy="392.42" r="24.448"/>
	<circle style="fill:#4D4D4D;" cx="415" cy="392.42" r="24.448"/>
</g>
<g>
</g>
<g>
</g>
<g>
</g>
<g>
</g>
<g>
</g>
<g>
</g>
<g>
</g>
<g>
</g>
<g>
</g>
<g>
</g>
<g>
</g>
<g>
</g>
<g>
</g>
<g>
</g>
<g>
</g>
</svg>
