<?xml version="1.0" encoding="iso-8859-1"?>
<!-- Generator: Adobe Illustrator 19.0.0, SVG Export Plug-In . SVG Version: 6.00 Build 0)  -->
<svg version="1.1" id="Capa_1" xmlns="http://www.w3.org/2000/svg" xmlns:xlink="http://www.w3.org/1999/xlink" x="0px" y="0px"
	 viewBox="0 0 512 512" style="enable-background:new 0 0 512 512;" xml:space="preserve">
<ellipse transform="matrix(-0.559 0.8292 -0.8292 -0.559 442.2552 550.5617)" style="fill:#808080;" cx="74.714" cy="392.892" rx="53.995" ry="53.989"/>
<path style="fill:#BA7D60;" d="M40.087,178.309c0-14.945,14.765-31.499,43.133-33.187c8.488-23.499,31.066-42.344,62.605-39.318
	c25.211-64.758,161.148-52.321,181.055,37.966c1.316-0.128,2.648-0.201,3.997-0.203c20.654-0.04,33.693,15.003,36.944,34.742H40.087
	z"/>
<path style="fill:#A56A58;" d="M330.878,143.566c-1.349,0.003-2.681,0.075-3.997,0.203c-13.85-62.814-83.853-87.933-133.666-75.605
	c36.792,8.287,71.365,33.462,80.657,75.605c1.316-0.128,2.648-0.2,3.997-0.203c20.654-0.04,33.693,15.003,36.944,34.742h53.009
	C364.571,158.569,351.532,143.527,330.878,143.566z"/>
<circle style="fill:#4D4D4D;" cx="74.7" cy="392.902" r="22.12"/>
<path style="fill:#FC5759;" d="M140.129,320.075L19.9,192.034l368.611-1.465l-38.184,99.069c-2.619,6.795-8.687,11.659-15.89,12.736
	l-176.464,24.584C151.406,327.939,144.675,324.916,140.129,320.075z"/>
<g>
	<path style="fill:#EF4246;" d="M340.811,190.758L302.7,289.637c-2.619,6.795-8.688,11.659-15.89,12.736l-144.088,20.074
		c4.32,3.406,9.84,5.32,15.251,4.51l176.464-24.584c7.203-1.077,13.271-5.941,15.89-12.736l38.184-99.069L340.811,190.758z"/>
	<path style="fill:#EF4246;" d="M7.076,172.763l384.764-1.494c3.91-0.007,7.08,3.167,7.068,7.077l-0.033,10.946
		c-0.012,3.884-3.16,7.028-7.044,7.035L7.068,197.821c-3.91,0.007-7.08-3.167-7.068-7.077l0.033-10.946
		C0.044,175.914,3.192,172.77,7.076,172.763z"/>
</g>
<path style="fill:#D83948;" d="M391.832,183.6L7.068,185.093c-3.564,0.006-6.505-2.634-6.99-6.062
	c-0.028,0.252-0.045,0.507-0.046,0.766L0,190.744c-0.012,3.91,3.158,7.084,7.068,7.077l384.764-1.494
	c3.884-0.007,7.032-3.151,7.044-7.035l0.033-10.946c0.001-0.346-0.031-0.683-0.078-1.016
	C398.439,180.853,395.457,183.593,391.832,183.6z"/>
<path style="fill:#C6C5CA;" d="M511.926,136.085c-0.582-4.164-4.417-7.072-8.59-6.489l-41.107,5.727
	c-8.539,1.19-15.967,6.847-19.384,14.763l-54.458,126.152c-3.097,7.175-9.83,12.302-17.57,13.38l-53.079,7.395
	c-0.003,0-0.006,0-0.008,0.001l-95.353,13.284c0,0-0.001,0-0.002,0l-89.782,12.508c-13.323,1.856-25.336,9.28-32.956,20.368
	l-31.212,45.413c-2.382,3.465-1.503,8.203,1.961,10.584c1.317,0.906,2.819,1.34,4.304,1.34c2.422,0,4.804-1.155,6.279-3.301
	l31.212-45.413c5.206-7.574,13.411-12.644,22.512-13.912l84.893-11.827l53.316,85.347c6.525,10.445,17.965,16.661,30.062,16.661
	c1.618,0,3.249-0.111,4.88-0.338v-0.001c19.353-2.696,32.904-20.633,30.209-39.987l-10.686-76.698l45.547-6.345
	c12.972-1.807,24.255-10.399,29.446-22.424l54.458-126.152c1.324-3.067,4.202-5.259,7.51-5.72l41.106-5.726
	C509.601,144.094,512.506,140.249,511.926,136.085z M322.978,389.841c1.538,11.04-6.192,21.272-17.231,22.811l0.001-0.001
	c-7.894,1.097-15.713-2.555-19.933-9.31L236.1,323.759l76.192-10.615L322.978,389.841z"/>
<g>
</g>
<g>
</g>
<g>
</g>
<g>
</g>
<g>
</g>
<g>
</g>
<g>
</g>
<g>
</g>
<g>
</g>
<g>
</g>
<g>
</g>
<g>
</g>
<g>
</g>
<g>
</g>
<g>
</g>
</svg>
