<?xml version="1.0" encoding="iso-8859-1"?>
<!-- Generator: Adobe Illustrator 19.0.0, SVG Export Plug-In . SVG Version: 6.00 Build 0)  -->
<svg version="1.1" id="Capa_1" xmlns="http://www.w3.org/2000/svg" xmlns:xlink="http://www.w3.org/1999/xlink" x="0px" y="0px"
	 viewBox="0 0 512 512" style="enable-background:new 0 0 512 512;" xml:space="preserve">
<path style="fill:#FFDFB8;" d="M151.607,181.848h12.673v5.208c0,28.266,20.931,60.385,46.837,76.166l-0.002,26.121
	c0,2.453-1.599,4.619-3.943,5.342l-32.954,17.562l4.306,4.313c42.62,42.684,112.36,42.683,154.978-0.002l4.3-4.307l-32.978-17.565
	c-2.343-0.723-3.942-2.889-3.942-5.342l-0.002-26.333c25.919-15.788,46.84-47.877,46.84-76.155v-5.007h12.673
	c7.1,0,12.855-5.755,12.855-12.855v-25.178l0,0c-0.011-3.834-3.123-6.936-6.957-6.936H145.709c-3.834,0-6.946,3.102-6.957,6.936l0,0
	v25.178C138.753,176.093,144.508,181.848,151.607,181.848z"/>
<path style="fill:#FEEA9E;" d="M482.159,512c9.864,0,17.662-8.36,16.976-18.201l-6.217-89.193
	c-1.809-28.447-20.401-53.065-47.24-62.551l-107.601-38.021l0,0l-0.242,0.171c-49.136,34.739-114.85,34.671-163.913-0.171l0,0l0,0
	L66.321,342.056c-26.839,9.486-45.431,34.103-47.24,62.551L12.864,493.8c-0.686,9.84,7.112,18.2,16.977,18.2H482.159z"/>
<path style="fill:#F7DC84;" d="M499.136,493.799l-0.744-10.67l0,0l-5.474-78.523c-1.809-28.447-20.401-53.065-47.24-62.551
	l-107.601-38.021l-0.242,0.171c-6.356,4.494-12.994,8.393-19.834,11.722l73.944,26.128c26.839,9.486,45.431,34.103,47.24,62.551
	l4.613,68.975c0.779,11.641-8.454,21.511-20.121,21.511H29.841c-7.679,0-14.086-5.076-16.233-11.963l-0.744,10.67
	C12.178,503.64,19.976,512,29.841,512h398.586h53.733C492.024,512,499.822,503.64,499.136,493.799z"/>
<path style="fill:#FFDFB8;" d="M164.286,187.059c0,34.961,32.019,75.829,65.87,84.365c21.995,5.546,28.43,5.583,50.443,0.109
	l1.005-0.25c33.969-8.447,66.111-49.371,66.111-84.425V88.936H164.286V187.059z"/>
<path style="fill:#F4D3AE;" d="M293.982,88.936v119.791c0,23.436-14.376,49.482-34.051,66.706c5.741-0.446,11.994-1.743,20.667-3.9
	l1.005-0.25c33.968-8.447,66.111-49.371,66.111-84.425V88.936H293.982z"/>
<path style="fill:#21D8DE;" d="M408.251,418.39c-5.789-5.952-9.061-14.171-9.061-22.759v-70.002l-35.499-12.544v71.019
	c0,13.79-10.453,24.97-23.347,24.97H171.656c-12.894,0-23.347-11.18-23.347-24.97v-71.019l-35.499,12.544v70.002
	c0,8.589-3.272,16.807-9.061,22.759l0,0c-5.789,5.952-5.956,14.171-5.956,22.759V512h316.414v-70.85
	C414.207,432.561,414.04,424.343,408.251,418.39z"/>
<path style="fill:#1BCCCC;" d="M408.251,418.39c-5.789-5.952-9.061-14.171-9.061-22.759v-70.002l-35.499-12.544v71.019
	c0,10.834-6.453,20.053-15.471,23.509c1.543,4.022,3.855,7.703,6.845,10.777c5.789,5.952,5.956,14.171,5.956,22.759v31.846
	c0,12.204-9.893,22.097-22.097,22.097H97.793V512h316.414v-16.908V441.15C414.207,432.561,414.04,424.343,408.251,418.39z"/>
<g>
	<path style="fill:#11B9C1;" d="M363.691,332.072l28.255,9.984c2.488,0.879,4.904,1.89,7.244,3.021v-19.448l-35.499-12.544V332.072z
		"/>
	<circle style="fill:#11B9C1;" cx="133.16" cy="408.26" r="20.318"/>
</g>
<path style="fill:#73D8D8;" d="M141.672,399.746c4.693,4.693,4.694,12.329,0,17.023c-4.693,4.693-12.329,4.693-17.023,0
	c-4.693-4.693-4.693-12.329,0-17.023C129.343,395.053,136.979,395.053,141.672,399.746z"/>
<circle style="fill:#11B9C1;" cx="378.84" cy="408.26" r="20.318"/>
<path style="fill:#73D8D8;" d="M370.328,416.77c-4.693-4.693-4.694-12.33-0.001-17.023c4.693-4.693,12.33-4.693,17.023,0.001
	c4.693,4.693,4.693,12.329,0,17.023C382.657,421.463,375.021,421.463,370.328,416.77z"/>
<g>
	<path style="fill:#9EE8E6;" d="M124.65,416.769L124.65,416.769l17.023-17.022l0,0c-4.693-4.693-12.329-4.693-17.023,0
		C119.956,404.44,119.957,412.076,124.65,416.769z"/>
	<path style="fill:#9EE8E6;" d="M387.35,399.747c-4.693-4.693-12.33-4.694-17.023-0.001c-4.693,4.693-4.693,12.33,0.001,17.023
		L387.35,399.747z"/>
</g>
<path style="fill:#C1876B;" d="M371.961,122.321H140.039v-12.449C140.039,49.191,189.23,0,249.911,0h12.178
	c60.681,0,109.872,49.191,109.872,109.872V122.321z"/>
<path style="fill:#B77B63;" d="M262.089,0h-9.691c39.138,17.67,66.377,57.04,66.377,102.773v19.548h53.186v-12.449
	C371.961,49.191,322.77,0,262.089,0z"/>
<path style="fill:#B27552;" d="M399.955,107.543h-287.91c-8.101,0-14.669,6.567-14.669,14.669l0,0
	c0,8.101,6.567,14.669,14.669,14.669h287.909c8.101,0,14.669-6.567,14.669-14.669l0,0
	C414.623,114.11,408.056,107.543,399.955,107.543z"/>
<path style="fill:#A46640;" d="M414.557,120.895c-0.011-0.124-0.024-0.247-0.038-0.37c-0.043-0.368-0.097-0.733-0.167-1.092
	c-0.031-0.161-0.068-0.32-0.105-0.479c-0.062-0.269-0.129-0.536-0.205-0.799c-0.058-0.203-0.121-0.404-0.188-0.604
	c-0.052-0.155-0.111-0.307-0.168-0.46c-0.157-0.422-0.333-0.834-0.527-1.236c-0.035-0.072-0.068-0.144-0.104-0.215
	c-0.13-0.259-0.266-0.514-0.411-0.763v-0.001l0,0c-2.537-4.38-7.264-7.334-12.69-7.334h-38.518l0,0
	c0,8.101-6.567,14.669-14.669,14.669H112.045c-5.426,0-10.153-2.954-12.69-7.334c-1.433,2.474-2.179,5.394-1.932,8.513
	c0.611,7.694,7.311,13.489,15.03,13.489h248.984h38.518c8.101,0,14.668-6.568,14.668-14.669
	C414.623,121.767,414.596,121.329,414.557,120.895z"/>
<g>
</g>
<g>
</g>
<g>
</g>
<g>
</g>
<g>
</g>
<g>
</g>
<g>
</g>
<g>
</g>
<g>
</g>
<g>
</g>
<g>
</g>
<g>
</g>
<g>
</g>
<g>
</g>
<g>
</g>
</svg>
