<?xml version="1.0" encoding="iso-8859-1"?>
<!-- Generator: Adobe Illustrator 19.0.0, SVG Export Plug-In . SVG Version: 6.00 Build 0)  -->
<svg version="1.1" id="Capa_1" xmlns="http://www.w3.org/2000/svg" xmlns:xlink="http://www.w3.org/1999/xlink" x="0px" y="0px"
	 viewBox="0 0 512 512" style="enable-background:new 0 0 512 512;" xml:space="preserve">
<path style="fill:#FFB125;" d="M318.273,282.558H193.727c-29.422,0-53.274-23.852-53.274-53.274V115.287h231.094v113.997
	C371.547,258.706,347.696,282.558,318.273,282.558z"/>
<path style="fill:#FFDFB8;" d="M153.181,180.245h13.775v5.233c0,28.403,21.033,60.678,47.064,76.536l-0.002,26.248
	c0,2.465-1.607,4.641-3.962,5.368l-33.114,17.647l4.327,4.334c42.826,42.891,106.664,42.89,149.489-0.002l4.321-4.328l-33.138-17.65
	c-2.355-0.727-3.961-2.903-3.961-5.368l-0.002-26.461c26.045-15.865,47.067-48.109,47.067-76.525v-5.031h13.775
	c7.134,0,12.917-5.783,12.917-12.917v-25.3l0,0c-0.011-3.853-3.138-6.97-6.991-6.97H147.254c-3.853,0-6.979,3.117-6.991,6.97l0,0
	v25.3C140.264,174.462,146.047,180.245,153.181,180.245z"/>
<path style="fill:#FEEA9E;" d="M480.137,512c9.912,0,17.748-8.401,17.059-18.289l-6.248-89.626
	c-1.818-28.585-20.5-53.323-47.469-62.854l-108.124-38.206l0,0l-0.243,0.172c-49.374,34.908-109.166,34.839-158.468-0.172l0,0l0,0
	L68.521,341.231c-26.969,9.532-45.651,34.269-47.469,62.854l-6.248,89.626C14.115,503.599,21.951,512,31.863,512H480.137z"/>
<path style="fill:#F7DC84;" d="M497.196,493.711l-6.248-89.626c-1.818-28.585-20.5-53.323-47.469-62.854l-108.124-38.206
	l-0.243,0.172c-6.426,4.543-13.031,8.48-19.764,11.838l74.136,26.197c26.969,9.532,45.651,34.269,47.469,62.854l4.786,74.33
	c0.752,11.679-8.518,21.566-20.222,21.566H31.863c-8.06,0-14.746-5.555-16.593-12.947l-0.465,6.677
	C14.115,503.599,21.951,512,31.863,512h394.28h53.993C490.049,512,497.885,503.599,497.196,493.711z"/>
<path style="fill:#FFDFB8;" d="M166.961,185.482c0,35.131,32.174,76.198,66.189,84.774c22.101,5.573,22.327,5.61,44.447,0.11
	l1.01-0.251c34.133-8.488,66.432-49.611,66.432-84.835V86.882H166.961V185.482z"/>
<path style="fill:#F4D3AE;" d="M291.046,86.882V203.53c0,25.317-16.685,53.682-38.744,70.786c6.806,0.614,12.234-0.702,25.296-3.95
	l1.01-0.251c34.133-8.488,66.432-49.611,66.432-84.835V86.882H291.046z"/>
<path style="fill:#21D8DE;" d="M405.87,417.936c-5.817-5.981-9.105-14.239-9.105-22.87v-70.342l-35.672-12.605v71.364
	c0,13.857-10.503,25.091-23.46,25.091H174.367c-12.957,0-23.46-11.234-23.46-25.091v-71.364l-35.672,12.605v70.342
	c0,8.631-3.288,16.889-9.105,22.87l0,0c-5.817,5.981-5.985,14.239-5.985,22.87V512h311.709v-71.194
	C411.854,432.175,411.687,423.917,405.87,417.936z"/>
<path style="fill:#1BCCCC;" d="M405.87,417.936c-5.817-5.981-9.105-14.239-9.105-22.87v-70.342l-35.672-12.605v71.364
	c0,10.886-6.484,20.15-15.546,23.624c1.551,4.041,3.874,7.74,6.878,10.829c5.818,5.981,5.985,14.239,5.985,22.87v34.933
	c0,13.388-10.853,24.242-24.242,24.242H100.146V512H358.41h53.445v-12.02v-59.175C411.854,432.175,411.687,423.917,405.87,417.936z"
	/>
<circle style="fill:#11B9C1;" cx="135.69" cy="407.75" r="20.417"/>
<path style="fill:#9EE8E6;" d="M127.132,416.307c-4.716-4.716-4.717-12.389,0-17.106c4.716-4.716,12.39-4.717,17.106,0
	c4.716,4.716,4.716,12.39-0.001,17.106S131.848,421.023,127.132,416.307z"/>
<circle style="fill:#11B9C1;" cx="376.31" cy="407.75" r="20.417"/>
<path style="fill:#9EE8E6;" d="M367.762,416.307c-4.716-4.716-4.716-12.389,0-17.105s12.39-4.717,17.106-0.001
	c4.716,4.716,4.716,12.39,0,17.106S372.478,421.023,367.762,416.307z"/>
<g>
	<path style="fill:#73D8D8;" d="M144.238,399.201L144.238,399.201l-17.106,17.106l0,0c4.716,4.716,12.389,4.716,17.105,0
		S148.954,403.917,144.238,399.201z"/>
	<path style="fill:#73D8D8;" d="M384.868,399.201l-17.106,17.106c4.716,4.716,12.389,4.716,17.105,0
		S389.584,403.917,384.868,399.201z"/>
</g>
<path style="fill:#C1876B;" d="M372.524,122.915H139.476v-12.51C139.476,49.43,188.906,0,249.881,0h12.237
	c60.975,0,110.405,49.43,110.405,110.405L372.524,122.915L372.524,122.915z"/>
<path style="fill:#B77B63;" d="M262.119,0h-9.738c39.328,17.756,66.699,57.317,66.699,103.272v19.643h53.445v-12.51
	C372.524,49.43,323.094,0,262.119,0z"/>
<path style="fill:#B27552;" d="M400.654,105.579H111.346c-8.141,0-14.74,6.599-14.74,14.74l0,0c0,8.141,6.599,14.74,14.74,14.74
	h289.307c8.141,0,14.74-6.599,14.74-14.74l0,0C415.393,112.178,408.794,105.579,400.654,105.579z"/>
<path style="fill:#A46640;" d="M411.785,129.962c0.021-0.024,0.043-0.046,0.063-0.07c0.293-0.342,0.568-0.698,0.829-1.066
	c0.004-0.006,0.009-0.012,0.013-0.018c1.697-2.401,2.703-5.326,2.703-8.49c0-2.524-0.637-4.899-1.755-6.976
	c-0.005,0.009-0.01,0.017-0.015,0.026c-2.48-4.631-7.347-7.789-12.97-7.789h-38.697l0,0c0.008,8.573-6.94,15.527-15.513,15.527
	H111.346c-5.616,0-10.497-3.142-12.985-7.764c-1.208,2.244-1.854,4.835-1.743,7.586c0.322,7.967,7.157,14.13,15.13,14.13h250.234
	h38.67c0.503,0,1-0.026,1.49-0.075c0.18-0.018,0.355-0.055,0.533-0.08c0.305-0.042,0.613-0.079,0.912-0.139
	c0.226-0.046,0.444-0.112,0.667-0.168c0.243-0.061,0.489-0.114,0.726-0.187c0.255-0.078,0.5-0.176,0.749-0.268
	c0.194-0.072,0.393-0.134,0.583-0.214c0.279-0.116,0.546-0.251,0.815-0.384c0.149-0.073,0.303-0.138,0.449-0.217
	c0.295-0.157,0.577-0.333,0.859-0.509c0.11-0.069,0.225-0.131,0.333-0.202c0.305-0.202,0.597-0.421,0.885-0.645
	c0.075-0.058,0.154-0.11,0.227-0.17c0.31-0.25,0.606-0.516,0.894-0.79c0.043-0.041,0.09-0.079,0.133-0.12
	C411.216,130.596,411.506,130.284,411.785,129.962z"/>
<path style="fill:#11B9C1;" d="M361.093,331.198l28.393,10.033c2.5,0.883,4.928,1.899,7.279,3.035v-19.542l-25.707-9.084
	l-9.964-3.521v19.079H361.093z"/>
<g>
</g>
<g>
</g>
<g>
</g>
<g>
</g>
<g>
</g>
<g>
</g>
<g>
</g>
<g>
</g>
<g>
</g>
<g>
</g>
<g>
</g>
<g>
</g>
<g>
</g>
<g>
</g>
<g>
</g>
</svg>
