<?xml version="1.0" encoding="iso-8859-1"?>
<!-- Generator: Adobe Illustrator 19.0.0, SVG Export Plug-In . SVG Version: 6.00 Build 0)  -->
<svg version="1.1" id="Capa_1" xmlns="http://www.w3.org/2000/svg" xmlns:xlink="http://www.w3.org/1999/xlink" x="0px" y="0px"
	 viewBox="0 0 512 512" style="enable-background:new 0 0 512 512;" xml:space="preserve">
<path style="fill:#F2A559;" d="M328.298,273.443c-2.52-3.435-7.348-4.178-10.782-1.66c-17.472,12.811-38.337,19.595-60.339,19.618
	c-0.038,0-0.074,0-0.112,0c-21.923,0-42.823-6.706-60.446-19.395c-3.456-2.489-8.278-1.704-10.766,1.752
	c-2.49,3.458-1.705,8.278,1.752,10.766c20.266,14.593,44.281,22.303,69.461,22.303c0.041,0,0.086,0,0.128,0
	c25.301-0.027,49.315-7.843,69.446-22.603C330.074,281.705,330.817,276.878,328.298,273.443z"/>
<path style="fill:#C6C5CA;" d="M258.305,0L291.6,156.455c2.857,13.426-4.367,26.959-17.113,32.055l-28.933,11.569
	c-4.061,1.624-7.098,5.097-8.165,9.338l-5.075,20.167c-1.206,4.793-5.247,8.417-10.166,8.896
	c-19.406,1.887-26.512,28.524-26.512,28.524L155.84,256.99l58.845-91.496c2.062-3.207,12.361-18.961,11.681-22.712
	C205.474,27.542,258.305,0,258.305,0z"/>
<g>
	<path style="fill:#E0E0E2;" d="M244.499,12.48c-13.875,17.074-31.466,54.457-18.452,128.458l20.141-8.054
		c12.745-5.096,19.97-18.629,17.113-32.055L244.499,12.48z"/>
	<path style="fill:#E0E0E2;" d="M327.391,207.753c-4.438-7.693-9.879-16.743-16.487-27.147
		c-24.637-38.788-30.008-50.884-63.126-46.808s-45.435-10.293-63.083-52.908c-9.983-24.108-9.632-44.578-7.444-57.814
		c0.148-0.896-0.909-1.472-1.578-0.858c-5.982,5.497-22.833,25.112-18.706,68.881c3.965,42.056,31.357,77.192,50.445,85.703
		c0.812,0.362,69.922,30.6,70.451,32.749c0.003,0.013,0.006,0.026,0.01,0.039l4.903,20.209c1.161,4.787,5.146,8.469,10.045,8.978
		c19.424,2.015,26.313,28.753,26.313,28.753l39.88-9.676L327.391,207.753z"/>
</g>
<circle style="fill:#999999;" cx="257.83" cy="164.74" r="29.985"/>
<path style="fill:#21D8DE;" d="M175.8,232.57l21.491,23.625c2.69,2.957,3.721,7.065,2.745,10.942l-7.826,31.098
	c-0.313,1.246-0.826,2.429-1.516,3.512c-3.982,6.248-18.754,30.382-31.725,64.023c-16.678,43.252-29.788,102.379-35.581,130.764
	c-1.87,9.164-10.746,15.129-19.94,13.413l0,0c-8.503-1.586-14.499-9.253-13.969-17.886c1.604-26.12,6.299-79.88,18.818-111.467
	c17.441-44.003,27.015-59.591,23.937-72.72c-2.114-9.017-3.909-20.975-3.909-20.975s-0.706-6.46,1.159-9.13l30.876-44.208
	C163.997,228.356,171.526,227.871,175.8,232.57z"/>
<path style="fill:#1BC9C9;" d="M197.291,256.195l-16.019-17.611c-1.537,10.424-3.48,20.107-5.918,28.553l-7.826,31.098
	c-0.313,1.246-0.826,2.429-1.516,3.512c-3.982,6.248-18.754,30.382-31.726,64.023c-16.678,43.252-29.788,102.379-35.581,130.764
	c-0.675,3.306-2.271,6.186-4.456,8.449c2.403,2.495,5.569,4.286,9.198,4.964c9.194,1.715,18.07-4.249,19.94-13.413
	c5.793-28.385,18.903-87.512,35.581-130.764c12.972-33.641,27.744-57.775,31.726-64.023c0.69-1.083,1.203-2.266,1.516-3.512
	l7.826-31.098C201.012,263.26,199.981,259.152,197.291,256.195z"/>
<path style="fill:#21D8DE;" d="M338.879,232.908l-21.691,23.441c-2.715,2.934-3.781,7.033-2.838,10.919l7.561,31.164
	c0.303,1.248,0.805,2.436,1.486,3.525c3.929,6.282,18.494,30.541,31.179,64.291c16.911,44.995,29.842,107.026,35.053,134.084
	c1.457,7.564,8.614,12.635,16.235,11.513l6.132-0.903c0.924-0.136,1.845-0.332,2.714-0.674c4.709-1.854,7.879-6.438,7.843-11.614
	c-0.16-23.131-3.099-151.869-37.744-220.151l-30.499-44.469C350.718,228.795,343.193,228.247,338.879,232.908z"/>
<path style="fill:#1BC9C9;" d="M384.809,278.501l-30.499-44.469c-3.592-5.238-11.117-5.786-15.431-1.124l-17.154,18.538
	c8.188,5.894,24.495,24.325,33.983,35.383c5.286,6.161,9.657,13.066,12.794,20.553c28.009,66.843,31.778,174.932,32.214,204.279
	c1.649,0.358,3.384,0.443,5.147,0.183l6.132-0.903c0.924-0.136,1.844-0.332,2.714-0.674c4.709-1.854,7.878-6.438,7.843-11.614
	C422.393,475.522,419.455,346.784,384.809,278.501z"/>
<g>
</g>
<g>
</g>
<g>
</g>
<g>
</g>
<g>
</g>
<g>
</g>
<g>
</g>
<g>
</g>
<g>
</g>
<g>
</g>
<g>
</g>
<g>
</g>
<g>
</g>
<g>
</g>
<g>
</g>
</svg>
