<?xml version="1.0" encoding="iso-8859-1"?>
<!-- Generator: Adobe Illustrator 19.0.0, SVG Export Plug-In . SVG Version: 6.00 Build 0)  -->
<svg version="1.1" id="Capa_1" xmlns="http://www.w3.org/2000/svg" xmlns:xlink="http://www.w3.org/1999/xlink" x="0px" y="0px"
	 viewBox="0 0 512 512" style="enable-background:new 0 0 512 512;" xml:space="preserve">
<path id="SVGCleanerId_0" style="fill:#C6C5CA;" d="M209.708,238.494l35.494-22.858L332.738,0.904
	c0.563-1.374,2.581-1.122,2.789,0.349l0.469,5.88c3.296,41.318-3.065,82.837-18.579,121.273l-40.944,103.75
	c0.011,0.075-37.665,27.437-37.665,27.437l-15.997,31.841l-32.412-15L209.708,238.494z"/>
<g>
	<path id="SVGCleanerId_0_1_" style="fill:#C6C5CA;" d="M209.708,238.494l35.494-22.858L332.738,0.904
		c0.563-1.374,2.581-1.122,2.789,0.349l0.469,5.88c3.296,41.318-3.065,82.837-18.579,121.273l-40.944,103.75
		c0.011,0.075-37.665,27.437-37.665,27.437l-15.997,31.841l-32.412-15L209.708,238.494z"/>
</g>
<path style="fill:#42A094;" d="M116.903,511.148l-24.408-10.916c-4.922-2.201-7.125-7.979-4.917-12.898l96.191-214.361
	c2.204-4.911,7.969-7.109,12.882-4.911l24.408,10.916c4.922,2.201,7.125,7.979,4.917,12.898l-96.191,214.361
	C127.581,511.147,121.816,513.345,116.903,511.148z"/>
<path style="fill:#359085;" d="M221.058,278.978l-12.013-5.373l-104.223,232.14l12.081,5.403c4.914,2.197,10.679,0,12.882-4.911
	l96.191-214.36C228.183,286.956,225.981,281.179,221.058,278.978z"/>
<path style="fill:#E0E0E2;" d="M302.292,238.494l-35.494-22.858L179.262,0.904c-0.563-1.374-2.581-1.122-2.789,0.349l-0.469,5.88
	c-3.296,41.318,3.065,82.837,18.579,121.273l40.944,103.75c-0.011,0.075,37.665,27.437,37.665,27.437l15.997,31.841l32.412-15
	L302.292,238.494z"/>
<path style="fill:#EDEDED;" d="M248.417,215.637l17.791-1.448L179.262,0.904c-0.563-1.374-2.581-1.122-2.789,0.349l-0.469,5.88
	c-0.008,0.097-0.015,0.194-0.023,0.291c-1.342,17.072,1.505,34.215,7.969,50.073L248.417,215.637z"/>
<path style="fill:#E0E0E2;" d="M335.527,1.253c-0.207-1.471-2.225-1.723-2.789-0.349l-86.945,213.282l17.821,1.45L328.08,57.497
	c5.947-14.589,8.823-30.265,8.202-45.974c-0.093-1.464-0.169-2.927-0.286-4.39L335.527,1.253z"/>
<path style="fill:#42A094;" d="M395.097,511.148l24.408-10.916c4.922-2.201,7.125-7.979,4.917-12.898l-96.191-214.361
	c-2.204-4.911-7.969-7.109-12.882-4.911l-24.408,10.916c-4.922,2.201-7.125,7.979-4.917,12.898l96.191,214.361
	C384.419,511.147,390.184,513.345,395.097,511.148z"/>
<path style="fill:#359085;" d="M424.422,487.334l-96.191-214.361c-2.204-4.911-7.968-7.108-12.882-4.911l-12.552,5.613
	l103.824,231.459c0.108,0.242,0.198,0.487,0.285,0.732l12.599-5.634C424.427,498.031,426.63,492.253,424.422,487.334z"/>
<circle style="fill:#999999;" cx="256" cy="223.73" r="21.847"/>
<g>
</g>
<g>
</g>
<g>
</g>
<g>
</g>
<g>
</g>
<g>
</g>
<g>
</g>
<g>
</g>
<g>
</g>
<g>
</g>
<g>
</g>
<g>
</g>
<g>
</g>
<g>
</g>
<g>
</g>
</svg>
