<?xml version="1.0" encoding="iso-8859-1"?>
<!-- Generator: Adobe Illustrator 19.0.0, SVG Export Plug-In . SVG Version: 6.00 Build 0)  -->
<svg version="1.1" id="Capa_1" xmlns="http://www.w3.org/2000/svg" xmlns:xlink="http://www.w3.org/1999/xlink" x="0px" y="0px"
	 viewBox="0 0 512 512" style="enable-background:new 0 0 512 512;" xml:space="preserve">
<path style="fill:#4D984E;" d="M299.201,103.26c-2.764-3.368-7.734-3.857-11.099-1.092c-9.343,7.668-18.463,15.901-27.108,24.47
	c-6.239,6.184-11.695,12.149-16.5,17.619c-4.233-20.153-15.355-50.67-44.419-79.991c-3.067-3.093-8.06-3.116-11.152-0.048
	c-3.093,3.066-3.115,8.059-0.049,11.152c22.616,22.815,32.937,46.401,37.612,62.17c5.092,17.171,4.803,29.104,4.8,29.199
	c-0.003,0.085-0.005,0.17-0.005,0.256l-0.025,7.71c-5.659-5.047-12.327-10.692-19.872-16.562
	c-7.938-6.175-16.233-11.994-24.654-17.296c-3.686-2.32-8.556-1.214-10.875,2.472c-2.321,3.686-1.214,8.555,2.472,10.875
	c7.981,5.024,15.844,10.541,23.373,16.398c12.633,9.828,22.694,18.987,29.488,25.565l-0.487,151.684
	c-0.014,4.356,3.506,7.897,7.861,7.912c0.009,0,0.017,0,0.026,0c4.343,0,7.872-3.514,7.886-7.86l0.494-153.776
	c0.114-0.762,0.117-1.536,0.007-2.299l0.079-24.662c0.008-0.29,0.018-0.864,0.008-1.696l0.876-1.028
	c6.723-7.903,14.344-16.861,24.162-26.592c8.296-8.224,17.047-16.124,26.011-23.481C301.475,111.596,301.964,106.627,299.201,103.26
	z"/>
<path style="fill:#80C56E;" d="M475.506,24.64c-39.2,29.857-72.79,69.347-114.182,95.59c-27.701,17.563-63.482,23.324-94.779,12.01
	c-13.335-37.631,10.834-76.602,42.299-96.302C355.973,6.43,423.841,8.078,475.506,24.64z"/>
<path style="fill:#66AD66;" d="M266.546,132.24c31.296,11.314,67.078,5.553,94.779-12.01c41.391-26.243,74.982-65.733,114.182-95.59
	C394.616,40.535,323.6,75.686,266.546,132.24z"/>
<path id="SVGCleanerId_0" style="fill:#80C56E;" d="M40.413,102.103c32.1,18.855,60.862,45.442,94.279,61.388
	c22.364,10.672,49.724,11.761,72.177,0.448c6.604-29.431-15.045-56.48-40.426-68.415C128.428,77.647,77.671,85.013,40.413,102.103z"
	/>
<g>
	<path id="SVGCleanerId_0_1_" style="fill:#80C56E;" d="M40.413,102.103c32.1,18.855,60.862,45.442,94.279,61.388
		c22.364,10.672,49.724,11.761,72.177,0.448c6.604-29.431-15.045-56.48-40.426-68.415C128.428,77.647,77.671,85.013,40.413,102.103z
		"/>
</g>
<path style="fill:#BA7D60;" d="M90.636,325.943c3.652-0.007,7.202,0.414,10.618,1.193c9.647-26.709,35.196-45.824,65.238-45.882
	c4.418-0.008,8.734,0.414,12.924,1.193c10.559-24.83,35.148-42.266,63.837-42.321c28.689-0.055,53.345,17.286,63.999,42.075
	c4.187-0.796,8.502-1.235,12.92-1.243c29.667-0.057,55.012,18.493,65.03,44.641c1.496-0.146,3.01-0.228,4.543-0.231
	c26.077-0.05,47.257,21.048,47.307,47.125c0.05,26.077-21.048,47.257-47.125,47.307c-11.873,0.023-285.858,0.55-299.108,0.575
	c-26.077,0.05-47.257-21.049-47.307-47.125C43.461,347.173,64.56,325.993,90.636,325.943z"/>
<path style="fill:#A56A58;" d="M389.744,325.368c-1.533,0.003-3.048,0.085-4.543,0.231c-10.018-26.148-35.363-44.698-65.03-44.641
	c-4.418,0.008-8.732,0.447-12.92,1.243c-10.654-24.79-35.31-42.131-63.999-42.076c-28.368,0.055-52.718,17.108-63.468,41.496
	c8.517-3.75,17.93-5.841,27.832-5.86c28.689-0.055,53.345,17.286,63.999,42.075c4.187-0.796,8.502-1.235,12.92-1.243
	c29.667-0.057,55.012,18.493,65.03,44.641c1.496-0.146,3.01-0.228,4.543-0.231c26.077-0.05,47.257,21.048,47.307,47.125
	c0.007,3.612-0.405,7.124-1.167,10.505c21.099-4.752,36.846-23.613,36.803-46.141C437,346.416,415.821,325.318,389.744,325.368z"/>
<path style="fill:#FED9A8;" d="M38.915,335l105.678,70.725l31.495-1.767l1.233-12.397c1.835-18.453,16.043-33.263,34.404-35.861
	l84.384-9.716c19.466-2.754,38.208-9.277,55.177-19.204l0,0c23.168-13.553,49.525-20.696,76.366-20.696h60.84v138.874
	l-160.796,52.479c-6.077,1.716-12.459,2.229-18.696,1.244c-0.037-0.006-0.075-0.012-0.112-0.018l-161.884-23.335
	c-12.471-1.991-24.195-7.244-33.982-15.226L8.395,374.414c-9.39-8.338-11.131-22.351-4.066-32.733l0,0
	C12.058,330.322,27.511,327.337,38.915,335z"/>
<g>
	<path style="fill:#F4C892;" d="M309,452.978c-0.037-0.006-161.302-2.982-206.515-37.155L3.686,342.726
		c-6.274,10.262-4.372,23.624,4.709,31.688l104.628,85.69c9.787,7.982,21.51,13.235,33.982,15.226l161.884,23.335
		c0.037,0.006,0.075,0.012,0.112,0.018c6.237,0.985,12.62,0.472,18.696-1.244l160.796-52.479v-50.961l-160.796,57.736
		C321.62,453.45,315.237,453.964,309,452.978z"/>
	<polygon style="fill:#F4C892;" points="355.364,391.903 176.087,403.958 323.557,383.121 	"/>
</g>
<path style="fill:#4FB7A8;" d="M457.435,492.13h45.178c5.184,0,9.387-4.203,9.387-9.387V283.499c0-5.184-4.203-9.387-9.387-9.387
	h-45.178c-5.184,0-9.387,4.203-9.387,9.387v199.245C448.048,487.928,452.25,492.13,457.435,492.13z"/>
<path style="fill:#42A094;" d="M502.613,274.111h-31.976c5.184,0,9.387,4.203,9.387,9.387v199.245c0,5.184-4.203,9.387-9.387,9.387
	h31.976c5.184,0,9.387-4.203,9.387-9.387V283.498C512,278.314,507.797,274.111,502.613,274.111z"/>
<path style="fill:#66AD66;" d="M166.444,95.524c-38.016-17.877-88.773-10.511-126.031,6.579c62.016,4.61,118.055,24.94,165.91,62.1
	c0.181-0.09,0.365-0.173,0.546-0.264C213.473,134.507,191.824,107.459,166.444,95.524z"/>
<g>
</g>
<g>
</g>
<g>
</g>
<g>
</g>
<g>
</g>
<g>
</g>
<g>
</g>
<g>
</g>
<g>
</g>
<g>
</g>
<g>
</g>
<g>
</g>
<g>
</g>
<g>
</g>
<g>
</g>
</svg>
