<?xml version="1.0" encoding="iso-8859-1"?>
<!-- Generator: Adobe Illustrator 19.0.0, SVG Export Plug-In . SVG Version: 6.00 Build 0)  -->
<svg version="1.1" id="Capa_1" xmlns="http://www.w3.org/2000/svg" xmlns:xlink="http://www.w3.org/1999/xlink" x="0px" y="0px"
	 viewBox="0 0 512.001 512.001" style="enable-background:new 0 0 512.001 512.001;" xml:space="preserve">
<path style="fill:#FEC37D;" d="M37.29,67.917l52.895,380.961c2.101,15.134,15.041,26.402,30.321,26.402h15.492
	c9.828,0,18.66-6.002,22.279-15.139l0,0c3.619-9.138,12.45-15.139,22.279-15.139h150.89c9.828,0,18.66,6.002,22.279,15.139l0,0
	c3.619,9.138,12.45,15.139,22.279,15.139h15.492c15.28,0,28.219-11.267,30.321-26.402L474.71,67.917H37.29z"/>
<path style="fill:#F9AE5D;" d="M423.201,67.917l-52.895,380.961c-0.003,0.018-0.005,0.037-0.008,0.055
	c-0.404,2.867-3.77,4.276-6.136,2.607c-3.709-2.616-6.678-6.252-8.436-10.604l0,0c-3.693-9.138-12.705-15.139-22.735-15.139H179.009
	c-10.029,0-19.042,6.002-22.735,15.139l0,0c-3.693,9.138-12.705,15.139-22.735,15.139H117.73c-13.338,0-24.922-8.247-29.337-20.104
	l1.792,12.907c2.101,15.134,15.041,26.402,30.321,26.402h15.492c9.828,0,18.66-6.002,22.279-15.139l0,0
	c3.619-9.138,12.45-15.139,22.278-15.139h150.89c9.828,0,18.66,6.002,22.278,15.139l0,0c1.265,3.195,3.179,5.995,5.538,8.301l0,0
	l0.433,0.402c0.712,0.661,1.46,1.284,2.245,1.856c0.003,0.002,0.005,0.004,0.008,0.006c0.847,0.614,1.732,1.172,2.652,1.67
	c0.144,0.078,0.289,0.154,0.434,0.23c0.322,0.166,0.646,0.327,0.976,0.478c0.309,0.142,0.62,0.28,0.935,0.41
	c0.224,0.092,0.451,0.176,0.678,0.261c0.281,0.105,0.564,0.204,0.849,0.299c0.185,0.061,0.368,0.127,0.555,0.184
	c0.448,0.137,0.903,0.257,1.36,0.368c0.166,0.04,0.333,0.076,0.501,0.113c0.424,0.093,0.85,0.176,1.281,0.245
	c0.086,0.014,0.171,0.032,0.257,0.045c0.513,0.078,1.031,0.133,1.552,0.178c0.183,0.015,0.366,0.028,0.549,0.04
	c0.499,0.032,1,0.052,1.5,0.052h15.465c15.28,0,28.219-11.267,30.321-26.402l52.898-380.96H423.201z"/>
<path style="fill:#F2A559;" d="M501.777,99.722H10.223C4.577,99.722,0,95.146,0,89.5V46.943C0,41.297,4.577,36.72,10.223,36.72
	h491.555c5.646,0,10.223,4.577,10.223,10.223V89.5C512,95.146,507.423,99.722,501.777,99.722z"/>
<path style="fill:#EA8F3D;" d="M501.777,36.72h-42.695v63.002h42.695c5.646,0,10.223-4.577,10.223-10.223V46.943
	C512,41.297,507.423,36.72,501.777,36.72z"/>
<path style="fill:#F2A559;" d="M440.289,234.191c-26.325,0-26.325-10.302-52.651-10.302c-26.327,0-26.327,10.302-52.653,10.302
	c-26.325,0-26.325-10.302-52.65-10.302c-26.326,0-26.326,10.302-52.651,10.302c-26.327,0-26.327-10.302-52.654-10.302
	c-26.326,0-26.326,10.302-52.652,10.302c-26.33,0-26.33-10.302-52.659-10.302c-5.105,0-9.196,0.254-12.676,0.686l8.841,63.676
	c3.05-0.596,6.532-0.966,10.675-0.966c25.348,0,25.348,10.302,50.695,10.302c25.349,0,25.349-10.302,50.697-10.302
	c25.347,0,25.347,10.302,50.694,10.302c25.348,0,25.348-10.302,50.695-10.302c25.349,0,25.349,10.302,50.697,10.302
	s25.348-10.302,50.696-10.302c25.351,0,25.472,10.865,50.817,10.301c3.592-0.08,6.65-0.28,9.349-0.568l8.87-63.881
	C448.509,233.784,444.773,234.191,440.289,234.191z"/>
<path style="fill:#EA8F3D;" d="M440.289,234.191c-20.719,0-25.138-6.378-38.912-9.096l-8.728,62.859
	c16.038,2.353,19.38,10.111,40.901,9.632c3.592-0.08,6.65-0.28,9.349-0.568l8.87-63.881
	C448.509,233.784,444.773,234.191,440.289,234.191z"/>
<g>
</g>
<g>
</g>
<g>
</g>
<g>
</g>
<g>
</g>
<g>
</g>
<g>
</g>
<g>
</g>
<g>
</g>
<g>
</g>
<g>
</g>
<g>
</g>
<g>
</g>
<g>
</g>
<g>
</g>
</svg>
