<?xml version="1.0" encoding="iso-8859-1"?>
<!-- Generator: Adobe Illustrator 19.0.0, SVG Export Plug-In . SVG Version: 6.00 Build 0)  -->
<svg version="1.1" id="Capa_1" xmlns="http://www.w3.org/2000/svg" xmlns:xlink="http://www.w3.org/1999/xlink" x="0px" y="0px"
	 viewBox="0 0 512 512" style="enable-background:new 0 0 512 512;" xml:space="preserve">
<path style="fill:#808080;" d="M322.084,12.478H189.915c-82.832,0-150.22,67.389-150.22,150.22v81.98
	c0,4.264,3.455,7.719,7.719,7.719s7.719-3.455,7.719-7.719v-13.894h401.733v13.894c0,4.264,3.455,7.719,7.719,7.719
	s7.719-3.455,7.719-7.719v-81.98C472.303,79.867,404.915,12.478,322.084,12.478z M55.134,215.346v-52.648
	c0-74.32,60.463-134.782,134.782-134.782h132.168c74.32,0,134.782,60.463,134.782,134.782v52.648H55.134z"/>
<path style="fill:#35E5E5;" d="M369.207,512H142.793c-9.355,0-17.204-7.053-18.201-16.355L90.236,174.997h331.529l-34.356,320.648
	C386.411,504.947,378.562,512,369.207,512z"/>
<g>
	<path style="fill:#21D8DE;" d="M366.53,174.997l-34.356,320.648c-0.997,9.302-8.846,16.355-18.201,16.355h55.234
		c9.355,0,17.204-7.053,18.201-16.355l34.356-320.648L366.53,174.997L366.53,174.997z"/>
	<path style="fill:#21D8DE;" d="M431.133,259.573l8.945-83.487c0.424-3.958-2.678-7.41-6.658-7.41H78.58
		c-3.98,0-7.082,3.452-6.658,7.41l8.945,83.487c0.365,3.403,3.236,5.983,6.658,5.983h336.95
		C427.897,265.556,430.768,262.976,431.133,259.573z"/>
</g>
<path style="fill:#1BCECE;" d="M440.105,175.151c-0.006-0.176-0.011-0.353-0.03-0.526c-0.005-0.046-0.016-0.09-0.022-0.136
	c-0.025-0.191-0.053-0.381-0.094-0.567c-0.007-0.031-0.018-0.059-0.025-0.09c-0.047-0.2-0.099-0.397-0.164-0.589
	c-0.003-0.009-0.008-0.018-0.011-0.027c-0.072-0.212-0.154-0.419-0.246-0.621c-0.001-0.003-0.003-0.006-0.005-0.01
	c-1.052-2.29-3.364-3.909-6.089-3.909h-45.468l-4.862,45.377c-1.853,17.291-16.445,30.404-33.835,30.404H87.525
	c-3.422,0-6.293-2.58-6.658-5.983l-7.243-67.602c-1.235,1.36-1.915,3.222-1.702,5.214l8.945,83.487
	c0.365,3.403,3.236,5.983,6.658,5.983h290.047h46.903c3.422,0,6.293-2.58,6.658-5.983l8.945-83.487
	c0.026-0.248,0.039-0.494,0.039-0.738C440.117,175.282,440.108,175.217,440.105,175.151z"/>
<path style="fill:#F2A559;" d="M321.003,40.899H190.996c-5.35,0-9.687-4.337-9.687-9.687V9.687c0-5.35,4.337-9.687,9.687-9.687
	h130.005c5.35,0,9.687,4.337,9.687,9.687v21.525C330.69,36.562,326.353,40.899,321.003,40.899z"/>
<path style="fill:#E89246;" d="M321.003,20.693H190.996c-5.35,0-9.687-4.337-9.687-9.687v20.206c0,5.35,4.337,9.687,9.687,9.687
	h130.005c5.35,0,9.687-4.337,9.687-9.687V11.006C330.69,16.356,326.353,20.693,321.003,20.693z"/>
<polygon style="fill:#21D8DE;" points="404.536,335.779 107.463,335.779 109.117,351.217 402.883,351.217 "/>
<polygon style="fill:#1BCECE;" points="347.648,351.217 402.883,351.217 404.536,335.779 349.303,335.779 "/>
<g>
</g>
<g>
</g>
<g>
</g>
<g>
</g>
<g>
</g>
<g>
</g>
<g>
</g>
<g>
</g>
<g>
</g>
<g>
</g>
<g>
</g>
<g>
</g>
<g>
</g>
<g>
</g>
<g>
</g>
</svg>
