<?xml version="1.0" encoding="iso-8859-1"?>
<!-- Generator: Adobe Illustrator 19.0.0, SVG Export Plug-In . SVG Version: 6.00 Build 0)  -->
<svg version="1.1" id="Capa_1" xmlns="http://www.w3.org/2000/svg" xmlns:xlink="http://www.w3.org/1999/xlink" x="0px" y="0px"
	 viewBox="0 0 512 512" style="enable-background:new 0 0 512 512;" xml:space="preserve">
<path style="fill:#4D984E;" d="M349.111,141.54c-2.395-3.617-7.27-4.607-10.886-2.211c-7.067,4.68-14.072,9.716-20.821,14.965
	c-12.565,9.777-23.744,19.649-32.571,28.096l-0.042-9.618c0-0.068-0.002-0.156-0.004-0.224c-0.004-0.133-0.334-13.443,5.333-32.595
	c5.207-17.598,16.71-43.918,41.936-69.367c3.054-3.082,3.033-8.054-0.048-11.108c-3.083-3.056-8.056-3.03-11.108,0.048
	c-36.964,37.291-47.62,76.299-50.65,97.523c-8.313-9.504-17.683-19.433-28.019-29.679c-13.162-13.048-27.209-25.327-41.75-36.496
	c-3.442-2.642-8.372-1.995-11.014,1.445c-2.642,3.441-1.995,8.371,1.445,11.014c14.02,10.768,27.565,22.609,40.26,35.194
	c14.827,14.696,27.577,28.677,37.943,41.596l0.611,139.193c0.019,4.326,3.532,7.82,7.854,7.82c0.012,0,0.024,0,0.036,0
	c4.338-0.019,7.84-3.551,7.82-7.89L284.93,204.56c8.616-9.179,23.972-23.746,42.121-37.866c6.434-5.007,13.112-9.806,19.849-14.268
	C350.516,150.031,351.506,145.157,349.111,141.54z"/>
<path style="fill:#96CBEB;" d="M421.796,510.65L125.274,512c-14.473,0.064-26.257-11.617-26.321-26.09l-0.949-215.812l348.933-1.58
	l0.949,215.812C447.95,498.803,436.269,510.587,421.796,510.65z"/>
<g>
	<path style="fill:#75B8DB;" d="M446.938,268.518l-54.625,0.247l0.947,215.564c0.064,14.473-11.617,26.257-26.09,26.321h54.626
		c14.473-0.064,26.154-11.848,26.09-26.321L446.938,268.518z"/>
	<path style="fill:#75B8DB;" d="M458.86,290.497H85.85c-2.496,0-4.52-2.023-4.52-4.52V256.2c0-2.496,2.023-4.52,4.52-4.52h373.01
		c2.496,0,4.52,2.023,4.52,4.52v29.778C463.38,288.474,461.356,290.497,458.86,290.497z"/>
</g>
<path style="fill:#60A7C6;" d="M458.86,251.68h-49.332v38.817h49.332c2.496,0,4.52-2.024,4.52-4.52V256.2
	C463.38,253.703,461.356,251.68,458.86,251.68z"/>
<g>
	<path style="fill:#80C56E;" d="M5.617,13.102C49.07,46.199,86.306,89.974,132.188,119.064
		c30.707,19.469,70.371,25.855,105.063,13.313c14.782-41.715-12.01-84.915-46.888-106.752C138.12-7.084,62.888-5.258,5.617,13.102z"
		/>
	<path style="fill:#80C56E;" d="M506.383,91.471c-35.583,20.901-67.467,50.373-104.51,68.049
		c-24.791,11.83-55.119,13.038-80.009,0.497c-7.32-32.625,16.678-62.608,44.812-75.838
		C408.818,64.362,465.083,72.527,506.383,91.471z"/>
</g>
<g>
	<path style="fill:#66AD66;" d="M190.363,25.625C138.12-7.084,62.888-5.258,5.617,13.102
		C95.148,30.695,173.216,70.14,236.41,132.666c0.28-0.099,0.562-0.188,0.841-0.289C252.034,90.663,225.241,47.463,190.363,25.625z"
		/>
	<path style="fill:#66AD66;" d="M322.47,160.309c24.775,12.22,54.812,10.945,79.404-0.789
		c37.043-17.676,68.927-47.148,104.51-68.049C437.638,96.581,375.518,119.117,322.47,160.309z"/>
</g>
<circle style="fill:#75B8DB;" cx="277.4" cy="403.7" r="101.23"/>
<circle style="fill:#FFFFFF;" cx="277.4" cy="403.7" r="91.57"/>
<path style="fill:#F4F3F2;" d="M368.969,403.704c0-50.57-40.995-91.565-91.566-91.565V495.27
	C327.974,495.269,368.969,454.274,368.969,403.704z"/>
<path style="fill:#35E5E5;" d="M187.407,420.526c7.902,42.531,45.176,74.743,89.997,74.743c45.509,0,83.245-33.206,90.347-76.706
	l-0.921-0.445c-14.929,0-14.929,10.643-29.859,10.643c-14.929,0-14.929-10.643-29.859-10.643c-14.927,0-14.927,10.643-29.855,10.643
	c-14.927,0-14.927-10.643-29.853-10.643c-14.927,0-14.927,10.643-29.854,10.643c-14.926,0-14.926-10.643-29.853-10.643
	L187.407,420.526z"/>
<path style="fill:#CAE9F9;" d="M277.403,333.713c0,0-36.538,40.514-36.538,75.362c0,22.012,16.359,39.856,36.538,39.856
	c20.179,0,36.538-17.844,36.538-39.856C313.941,374.227,277.403,333.713,277.403,333.713z"/>
<g>
</g>
<g>
</g>
<g>
</g>
<g>
</g>
<g>
</g>
<g>
</g>
<g>
</g>
<g>
</g>
<g>
</g>
<g>
</g>
<g>
</g>
<g>
</g>
<g>
</g>
<g>
</g>
<g>
</g>
</svg>
