<?xml version="1.0" encoding="iso-8859-1"?>
<!-- Generator: Adobe Illustrator 19.0.0, SVG Export Plug-In . SVG Version: 6.00 Build 0)  -->
<svg version="1.1" id="Capa_1" xmlns="http://www.w3.org/2000/svg" xmlns:xlink="http://www.w3.org/1999/xlink" x="0px" y="0px"
	 viewBox="0 0 512 512" style="enable-background:new 0 0 512 512;" xml:space="preserve">
<path style="fill:#FEDD61;" d="M422.115,234.725L422.115,234.725c-11.918-11.918-31.241-11.918-43.159,0l-53.867,43.511V66.854
	c0-16.548-12.868-30.641-29.405-31.229c-17.362-0.617-31.631,13.274-31.631,30.498V30.518C264.054,13.663,250.391,0,233.537,0l0,0
	c-16.854,0-30.518,13.663-30.518,30.518v35.604c0-16.854-13.663-30.518-30.518-30.518l0,0c-16.854,0-30.518,13.663-30.518,30.518
	v42.191c0-16.854-13.663-30.518-30.518-30.518l0,0c-16.854,0-30.518,13.663-30.518,30.518l2.319,188.314
	c0.223,17.836,5.77,35.199,15.931,49.86l0,0c10.073,14.534,15.615,31.727,15.925,49.408l0.284,36.762l0.113,14.605l-3.008,53.924
	c-0.328,5.872,4.346,10.814,10.228,10.814h195.447c5.905,0,10.587-4.98,10.224-10.874l-3.32-53.865v-14.605V417.12
	c0-9.204,3.063-18.146,8.705-25.418l88.321-113.819C434.033,265.966,434.033,246.643,422.115,234.725z"/>
<g>
	<path style="fill:#FFC931;" d="M325.09,447.261v-14.604H115.407l0.113,14.604l-3.008,53.924
		c-0.328,5.873,4.346,10.814,10.228,10.814h195.447c5.905,0,10.588-4.98,10.224-10.874L325.09,447.261z"/>
	<polygon style="fill:#FFC931;" points="115.52,438.858 115.472,432.657 115.407,432.657 115.463,439.879 	"/>
</g>
<path style="fill:#EFB72B;" d="M328.41,501.126l-3.32-53.865v-14.604h-55.326v14.604l2.861,43.802
	c0.443,6.785-4.941,12.532-11.74,12.532H122.739c-4.815,0-8.816-3.314-9.931-7.737l-0.297,5.326
	c-0.328,5.873,4.346,10.814,10.228,10.814H262.86h55.326C324.091,512,328.773,507.02,328.41,501.126z"/>
<path style="fill:#FFC931;" d="M378.957,234.725l-53.867,43.511c0,0-54.032,29.414-54.032,77.036l151.057-120.546
	C410.198,222.807,390.875,222.807,378.957,234.725z"/>
<g>
	<path style="fill:#FEDD61;" d="M154.629,452.966c-4.351,0-7.879,3.527-7.879,7.879v24.686c0,4.352,3.527,7.879,7.879,7.879
		s7.879-3.527,7.879-7.879v-24.686C162.508,456.493,158.98,452.966,154.629,452.966z"/>
	<path style="fill:#FEDD61;" d="M196.123,452.966c-4.351,0-7.879,3.527-7.879,7.879v24.686c0,4.352,3.527,7.879,7.879,7.879
		s7.879-3.527,7.879-7.879v-24.686C204.002,456.493,200.474,452.966,196.123,452.966z"/>
	<path style="fill:#FEDD61;" d="M237.617,452.966c-4.351,0-7.879,3.527-7.879,7.879v24.686c0,4.352,3.527,7.879,7.879,7.879
		c4.351,0,7.879-3.527,7.879-7.879v-24.686C245.496,456.493,241.969,452.966,237.617,452.966z"/>
	<path style="fill:#FEDD61;" d="M279.112,452.966c-4.351,0-7.879,3.527-7.879,7.879v24.686c0,4.352,3.527,7.879,7.879,7.879
		c4.351,0,7.879-3.527,7.879-7.879v-24.686C286.99,456.493,283.463,452.966,279.112,452.966z"/>
</g>
<g>
	<path style="fill:#FFC931;" d="M111.466,77.795v105.577c0,16.854,13.663,30.518,30.518,30.518l0,0V108.312
		C141.984,91.458,128.32,77.795,111.466,77.795z"/>
	<path style="fill:#FFC931;" d="M172.501,35.604v147.768c0,16.854,13.663,30.518,30.518,30.518l0,0V66.122
		C203.019,49.267,189.356,35.604,172.501,35.604z"/>
	<path style="fill:#FFC931;" d="M233.537,0L233.537,0v183.372c0,16.854,13.663,30.518,30.518,30.518l0,0V66.122V30.518
		C264.054,13.663,250.391,0,233.537,0z"/>
	<path style="fill:#FFC931;" d="M294.58,35.605c-0.003,0.003-0.005,0.005-0.008,0.008v147.759c0,16.854,13.663,30.518,30.518,30.518
		l0,0V66.853C325.09,49.939,311.646,35.589,294.58,35.605z"/>
</g>
<path style="fill:#FFE183;" d="M249.311,238.416H126.893c-8.214,0-14.844,6.712-14.743,14.925l0.529,42.918
	c0.15,12.019,3.848,23.594,10.695,33.472c13.429,19.377,20.746,42.077,21.159,65.648l0,0c0.063,8.098,6.645,14.629,14.743,14.629
	h90.036c8.143,0,14.744-6.601,14.744-14.744V253.159C264.054,245.017,257.453,238.416,249.311,238.416z"/>
<g>
</g>
<g>
</g>
<g>
</g>
<g>
</g>
<g>
</g>
<g>
</g>
<g>
</g>
<g>
</g>
<g>
</g>
<g>
</g>
<g>
</g>
<g>
</g>
<g>
</g>
<g>
</g>
<g>
</g>
</svg>
