<?xml version="1.0" encoding="iso-8859-1"?>
<!-- Generator: Adobe Illustrator 19.0.0, SVG Export Plug-In . SVG Version: 6.00 Build 0)  -->
<svg version="1.1" id="Capa_1" xmlns="http://www.w3.org/2000/svg" xmlns:xlink="http://www.w3.org/1999/xlink" x="0px" y="0px"
	 viewBox="0 0 512 512" style="enable-background:new 0 0 512 512;" xml:space="preserve">
<path style="fill:#B27959;" d="M0.002,396.116c0.034-3.724,0.223-8.383,0.707-14.038c0.699,6.02,4.315,11.455,9.889,14.338l0,0
	c45.737,23.657,95.973,37.343,147.39,40.152l0,0c33.359,1.823,66.81-0.955,99.412-8.255l51.004-11.421
	c24.993-5.596,50.527-8.42,76.14-8.42H498.04l0.815,50.829c0.007,0.458-0.033,0.904-0.108,1.34l0.108,6.714
	c0.065,4.041-3.194,7.352-7.236,7.352h-135.22c-3.997,0-7.236-3.24-7.236-7.236v-8.053v-0.754c0-4.595-4.077-8.116-8.626-7.471
	c-8.157,1.156-16.27,2.631-24.321,4.434l-51.005,11.421c-28.627,6.41-58.019,9.66-87.36,9.66c-0.002,0-14.588-0.106-21.813-0.596
	c-63.028-4.27-105.457-15.796-147.036-46.664c-5.716-4.243-9.065-10.966-9-18.084C0.016,409.763-0.006,397.029,0.002,396.116z"/>
<path style="fill:#BC866C;" d="M498.855,459.301l-0.815-50.829H384.544c-25.612,0-51.146,2.824-76.14,8.42L257.4,428.313
	c-32.602,7.3-66.053,10.078-99.412,8.255l0,0c-51.417-2.81-101.652-16.495-147.39-40.152l0,0c-5.574-2.883-9.191-8.318-9.889-14.338
	c-0.484,5.655-0.673,10.314-0.707,14.038c-0.008,0.913,0.014,13.647,0,15.248c-0.004,0.446,0.005,0.89,0.028,1.333
	c0.071-3.401,0.269-7.475,0.679-12.273c0.699,6.02,4.315,11.454,9.889,14.338l0,0c45.737,23.658,95.973,37.343,147.39,40.152l0,0
	c33.359,1.823,66.81-0.955,99.412-8.255l51.004-11.421c24.993-5.596,50.527-8.42,76.14-8.42H498.04l0.675,42.071
	c0.098-0.495,0.149-1.008,0.14-1.534l-0.108-6.714C498.821,460.206,498.862,459.759,498.855,459.301z"/>
<path style="fill:#42A094;" d="M0.809,380.073L0.809,380.073c2.916-18.078,16.971-32.321,35.009-35.475l95.857-18.17
	c29.515-5.595,61.249-21.147,80.678-44.058l0,0c23.588-27.817,36.535-63.105,36.535-99.576V44.915L490.354,79.19l-5.842,57.086
	c-6.34,56.482-3.575,113.555,7.426,169.316c5.405,27.399,8.769,62.654,6.102,105.964H384.544c-25.612,0-51.146,2.824-76.139,8.42
	l-51.005,11.42c-32.602,7.3-66.053,10.078-99.412,8.255l0,0c-51.417-2.81-101.652-16.495-147.39-40.152l0,0
	C3.482,395.818-0.466,387.983,0.809,380.073z"/>
<path style="fill:#2E897C;" d="M491.938,305.591c-11.001-55.761-13.766-112.835-7.426-169.316l5.842-57.086l-51.919-7.37
	l-7.391,64.455c-6.34,56.482-3.575,113.555,7.426,169.316c5.406,27.399,8.769,62.654,6.102,105.964h53.468
	C500.707,368.245,497.343,332.991,491.938,305.591z"/>
<path style="fill:#4FB7A8;" d="M376.628,272.971c39.749,0,71.985-32.346,71.671-72.093c-0.18-22.831,0.986-45.566,3.51-68.111
	l5.691-58.24L281.778,49.584v133.21c0,4.528-0.165,9.042-0.493,13.534c-3.023,41.491,30.312,76.643,71.913,76.643H376.628z"/>
<path style="fill:#2E897C;" d="M219.178,69.662V47.801c0-7.373,6.345-13.147,13.686-12.452l267.805,25.334
	c6.934,0.656,11.997,6.85,11.26,13.776l-2.283,21.455c-0.724,6.809-6.789,11.77-13.607,11.13L230.517,82.115
	C224.09,81.512,219.178,76.117,219.178,69.662z"/>
<g>
	<path style="fill:#85D6C7;" d="M419.755,123.19l-101.239-10.792c-4.225-0.443-8.031,2.615-8.482,6.848
		c-0.452,4.234,2.615,8.031,6.848,8.482l101.239,10.792c0.278,0.029,0.553,0.044,0.827,0.044c3.89,0,7.234-2.937,7.655-6.893
		C427.054,127.439,423.988,123.642,419.755,123.19z"/>
	<path style="fill:#85D6C7;" d="M412.389,158.225l-92.22-9.831c-4.227-0.438-8.031,2.615-8.482,6.848
		c-0.452,4.234,2.614,8.031,6.848,8.482l92.22,9.831c0.278,0.029,0.553,0.044,0.827,0.044c3.89,0,7.234-2.937,7.655-6.893
		C419.688,162.473,416.622,158.676,412.389,158.225z"/>
	<path style="fill:#85D6C7;" d="M405.022,193.258l-83.201-8.869c-4.221-0.448-8.03,2.614-8.482,6.848
		c-0.452,4.234,2.615,8.031,6.848,8.482l83.201,8.869c0.278,0.029,0.553,0.044,0.827,0.044c3.89,0,7.234-2.937,7.655-6.893
		C412.322,197.507,409.255,193.71,405.022,193.258z"/>
	<path style="fill:#85D6C7;" d="M397.656,228.293l-74.183-7.908c-4.223-0.443-8.031,2.615-8.482,6.848
		c-0.452,4.234,2.615,8.031,6.848,8.482l74.183,7.908c0.278,0.029,0.553,0.044,0.827,0.044c3.89,0,7.234-2.937,7.655-6.893
		C404.956,232.542,401.89,228.744,397.656,228.293z"/>
</g>
<g>
</g>
<g>
</g>
<g>
</g>
<g>
</g>
<g>
</g>
<g>
</g>
<g>
</g>
<g>
</g>
<g>
</g>
<g>
</g>
<g>
</g>
<g>
</g>
<g>
</g>
<g>
</g>
<g>
</g>
</svg>
