<?xml version="1.0" encoding="iso-8859-1"?>
<!-- Generator: Adobe Illustrator 19.0.0, SVG Export Plug-In . SVG Version: 6.00 Build 0)  -->
<svg version="1.1" id="Capa_1" xmlns="http://www.w3.org/2000/svg" xmlns:xlink="http://www.w3.org/1999/xlink" x="0px" y="0px"
	 viewBox="0 0 512.001 512.001" style="enable-background:new 0 0 512.001 512.001;" xml:space="preserve">
<path style="fill:#D2E7F7;" d="M324.147,86.205V42.35H187.853v43.855c0,32.437-26.296,58.733-58.733,58.733l0,0
	c-17.533,0-31.747,14.213-31.747,31.747v286.9c0,26.739,21.676,48.415,48.415,48.415h220.423c26.739,0,48.415-21.676,48.415-48.415
	v-286.9c0-17.533-14.213-31.747-31.747-31.747l0,0C350.443,144.938,324.147,118.642,324.147,86.205z"/>
<path style="fill:#BAD7F2;" d="M382.88,144.938L382.88,144.938c-32.438,0-58.733-26.296-58.733-58.733V42.35h-49.392v61.691
	c0,32.437,26.296,58.733,58.733,58.733l0,0c17.533,0,31.747,14.213,31.747,31.747v265.446c0,16.235-13.161,29.396-29.396,29.396
	H145.788c-26.739,0-48.415-21.676-48.415-48.415v22.638c0,26.739,21.676,48.415,48.415,48.415H354.35h11.862
	c26.739,0,48.415-21.676,48.415-48.415v-22.638V176.685C414.628,159.151,400.414,144.938,382.88,144.938z"/>
<path style="fill:#D18754;" d="M355.899,89.628H156.101c-8.465,0-15.327-6.862-15.327-15.327V15.327
	C140.774,6.862,147.636,0,156.101,0H355.9c8.465,0,15.327,6.862,15.327,15.327v58.975C371.227,82.766,364.365,89.628,355.899,89.628
	z"/>
<path style="fill:#BF7643;" d="M355.899,0h-37.663v65.613c0,7.864-6.375,14.239-14.239,14.239H156.101
	c-8.465,0-15.327-6.862-15.327-15.327v9.776c0,8.465,6.862,15.327,15.327,15.327H355.9c8.465,0,15.327-6.862,15.327-15.327v-9.775
	V15.327C371.227,6.862,364.365,0,355.899,0z"/>
<path style="fill:#FFFFFF;" d="M359.067,413.284H152.933c-10.229,0-18.522-8.292-18.522-18.522V236.538
	c0-10.229,8.292-18.522,18.522-18.522h206.134c10.229,0,18.522,8.292,18.522,18.522v158.225
	C377.589,404.992,369.297,413.284,359.067,413.284z"/>
<path style="fill:#F4F3F2;" d="M359.067,218.016h-52.909c10.229,0,18.522,8.293,18.522,18.522v158.225
	c0,10.229-8.292,18.522-18.522,18.522h52.909c10.229,0,18.522-8.292,18.522-18.522V236.538
	C377.589,226.309,369.296,218.016,359.067,218.016z"/>
<path style="fill:#D18754;" d="M327.875,394.078c-3.43,0-6.56-2.302-7.463-5.776c-5.013-19.263-14.41-29.863-14.504-29.969
	c-0.177-0.196-0.367-0.427-0.523-0.64c-6.39-8.757-14.521-18.059-24.167-27.649c-3.023-3.005-3.037-7.891-0.031-10.914
	c3.004-3.021,7.89-3.037,10.914-0.031c10.116,10.058,18.709,19.884,25.543,29.209c2.012,2.324,12.163,14.812,17.704,36.108
	c1.074,4.125-1.4,8.339-5.525,9.412C329.173,393.997,328.52,394.078,327.875,394.078z"/>
<g>
	<path style="fill:#F2A559;" d="M179.237,13.002c-4.263,0-7.718,3.455-7.718,7.718v43.261c0,4.263,3.455,7.718,7.718,7.718
		s7.718-3.455,7.718-7.718V20.719C186.954,16.457,183.5,13.002,179.237,13.002z"/>
	<path style="fill:#F2A559;" d="M230.413,13.002c-4.263,0-7.718,3.455-7.718,7.718v43.261c0,4.263,3.455,7.718,7.718,7.718
		s7.718-3.455,7.718-7.718V20.719C238.13,16.457,234.675,13.002,230.413,13.002z"/>
	<path style="fill:#F2A559;" d="M281.587,13.002c-4.263,0-7.717,3.455-7.717,7.718v43.261c0,4.263,3.455,7.718,7.717,7.718
		s7.718-3.455,7.718-7.718V20.719C289.305,16.457,285.85,13.002,281.587,13.002z"/>
	<path style="fill:#F2A559;" d="M332.763,13.002c-4.263,0-7.718,3.455-7.718,7.718v43.261c0,4.263,3.455,7.718,7.718,7.718
		s7.718-3.455,7.718-7.718V20.719C340.481,16.457,337.026,13.002,332.763,13.002z"/>
</g>
<path style="fill:#80C56E;" d="M184.119,248.185c0,0,8.787,67.642,48.921,100.681c46.483,38.265,78.58,4.278,78.58,4.278
	s27.187-38.029-19.296-76.294C252.189,243.812,184.119,248.185,184.119,248.185z"/>
<path style="fill:#66AD66;" d="M292.324,276.851c-40.135-33.039-108.205-28.665-108.205-28.665l0,0
	c9.207,3.191,89.845,53.359,127.501,104.959C311.621,353.144,338.807,315.115,292.324,276.851z"/>
<g>
</g>
<g>
</g>
<g>
</g>
<g>
</g>
<g>
</g>
<g>
</g>
<g>
</g>
<g>
</g>
<g>
</g>
<g>
</g>
<g>
</g>
<g>
</g>
<g>
</g>
<g>
</g>
<g>
</g>
</svg>
