<?xml version="1.0" encoding="iso-8859-1"?>
<!-- Generator: Adobe Illustrator 19.0.0, SVG Export Plug-In . SVG Version: 6.00 Build 0)  -->
<svg version="1.1" id="Capa_1" xmlns="http://www.w3.org/2000/svg" xmlns:xlink="http://www.w3.org/1999/xlink" x="0px" y="0px"
	 viewBox="0 0 512 512" style="enable-background:new 0 0 512 512;" xml:space="preserve">
<path style="fill:#C6C5CA;" d="M247.931,382.795l16.468-36.533c2.413-5.353,7.739-8.795,13.611-8.795h20.626
	c3.514,0,6.915-1.24,9.606-3.5l17.748-14.916c6.476-5.442,15.244-7.286,23.363-4.913l0,0c6.002,1.754,11.141,5.671,14.425,10.992
	l2.086,3.381c1.793,2.906,4.529,5.11,7.751,6.244l6.988,2.459c4.168,1.467,7.473,4.704,9.024,8.841l0,0
	c1.088,2.902,3.053,5.393,5.621,7.129l3.088,2.087c3.6,2.432,5.961,6.312,6.469,10.626l0.574,4.88l-2.747,12.019H247.931V382.795z"
	/>
<path style="fill:#BBBBBC;" d="M398.334,355.27l-3.088-2.087c-2.568-1.735-4.532-4.227-5.621-7.129
	c-1.552-4.137-4.856-7.375-9.024-8.841l-6.988-2.459c-3.222-1.134-5.957-3.337-7.751-6.244l-2.086-3.381
	c-3.284-5.322-8.423-9.238-14.425-10.992l0,0c-2.581-0.755-5.228-1.079-7.846-1.001v69.658h61.124l2.747-12.019l-0.574-4.88
	C404.296,361.581,401.934,357.702,398.334,355.27z"/>
<path style="fill:#D18754;" d="M237.07,290.277c44.03-57.111,58.286-87.14,71.512-125.952H271.88
	c-9.103,29.386-30.602,56.411-58.224,81.885c-34.616-15.828-47.594-57.525-52.764-81.885h-35.494
	c5.077,39.64,30.595,73.907,57.999,111.607c-86.775,78.527-84.271,171.125-84.271,171.125h152.376
	C251.503,447.057,186.116,356.369,237.07,290.277z"/>
<path style="fill:#BC7646;" d="M237.07,290.277c44.029-57.111,58.286-87.14,71.512-125.952h-14.464
	c-13.226,38.812-44.909,68.841-88.939,125.952c-50.953,66.092-53.909,156.78-53.909,156.78h100.233
	C251.503,447.057,186.116,356.369,237.07,290.277z"/>
<path style="fill:#66AD66;" d="M456.666,80.28c-10.271-16.909-27.992-28.78-48.604-31.089
	c-13.809-18.846-36.094-31.092-61.249-31.092c-7.172,0-14.103,1.017-20.68,2.876c-6.577-1.859-13.508-2.876-20.68-2.876
	c-7.808,0-15.34,1.183-22.429,3.372C269.509,8.197,250.99,0,230.55,0c-27.882,0-52.187,15.246-65.083,37.845
	c-3.007-0.399-6.068-0.624-9.184-0.624c-38.264,0-69.284,31.019-69.284,69.284c0,0.031,0.002,0.062,0.002,0.094
	c-0.957-0.057-1.918-0.094-2.889-0.094c-27.706,0-49.942,23.418-47.995,51.541c1.64,23.677,20.791,42.871,44.464,44.56
	c14.317,1.022,27.417-4.227,36.839-13.278c8.449-8.116,21.878-7.965,30.443,0.028c10.666,9.954,24.32,20.113,36.325,20.113
	c13.344,0,25.486-5.127,34.573-13.517c6.018-5.557,14.799-6.657,21.977-2.711c10.998,6.047,23.628,9.491,37.066,9.491
	c26.212,0,49.354-13.09,63.287-33.077c1.891,0.141,3.794,0.237,5.721,0.237c5.737,0,11.318-0.658,16.69-1.864
	c3.415,3.055,1.193,3.511,17.035,8.43c11.922,13.187,29.414,21.243,48.768,20.446c31.986-1.316,58.027-27.223,59.497-59.202
	C489.939,113.005,476.658,91.305,456.666,80.28z"/>
<path style="fill:#61A361;" d="M488.864,134.968c0.002-0.712-0.005-1.422-0.027-2.129c-0.001-0.046-0.005-0.091-0.006-0.137
	c-0.052-1.575-0.163-3.135-0.33-4.678c0-0.001,0-0.002,0-0.003l0,0c-2.224-20.6-14.504-38.183-31.836-47.741
	c-10.271-16.909-27.992-28.78-48.604-31.089c-13.81-18.846-36.094-31.092-61.249-31.092c-7.172,0-14.103,1.017-20.68,2.876
	c-6.577-1.859-13.508-2.876-20.68-2.876c-1.586,0-3.157,0.061-4.719,0.158c23.141,1.471,43.456,13.318,56.365,30.935
	c20.612,2.309,38.334,14.181,48.604,31.089c19.992,11.025,33.273,32.725,32.138,57.421c-0.162,3.527-0.623,6.981-1.358,10.335
	c-5.624,25.662-37.93,34.651-55.673,15.276c-0.091-0.099-0.181-0.198-0.271-0.298c-15.842-4.919-13.621-5.376-17.035-8.43
	c-5.373,1.206-10.953,1.864-16.69,1.864c-1.927,0-3.83-0.096-5.721-0.237c-13.933,19.987-37.075,33.077-63.287,33.077
	c-13.438,0-26.068-3.444-37.066-9.491c-7.178-3.947-15.958-2.846-21.976,2.711c-9.087,8.39-21.23,13.517-34.573,13.517
	c-12.006,0-25.661-10.161-36.328-20.115c-8.594-8.021-22.021-8.077-30.517,0.048c-9.417,9.006-22.484,14.224-36.762,13.205
	c-22.573-1.611-41.021-19.14-44.111-41.292c-0.463,3.296-0.594,6.698-0.353,10.174c1.669,24.101,21.375,43.406,45.503,44.624
	c13.911,0.702,26.606-4.51,35.8-13.342c8.443-8.11,21.854-7.991,30.411-0.002c10.671,9.963,24.34,20.142,36.357,20.142
	c13.344,0,25.486-5.127,34.573-13.517c6.018-5.557,14.799-6.657,21.976-2.711c10.998,6.047,23.628,9.491,37.066,9.491
	c26.212,0,49.354-13.09,63.287-33.078c1.891,0.141,3.794,0.237,5.721,0.237c5.737,0,11.317-0.658,16.69-1.864
	c3.414,3.055,1.193,3.511,17.035,8.43c5.727,6.334,12.748,11.467,20.635,15.022l0,0h0.001c2.123,0.957,4.307,1.799,6.548,2.516
	l1.172,0.392c0.424,0.142,1.74,0.457,2.171,0.575c0.049,0.013,0.097,0.028,0.146,0.04c1.043,0.267,2.097,0.504,3.16,0.718
	c0.122,0.025,0.242,0.055,0.364,0.079c0.995,0.194,2,0.356,3.011,0.502c0.192,0.028,0.38,0.064,0.572,0.09
	c0.949,0.128,1.908,0.223,2.87,0.307c0.254,0.022,0.504,0.057,0.759,0.076c0.936,0.07,1.881,0.106,2.827,0.135
	c0.28,0.009,0.557,0.032,0.839,0.037c1.222,0.021,2.453,0.008,3.691-0.043c31.986-1.316,58.027-27.223,59.497-59.202
	c0.037-0.809,0.057-1.615,0.064-2.417C488.868,135.178,488.864,135.073,488.864,134.968z"/>
<g>
	<path style="fill:#F2A559;" d="M128.013,512h-20.155c-2.786,0-5.104-2.144-5.321-4.921l-3.471-44.451h37.737l-3.471,44.451
		C133.117,509.856,130.799,512,128.013,512z"/>
	<path style="fill:#F2A559;" d="M373.776,512h-20.155c-2.786,0-5.104-2.144-5.321-4.921l-3.471-44.451h37.737l-3.471,44.451
		C378.88,509.856,376.562,512,373.776,512z"/>
</g>
<path style="fill:#FEC37D;" d="M393.491,485.169H88.144c-7.408,0-13.787-5.228-15.241-12.492l-27.898-85.608h391.624l-27.898,85.608
	C407.277,479.94,400.899,485.169,393.491,485.169z"/>
<path style="fill:#F9AE5D;" d="M385.807,387.068l-27.898,85.608c-1.454,7.264-7.833,12.492-15.24,12.492h50.822
	c7.408,0,13.787-5.228,15.241-12.492l27.898-85.608H385.807z"/>
<path style="fill:#F2A559;" d="M450.674,398.349H30.96c-4.324,0-7.829-3.505-7.829-7.829v-15.451c0-4.324,3.505-7.829,7.829-7.829
	h419.714c4.324,0,7.829,3.505,7.829,7.829v15.451C458.503,394.844,454.998,398.349,450.674,398.349z"/>
<path style="fill:#EA8F3D;" d="M450.674,367.24h-45.297v31.109h45.297c4.324,0,7.829-3.505,7.829-7.829v-15.451
	C458.503,370.745,454.998,367.24,450.674,367.24z"/>
<g>
</g>
<g>
</g>
<g>
</g>
<g>
</g>
<g>
</g>
<g>
</g>
<g>
</g>
<g>
</g>
<g>
</g>
<g>
</g>
<g>
</g>
<g>
</g>
<g>
</g>
<g>
</g>
<g>
</g>
</svg>
