<?xml version="1.0" encoding="iso-8859-1"?>
<!-- Generator: Adobe Illustrator 19.0.0, SVG Export Plug-In . SVG Version: 6.00 Build 0)  -->
<svg version="1.1" id="Capa_1" xmlns="http://www.w3.org/2000/svg" xmlns:xlink="http://www.w3.org/1999/xlink" x="0px" y="0px"
	 viewBox="0 0 512.001 512.001" style="enable-background:new 0 0 512.001 512.001;" xml:space="preserve">
<path style="fill:#D18754;" d="M319.329,268.365c-2.865-3.232-7.808-3.533-11.042-0.667c-4.929,4.368-9.806,8.959-14.494,13.648
	c-13.408,13.408-23.047,24.525-29.877,33.222V174.997c0-4.32-3.502-7.822-7.822-7.822c-4.32,0-7.822,3.502-7.822,7.822v139.812
	c-6.841-8.732-16.53-19.928-30.064-33.462c-4.155-4.155-8.456-8.233-12.783-12.122c-3.214-2.887-8.159-2.623-11.047,0.59
	c-2.888,3.213-2.623,8.159,0.59,11.047c4.122,3.704,8.22,7.589,12.179,11.548c28.028,28.028,38.518,45.216,41.126,49.934v50.671
	c0,4.32,3.502,7.822,7.822,7.822c4.32,0,7.822-3.502,7.822-7.822v-50.999c2.915-5.187,13.55-22.216,40.939-49.605
	c4.467-4.467,9.113-8.841,13.808-13.001C321.896,276.543,322.194,271.599,319.329,268.365z"/>
<path style="fill:#FEC37D;" d="M318.116,512H193.884c-7.043,0-13.21-4.726-15.041-11.527L146.211,379.28h219.577l-32.632,121.193
	C331.326,507.274,325.159,512,318.116,512z"/>
<path style="fill:#F9AE5D;" d="M316.248,379.281l-32.632,121.193c-1.831,6.801-7.998,11.527-15.041,11.527h49.541
	c7.043,0,13.21-4.726,15.041-11.527l32.632-121.193L316.248,379.281L316.248,379.281z"/>
<path style="fill:#F2A559;" d="M371.376,407.281H140.624c-3.911,0-7.082-3.171-7.082-7.082v-27.053c0-3.911,3.171-7.082,7.082-7.082
	h230.753c3.911,0,7.082,3.171,7.082,7.082v27.053C378.46,404.11,375.288,407.281,371.376,407.281z"/>
<path style="fill:#EA8F3D;" d="M371.376,366.063h-46.545v41.217h46.545c3.911,0,7.082-3.171,7.082-7.082v-27.053
	C378.46,369.234,375.288,366.063,371.376,366.063z"/>
<g>
	<path style="fill:#80C56E;" d="M42.288,197.557c32.006,24.601,59.382,57.073,93.196,78.721
		c22.63,14.488,51.922,19.336,77.602,10.18c11.06-30.781-8.6-62.794-34.305-79.046C140.278,183.07,84.673,184.175,42.288,197.557z"
		/>
	<path style="fill:#80C56E;" d="M469.712,197.557c-32.006,24.601-59.382,57.073-93.196,78.721
		c-22.63,14.488-51.922,19.336-77.602,10.18c-11.06-30.781,8.6-62.794,34.305-79.046
		C371.722,183.07,427.327,184.175,469.712,197.557z"/>
	<path style="fill:#80C56E;" d="M256,0c-22.796,31.112-45.244,89.891-42.88,134.399c1.611,30.332,19.005,62.771,42.69,67.542
		c0.064-0.08,0.126-0.164,0.19-0.244c0.064,0.08,0.126,0.164,0.19,0.244c23.684-4.771,41.079-37.21,42.69-67.542
		C301.244,89.891,278.796,31.112,256,0z"/>
</g>
<g>
	<path style="fill:#66AD66;" d="M256.835,201.787c23.353-5.227,40.449-37.333,42.045-67.388
		c2.335-43.964-19.539-101.834-42.045-133.227L256.835,201.787L256.835,201.787z"/>
	<path style="fill:#66AD66;" d="M298.914,286.459c25.679,9.156,54.972,4.307,77.602-10.18c33.814-21.648,61.19-54.12,93.196-78.721
		C469.712,197.557,347.781,208.719,298.914,286.459z"/>
	<path style="fill:#66AD66;" d="M213.086,286.459c-25.679,9.156-54.972,4.307-77.602-10.18
		c-33.814-21.648-61.19-54.12-93.196-78.721C42.288,197.557,164.219,208.719,213.086,286.459z"/>
</g>
<g>
</g>
<g>
</g>
<g>
</g>
<g>
</g>
<g>
</g>
<g>
</g>
<g>
</g>
<g>
</g>
<g>
</g>
<g>
</g>
<g>
</g>
<g>
</g>
<g>
</g>
<g>
</g>
<g>
</g>
</svg>
