<?xml version="1.0" encoding="iso-8859-1"?>
<!-- Generator: Adobe Illustrator 19.0.0, SVG Export Plug-In . SVG Version: 6.00 Build 0)  -->
<svg version="1.1" id="Capa_1" xmlns="http://www.w3.org/2000/svg" xmlns:xlink="http://www.w3.org/1999/xlink" x="0px" y="0px"
	 viewBox="0 0 512.001 512.001" style="enable-background:new 0 0 512.001 512.001;" xml:space="preserve">
<path style="fill:#80C56E;" d="M325.244,279.179h-39.858v-54.416h39.858c23.68,0,42.877-19.197,42.877-42.877v-74.839
	c0-15.027,12.181-27.208,27.208-27.208l0,0c15.027,0,27.208,12.181,27.208,27.208v74.839
	C422.537,235.62,378.978,279.179,325.244,279.179z"/>
<path style="fill:#66AD66;" d="M395.329,79.839L395.329,79.839v103.605c0,36.848-29.871,66.718-66.718,66.718h-43.224v29.017h39.858
	c53.733,0,97.293-43.559,97.293-97.293v-74.839C422.537,92.02,410.356,79.839,395.329,79.839z"/>
<path style="fill:#80C56E;" d="M248.111,204.014h-97.324c-33.868,0-61.324-27.456-61.324-61.324V92.196
	c0-14.885,12.066-26.951,26.951-26.951l0,0c14.885,0,26.951,12.066,26.951,26.951v50.494c0,4.099,3.323,7.422,7.422,7.422h97.324
	V204.014z"/>
<path style="fill:#66AD66;" d="M149.42,175.151h98.691v-25.039h-97.324c-4.099,0-7.422-3.323-7.422-7.422V92.196
	c0-14.885-12.066-26.951-26.951-26.951l0,0v76.901C116.414,160.374,131.191,175.151,149.42,175.151z"/>
<path style="fill:#80C56E;" d="M255.741,0L255.741,0c-31.11,0-56.33,25.22-56.33,56.33v338.058h112.66V56.33
	C312.071,25.22,286.851,0,255.741,0z"/>
<path style="fill:#66AD66;" d="M255.741,0L255.741,0c-11.044,0-19.997,28.673-19.997,73.566v320.821h39.994V73.566
	C275.738,29.017,266.785,0,255.741,0z"/>
<path style="fill:#61A361;" d="M275.738,394.388V73.566C275.738,29.017,266.785,0,255.741,0v394.388H275.738z"/>
<path style="fill:#FEC37D;" d="M327.355,512H184.127c-19.158,0-34.689-15.531-34.689-34.689V376.816h212.606v100.496
	C362.044,496.469,346.513,512,327.355,512z"/>
<path style="fill:#F9AE5D;" d="M309.08,376.816v100.496c0,19.158-15.531,34.689-34.689,34.689h52.964
	c19.158,0,34.689-15.531,34.689-34.689V376.816H309.08z"/>
<path style="fill:#F2A559;" d="M374.535,391.372H136.947c-2.913,0-5.275-2.362-5.275-5.275v-18.564c0-2.913,2.362-5.275,5.275-5.275
	h237.588c2.913,0,5.275,2.362,5.275,5.275v18.564C379.809,389.011,377.448,391.372,374.535,391.372z"/>
<path style="fill:#EA8F3D;" d="M374.535,362.259h-47.007v29.113h47.007c2.913,0,5.275-2.362,5.275-5.275v-18.564
	C379.809,364.621,377.448,362.259,374.535,362.259z"/>
<g>
</g>
<g>
</g>
<g>
</g>
<g>
</g>
<g>
</g>
<g>
</g>
<g>
</g>
<g>
</g>
<g>
</g>
<g>
</g>
<g>
</g>
<g>
</g>
<g>
</g>
<g>
</g>
<g>
</g>
</svg>
