<?xml version="1.0" encoding="iso-8859-1"?>
<!-- Generator: Adobe Illustrator 19.0.0, SVG Export Plug-In . SVG Version: 6.00 Build 0)  -->
<svg version="1.1" id="Capa_1" xmlns="http://www.w3.org/2000/svg" xmlns:xlink="http://www.w3.org/1999/xlink" x="0px" y="0px"
	 viewBox="0 0 511.998 511.998" style="enable-background:new 0 0 511.998 511.998;" xml:space="preserve">
<g>
	<path style="fill:#80C56E;" d="M394.086,55.784c-27.475-15.661-62.444-6.085-78.105,21.39
		c-18.425,32.322-20.133,80.706-18.839,112.34c-8.394-2.393-17.255-3.675-26.417-3.675c-8.484,0-16.709,1.104-24.546,3.167
		c2.347-40.505,2.268-109.696-20.556-151.242c-19.359-35.241-63.621-48.116-98.862-28.756c-35.24,19.357-48.115,63.619-28.756,98.86
		c23.872,43.456,79.081,78.744,114.173,97.851c-22.866,17.578-37.608,45.202-37.608,76.273c0,53.105,43.05,162.054,96.155,162.054
		s96.155-108.949,96.155-162.054c0-30.907-14.585-58.404-37.244-75.995c28.282-15.803,68.858-42.317,85.84-72.109
		C431.137,106.414,421.561,71.445,394.086,55.784z"/>
	<path style="fill:#80C56E;" d="M297.142,189.513c-8.394-2.393-17.255-3.675-26.417-3.675c-8.484,0-16.709,1.104-24.546,3.167
		c-18.492,4.839-34.002,16.715-34.002,16.715c-22.866,17.578-37.608,45.202-37.608,76.273c0,53.105,43.05,162.054,96.155,162.054
		s96.155-108.949,96.155-162.054c0-30.907-14.585-58.404-37.244-75.995C306.84,190.71,297.142,189.513,297.142,189.513z"/>
</g>
<g>
	<path style="fill:#66AD66;" d="M234.169,57.428c-2.652-7.01-5.144-12.957-7.315-17.309c-0.408-0.789-0.807-1.587-1.23-2.357
		c-0.585-1.065-1.195-2.107-1.824-3.131c-0.21-0.342-0.435-0.67-0.65-1.007c-0.429-0.672-0.857-1.345-1.304-1.999
		c-0.27-0.394-0.554-0.775-0.83-1.163c-0.412-0.577-0.822-1.155-1.248-1.716c-0.308-0.406-0.628-0.8-0.943-1.198
		c-0.414-0.522-0.827-1.045-1.253-1.553c-0.338-0.403-0.685-0.796-1.03-1.19c-0.422-0.482-0.846-0.963-1.279-1.432
		c-0.364-0.394-0.735-0.779-1.106-1.163c-0.432-0.448-0.868-0.892-1.31-1.327c-0.388-0.381-0.78-0.756-1.175-1.127
		c-0.442-0.416-0.889-0.826-1.341-1.229c-0.411-0.367-0.825-0.73-1.243-1.087c-0.45-0.384-0.905-0.759-1.362-1.131
		c-0.435-0.353-0.872-0.704-1.314-1.047c-0.454-0.352-0.915-0.693-1.377-1.033c-0.46-0.339-0.919-0.678-1.386-1.005
		c-0.454-0.318-0.915-0.624-1.376-0.931c-0.488-0.326-0.975-0.654-1.471-0.967c-0.444-0.281-0.895-0.547-1.344-0.818
		c-0.525-0.316-1.047-0.637-1.579-0.939c-0.409-0.233-0.826-0.45-1.239-0.674c-0.584-0.317-1.165-0.64-1.756-0.941
		c-0.282-0.143-0.569-0.273-0.853-0.412c-2.549-1.254-5.163-2.364-7.834-3.311c-0.129-0.046-0.255-0.097-0.384-0.142
		c-0.8-0.279-1.607-0.533-2.416-0.783c-0.255-0.079-0.507-0.165-0.763-0.242c-0.776-0.231-1.559-0.441-2.342-0.646
		c-0.291-0.077-0.581-0.159-0.873-0.232c-0.775-0.193-1.555-0.366-2.336-0.534c-0.304-0.065-0.606-0.134-0.911-0.195
		c-0.783-0.158-1.57-0.298-2.358-0.43c-0.303-0.051-0.606-0.103-0.91-0.15c-0.799-0.123-1.6-0.231-2.404-0.328
		c-0.292-0.035-0.583-0.07-0.876-0.102c-0.821-0.089-1.643-0.164-2.468-0.226c-0.271-0.02-0.542-0.038-0.814-0.055
		c-0.849-0.054-1.698-0.094-2.55-0.118c-0.24-0.007-0.48-0.01-0.72-0.014c-0.884-0.016-1.77-0.02-2.656-0.004
		c-0.193,0.004-0.386,0.012-0.578,0.017c-0.936,0.025-1.872,0.062-2.809,0.123c-0.112,0.007-0.223,0.018-0.335,0.026
		c-7.579,0.531-15.166,2.255-22.481,5.263c13.582,5.555,75.276,49.536,97.48,188.822c4.418-2.031,9.336-3.926,14.488-5.274
		C248.186,154.375,248.406,98.792,234.169,57.428z"/>
	<path style="fill:#66AD66;" d="M329.636,205.998c-22.796-15.288-32.494-16.485-32.494-16.485
		c-8.394-2.393-17.255-3.675-26.417-3.675c-0.89,0-1.775,0.019-2.658,0.043c2.695,1.724,5.629,3.695,8.831,5.97
		c22.659,18.636,37.244,47.768,37.244,80.511c0,46.719-29.688,134.228-70.166,162.569c8.492,5.778,17.466,9.116,26.749,9.116
		c53.105,0,96.155-108.949,96.155-162.054C366.88,251.086,352.295,223.589,329.636,205.998z"/>
	<path style="fill:#66AD66;" d="M250.631,438.891c0.407,0.208,0.814,0.41,1.223,0.606
		C251.445,439.3,251.037,439.098,250.631,438.891z"/>
	<path style="fill:#66AD66;" d="M248.89,437.965c0.425,0.236,0.852,0.464,1.28,0.687
		C249.743,438.428,249.316,438.201,248.89,437.965z"/>
	<path style="fill:#66AD66;" d="M258.358,442.082c-0.851-0.268-1.698-0.564-2.541-0.884
		C256.66,441.518,257.507,441.814,258.358,442.082z"/>
	<path style="fill:#66AD66;" d="M243.976,434.931c21.02-14.717,39.127-45.39,51.682-78.02
		c-16.734,28.58-38.349,50.114-61.955,50.114c-6.863,0-13.557-1.832-20.013-5.116c10.259,15.763,22.078,28.665,34.883,35.877
		C247.027,436.914,245.493,435.963,243.976,434.931z"/>
	<path style="fill:#66AD66;" d="M254.127,440.52c0.4,0.169,0.799,0.337,1.2,0.494C254.926,440.857,254.526,440.689,254.127,440.52z"
		/>
	<path style="fill:#66AD66;" d="M259.706,442.482c-0.32-0.09-0.64-0.176-0.959-0.273
		C259.065,442.306,259.386,442.392,259.706,442.482z"/>
	<path style="fill:#66AD66;" d="M252.379,439.744c0.399,0.186,0.797,0.369,1.198,0.543
		C253.176,440.113,252.778,439.93,252.379,439.744z"/>
	<path style="fill:#66AD66;" d="M261.481,442.942c-0.3-0.071-0.601-0.14-0.9-0.218C260.881,442.802,261.181,442.871,261.481,442.942
		z"/>
	<path style="fill:#66AD66;" d="M268.85,443.998c-0.212-0.01-0.423-0.029-0.635-0.042
		C268.427,443.97,268.638,443.988,268.85,443.998z"/>
	<path style="fill:#66AD66;" d="M394.086,55.784c-3.517-2.005-7.158-3.59-10.865-4.783c4.732,14.746,15.134,77.499-70.622,144.716
		c4.568,2.397,10.211,5.704,17.037,10.281c28.282-15.804,68.858-42.317,85.84-72.109C431.137,106.414,421.561,71.445,394.086,55.784
		z"/>
	<path style="fill:#66AD66;" d="M266.986,443.861c-0.254-0.024-0.508-0.055-0.762-0.085
		C266.477,443.806,266.731,443.837,266.986,443.861z"/>
	<path style="fill:#66AD66;" d="M263.295,443.33c-0.286-0.054-0.572-0.11-0.858-0.17C262.722,443.22,263.008,443.275,263.295,443.33
		z"/>
	<path style="fill:#66AD66;" d="M265.133,443.638c-0.273-0.039-0.547-0.082-0.819-0.127
		C264.587,443.556,264.86,443.599,265.133,443.638z"/>
</g>
<path style="fill:#FEC37D;" d="M353.927,511.998H196.912c-8.826,0-16.817-6.663-18.597-15.609l-27.113-124.144h248.436
	l-27.113,124.144C370.744,505.335,362.753,511.998,353.927,511.998z"/>
<path style="fill:#F9AE5D;" d="M347.098,372.245l-27.113,124.144c-1.78,8.946-9.771,15.609-18.597,15.609h52.539
	c8.825,0,16.817-6.663,18.597-15.609l27.113-124.144H347.098z"/>
<path style="fill:#F2A559;" d="M412.608,392.136H138.231c-2.778,0-5.031-2.252-5.031-5.031v-19.218c0-2.778,2.252-5.031,5.031-5.031
	h274.376c2.778,0,5.031,2.252,5.031,5.031v19.218C417.639,389.883,415.386,392.136,412.608,392.136z"/>
<path style="fill:#EA8F3D;" d="M412.608,362.856h-47.325v29.28h47.325c2.779,0,5.031-2.252,5.031-5.031v-19.218
	C417.638,365.108,415.386,362.856,412.608,362.856z"/>
<g>
	<path style="fill:#4D984E;" d="M220.335,243.731c-1.106-4.122-5.344-6.566-9.465-5.46c-4.121,1.106-6.566,5.344-5.46,9.465
		l2.109,7.86c0.926,3.451,4.047,5.726,7.457,5.726c0.663,0,1.337-0.086,2.008-0.266c4.121-1.106,6.566-5.344,5.46-9.465
		L220.335,243.731z"/>
	<path style="fill:#4D984E;" d="M220.335,140.332c-1.105-4.122-5.341-6.566-9.465-5.46c-4.121,1.106-6.566,5.343-5.46,9.465
		l2.109,7.861c0.926,3.451,4.047,5.726,7.457,5.726c0.663,0,1.337-0.086,2.008-0.266c4.121-1.106,6.566-5.343,5.46-9.465
		L220.335,140.332z"/>
	<path style="fill:#4D984E;" d="M347.784,140.333c-1.105-4.121-5.341-6.562-9.465-5.461c-4.122,1.106-6.566,5.343-5.461,9.465
		l2.109,7.861c0.926,3.451,4.047,5.726,7.458,5.726c0.663,0,1.336-0.086,2.007-0.266c4.122-1.105,6.566-5.343,5.461-9.464
		L347.784,140.333z"/>
	<path style="fill:#4D984E;" d="M203.606,78.026l-2.109-7.86c-1.105-4.122-5.344-6.565-9.464-5.46
		c-4.121,1.106-6.566,5.343-5.46,9.464l2.109,7.86c0.926,3.451,4.047,5.726,7.457,5.726c0.663,0,1.337-0.086,2.007-0.266
		C202.267,86.384,204.712,82.147,203.606,78.026z"/>
	<path style="fill:#4D984E;" d="M333.912,100.175c0.927,3.451,4.047,5.726,7.458,5.726c0.663,0,1.337-0.086,2.007-0.266
		c4.122-1.106,6.566-5.343,5.461-9.464l-2.109-7.86c-1.107-4.122-5.347-6.565-9.465-5.46c-4.122,1.106-6.566,5.343-5.461,9.464
		L333.912,100.175z"/>
	<path style="fill:#4D984E;" d="M136.417,74.095c-1.106-4.122-5.345-6.566-9.465-5.46c-4.121,1.106-6.566,5.344-5.46,9.465
		l2.109,7.86c0.926,3.451,4.047,5.726,7.457,5.726c0.663,0,1.337-0.086,2.008-0.266c4.121-1.106,6.566-5.344,5.46-9.465
		L136.417,74.095z"/>
	<path style="fill:#4D984E;" d="M270.455,280.719c-1.105-4.122-5.344-6.566-9.464-5.46c-4.121,1.106-6.566,5.343-5.46,9.464
		l2.109,7.86c0.926,3.451,4.047,5.726,7.457,5.726c0.663,0,1.337-0.086,2.007-0.266c4.121-1.106,6.566-5.343,5.46-9.464
		L270.455,280.719z"/>
	<path style="fill:#4D984E;" d="M243.71,329.359c-1.106-4.122-5.345-6.563-9.465-5.461c-4.121,1.106-6.566,5.343-5.46,9.465
		l2.108,7.861c0.926,3.451,4.047,5.726,7.458,5.726c0.663,0,1.337-0.086,2.007-0.266c4.121-1.105,6.566-5.343,5.46-9.464
		L243.71,329.359z"/>
	<path style="fill:#4D984E;" d="M316.854,235.872c-1.107-4.122-5.346-6.564-9.465-5.46c-4.122,1.106-6.566,5.343-5.461,9.464
		l2.109,7.86c0.927,3.451,4.047,5.726,7.458,5.726c0.663,0,1.337-0.086,2.007-0.266c4.122-1.106,6.566-5.343,5.461-9.464
		L316.854,235.872z"/>
	<path style="fill:#4D984E;" d="M259.825,237.249c3.013,0,5.877-1.774,7.122-4.725l3.164-7.498
		c1.659-3.931-0.184-8.463-4.115-10.122s-8.463,0.184-10.122,4.115l-3.164,7.498c-1.659,3.931,0.184,8.463,4.115,10.122
		C257.806,237.053,258.824,237.249,259.825,237.249z"/>
	<path style="fill:#4D984E;" d="M165.666,114.573c-3.931-1.658-8.463,0.184-10.122,4.115l-3.163,7.498
		c-1.659,3.932,0.184,8.464,4.115,10.122c0.981,0.414,1.998,0.61,3,0.61c3.014,0,5.877-1.774,7.122-4.725l3.163-7.498
		C171.44,120.764,169.598,116.231,165.666,114.573z"/>
	<path style="fill:#4D984E;" d="M386.85,98.988c-3.931-1.66-8.464,0.183-10.123,4.115l-3.164,7.498
		c-1.659,3.932,0.183,8.464,4.115,10.123c0.981,0.414,1.999,0.61,3.001,0.61c3.013,0,5.876-1.774,7.122-4.724l3.164-7.498
		C392.624,105.179,390.782,100.647,386.85,98.988z"/>
	<path style="fill:#4D984E;" d="M165.666,26.708c-3.931-1.659-8.463,0.184-10.122,4.115l-3.163,7.498
		c-1.659,3.932,0.184,8.463,4.115,10.122c0.981,0.414,1.998,0.61,3,0.61c3.014,0,5.877-1.774,7.122-4.725l3.163-7.498
		C171.44,32.899,169.598,28.367,165.666,26.708z"/>
	<path style="fill:#4D984E;" d="M303.381,313.059c-3.931-1.66-8.464,0.183-10.122,4.116l-3.163,7.499
		c-1.659,3.932,0.184,8.463,4.116,10.122c0.981,0.414,1.998,0.61,3,0.61c3.013,0,5.877-1.774,7.122-4.725l3.163-7.499
		C309.156,319.249,307.313,314.717,303.381,313.059z"/>
	<path style="fill:#4D984E;" d="M336.846,280.222c-3.933-1.659-8.464,0.184-10.122,4.116l-3.163,7.498
		c-1.659,3.932,0.184,8.463,4.116,10.122c0.981,0.414,1.998,0.61,3,0.61c3.013,0,5.877-1.775,7.122-4.725l3.163-7.498
		C342.621,286.412,340.778,281.881,336.846,280.222z"/>
	<path style="fill:#4D984E;" d="M210.347,299.358c-3.932-1.658-8.463,0.184-10.122,4.115l-3.163,7.498
		c-1.659,3.932,0.184,8.463,4.115,10.122c0.981,0.414,1.998,0.61,3,0.61c3.014,0,5.877-1.774,7.122-4.725l3.163-7.498
		C216.121,305.549,214.279,301.017,210.347,299.358z"/>
</g>
<path style="fill:#F2A559;" d="M388.585,422.85l-39.247,24.226l-32.895-20.305c-2.487-1.536-5.63-1.536-8.117,0l-32.891,20.305
	l-32.891-20.305c-2.488-1.536-5.63-1.536-8.118,0l-32.89,20.305l-39.289-24.257l4.584,20.991l30.646,18.92
	c2.488,1.536,5.63,1.535,8.118,0l32.89-20.305l32.891,20.305c1.244,0.768,2.651,1.152,4.059,1.152c1.407,0,2.814-0.384,4.059-1.152
	l32.89-20.305l32.895,20.305c2.487,1.536,5.63,1.536,8.117,0l30.605-18.891L388.585,422.85z"/>
<path style="fill:#EA8F3D;" d="M388.585,422.85l-39.247,24.226l-16.375-10.108l-3.495,16.002l15.812,9.76
	c2.487,1.536,5.63,1.536,8.117,0l30.605-18.891L388.585,422.85z"/>
<g>
</g>
<g>
</g>
<g>
</g>
<g>
</g>
<g>
</g>
<g>
</g>
<g>
</g>
<g>
</g>
<g>
</g>
<g>
</g>
<g>
</g>
<g>
</g>
<g>
</g>
<g>
</g>
<g>
</g>
</svg>
