<?xml version="1.0" encoding="iso-8859-1"?>
<!-- Generator: Adobe Illustrator 19.0.0, SVG Export Plug-In . SVG Version: 6.00 Build 0)  -->
<svg version="1.1" id="Capa_1" xmlns="http://www.w3.org/2000/svg" xmlns:xlink="http://www.w3.org/1999/xlink" x="0px" y="0px"
	 viewBox="0 0 512 512" style="enable-background:new 0 0 512 512;" xml:space="preserve">
<polygon style="fill:#80C56E;" points="216.524,392.802 191.084,383.814 177.832,357.752 158.769,335.189 155.469,305.92 
	141.965,279.427 142.638,245.349 131.91,212.811 135.182,169.913 127.141,127.568 141.817,107.203 163.562,92.878 183.253,107.251 
	198.233,126.025 192.954,166.846 202.726,206.916 196.167,230.314 203.734,252.985 208.057,290.848 224.594,322.818 231.058,289.5 
	224.391,255.098 231.058,222.192 224.391,189.285 231.058,163.73 224.391,138.174 231.058,109.915 224.391,81.657 231.058,57.942 
	224.391,34.227 239.157,14.862 258.86,0 280.031,14 295.478,33.579 288.811,57.618 295.478,81.657 288.811,110.965 295.478,140.274 
	288.811,165.129 295.478,189.985 288.811,223.592 295.478,257.199 288.811,290.349 295.478,323.5 307.637,308.86 309.617,287.9 
	318.829,263.772 312.362,238.355 320.296,210.203 313.767,181.721 328.069,162.417 347.431,147.761 367.369,163.464 
	384.859,180.887 378.035,211.615 383.307,242.617 371.287,284.201 366.214,327.057 346.245,353.861 331.73,383.67 309.84,391.97 "/>
<g>
	<path style="fill:#66AD66;" d="M254.357,251.247l5.5-62.667l4.501-48.656l-5.089-62.665L258.86,0l-19.703,14.862l-14.766,19.364
		l6.667,23.715l-6.667,23.715l6.667,28.259l-6.667,28.259l6.667,25.556l-6.667,25.556l6.667,32.906l-6.667,32.906l6.667,34.402
		l-6.464,33.318l-16.537-31.97l-4.323-37.863l-7.567-22.67l6.559-23.399l-9.772-40.07l5.279-40.821l-14.98-18.774l-19.69-14.373
		c0,0-2.456,37.419,0,72.076c0.984,13.89,2.271,42.184,2.271,42.184l4.63,56.011l12.223,42.009l47.609,87.521l30.638-0.273
		l-0.322-60.992L254.357,251.247z"/>
	<polygon style="fill:#66AD66;" points="384.859,180.887 367.369,163.464 347.431,147.761 349.917,202.821 349.048,251.813 
		336.583,323.012 284.513,392.196 309.84,391.97 331.73,383.67 346.245,353.861 366.214,327.057 371.287,284.201 383.307,242.617 
		378.035,211.615 	"/>
</g>
<path style="fill:#FEC37D;" d="M316.384,512H203.522c-7.939,0-14.794-5.559-16.433-13.328L163.376,386.3H356.53l-23.713,112.372
	C331.178,506.441,324.323,512,316.384,512z"/>
<path style="fill:#F9AE5D;" d="M309.131,386.3l-23.713,112.372C283.779,506.44,276.924,512,268.985,512h47.4
	c7.939,0,14.794-5.559,16.433-13.328L356.53,386.3H309.131z"/>
<path style="fill:#F2A559;" d="M364.522,408.467H155.384c-3.352,0-6.07-2.718-6.07-6.07v-17.361c0-3.352,2.718-6.07,6.07-6.07
	h209.137c3.352,0,6.07,2.718,6.07,6.07v17.361C370.591,405.749,367.874,408.467,364.522,408.467z"/>
<path style="fill:#EA8F3D;" d="M364.522,378.966h-46.287v29.501h46.287c3.352,0,6.07-2.718,6.07-6.07v-17.361
	C370.591,381.683,367.874,378.966,364.522,378.966z"/>
<g>
</g>
<g>
</g>
<g>
</g>
<g>
</g>
<g>
</g>
<g>
</g>
<g>
</g>
<g>
</g>
<g>
</g>
<g>
</g>
<g>
</g>
<g>
</g>
<g>
</g>
<g>
</g>
<g>
</g>
</svg>
