<?xml version="1.0" encoding="iso-8859-1"?>
<!-- Generator: Adobe Illustrator 19.0.0, SVG Export Plug-In . SVG Version: 6.00 Build 0)  -->
<svg version="1.1" id="Capa_1" xmlns="http://www.w3.org/2000/svg" xmlns:xlink="http://www.w3.org/1999/xlink" x="0px" y="0px"
	 viewBox="0 0 512 512" style="enable-background:new 0 0 512 512;" xml:space="preserve">
<path id="SVGCleanerId_0" style="fill:#FEEA9E;" d="M303.662,30.708C303.662,55.729,256,75.89,256,75.89
	s-47.662-20.161-47.662-45.182S229.677,0,256,0S303.662,5.687,303.662,30.708z"/>
<g>
	<path id="SVGCleanerId_0_1_" style="fill:#FEEA9E;" d="M303.662,30.708C303.662,55.729,256,75.89,256,75.89
		s-47.662-20.161-47.662-45.182S229.677,0,256,0S303.662,5.687,303.662,30.708z"/>
</g>
<path style="fill:#FEDD61;" d="M251.463,0.063c-1.487,0.042-2.955,0.106-4.4,0.193c-0.001,0-0.001,0-0.002,0
	c-0.75,1.114-19.266,29.253,4.385,73.533C254.258,75.153,256,75.89,256,75.89s1.441-0.61,3.817-1.746
	c24.31-44.957,4.709-73.681,4.545-73.92c-1.34-0.075-2.699-0.129-4.074-0.166c-0.057-0.001-0.115-0.002-0.173-0.004
	C258.759,0.019,257.388,0,256,0c-1.522,0-3.025,0.02-4.51,0.062C251.482,0.062,251.472,0.062,251.463,0.063z"/>
<path style="fill:#80C56E;" d="M353.157,124.134C338.025,58.203,256,60.778,256,60.778s-82.025-2.575-97.157,63.356
	c-5.539,24.135,1.855,71.327,13.455,121.462c9.519,41.138,21.871,84.258,32.234,118.245c11.508,37.743,20.563,64.223,20.563,64.223
	H256h30.905c0,0,8.564-25.045,19.619-61.136c9.689-31.632,21.293-71.75,30.721-110.93
	C350.222,202.078,359.079,149.933,353.157,124.134z"/>
<path style="fill:#66AD66;" d="M298.448,124.134C291.837,58.203,256,60.778,256,60.778s-35.837-2.575-42.448,63.356
	c-2.42,24.135,0.81,71.327,5.879,121.462c4.159,41.138,9.555,84.258,14.083,118.245c5.028,37.743,8.984,64.223,8.984,64.223H256
	h13.503c0,0,3.742-25.045,8.572-61.136c4.233-31.632,9.303-71.75,13.422-110.93C297.165,202.078,301.035,149.933,298.448,124.134z"
	/>
<path style="fill:#4D984E;" d="M298.448,124.134C291.837,58.203,256,60.778,256,60.778v367.287h13.503
	c0,0,3.742-25.045,8.572-61.136c4.233-31.632,9.303-71.75,13.422-110.93C297.165,202.078,301.035,149.933,298.448,124.134z"/>
<path style="fill:#FEC37D;" d="M305.941,512h-99.882c-7.179,0-13.285-5.236-14.379-12.331l-19.381-125.674H339.7l-19.38,125.674
	C319.226,506.764,313.12,512,305.941,512z"/>
<path style="fill:#F9AE5D;" d="M290.767,373.994l-19.381,125.674c-1.094,7.095-7.2,12.331-14.379,12.331h48.934
	c7.179,0,13.285-5.236,14.379-12.331l19.381-125.674H290.767z"/>
<path style="fill:#F2A559;" d="M351.345,387.331h-190.69c-3.414,0-6.182-2.768-6.182-6.182V357.99c0-3.414,2.768-6.182,6.182-6.182
	h190.69c3.414,0,6.182,2.768,6.182,6.182v23.159C357.527,384.563,354.759,387.331,351.345,387.331z"/>
<path style="fill:#EA8F3D;" d="M351.345,351.807h-46.174v35.524h46.174c3.414,0,6.182-2.768,6.182-6.182V357.99
	C357.527,354.575,354.759,351.807,351.345,351.807z"/>
<polygon style="fill:#F2A559;" points="329.407,440.745 331.79,425.292 180.21,425.292 182.593,440.745 "/>
<polygon style="fill:#EA8F3D;" points="280.473,440.745 329.407,440.745 331.02,430.286 331.79,425.292 282.856,425.292 "/>
<g>
</g>
<g>
</g>
<g>
</g>
<g>
</g>
<g>
</g>
<g>
</g>
<g>
</g>
<g>
</g>
<g>
</g>
<g>
</g>
<g>
</g>
<g>
</g>
<g>
</g>
<g>
</g>
<g>
</g>
</svg>
