<?xml version="1.0" encoding="iso-8859-1"?>
<!-- Generator: Adobe Illustrator 19.0.0, SVG Export Plug-In . SVG Version: 6.00 Build 0)  -->
<svg version="1.1" id="Capa_1" xmlns="http://www.w3.org/2000/svg" xmlns:xlink="http://www.w3.org/1999/xlink" x="0px" y="0px"
	 viewBox="0 0 512 512" style="enable-background:new 0 0 512 512;" xml:space="preserve">
<path style="fill:#A7AEEE;" d="M205.352,147.35h100.186l0,0c39.781,31.643,62.96,79.699,62.96,130.53v193.133
	c0,22.636-18.35,40.987-40.987,40.987H183.379c-22.636,0-40.987-18.35-40.987-40.987V277.88
	C142.392,227.049,165.572,178.993,205.352,147.35L205.352,147.35z"/>
<path style="fill:#8C99E5;" d="M305.538,147.35L305.538,147.35h-51.349c39.781,31.643,62.96,79.699,62.96,130.53v193.133
	c0,22.636-18.351,40.987-40.987,40.987h51.349c22.637,0,40.987-18.35,40.987-40.987V277.88
	C368.499,227.049,345.319,178.993,305.538,147.35z"/>
<path style="fill:#C6C5CA;" d="M255.445,17.308c-4.282,0-7.753,3.471-7.753,7.753v73.398c0,4.282,3.471,7.753,7.753,7.753
	s7.753-3.471,7.753-7.753V25.061C263.198,20.779,259.727,17.308,255.445,17.308z"/>
<g>
	<path style="fill:#F2A559;" d="M227.726,35.368h55.438c0.548,0,1.034-0.354,1.202-0.875L294.938,1.65
		C295.2,0.834,294.592,0,293.736,0h-76.582c-0.856,0-1.464,0.834-1.202,1.649l10.572,32.843
		C226.693,35.014,227.178,35.368,227.726,35.368z"/>
	<path style="fill:#F2A559;" d="M183.341,81.237h-63.189c-4.282,0-7.753,3.471-7.753,7.753s3.471,7.753,7.753,7.753h63.189
		c4.282,0,7.753-3.471,7.753-7.753C191.094,84.708,187.623,81.237,183.341,81.237z"/>
	<rect x="167.94" y="77.04" style="fill:#F2A559;" width="39.925" height="23.892"/>
	<polygon style="fill:#F2A559;" points="192.939,159.409 317.15,159.409 301.136,100.936 208.952,100.936 	"/>
	<path style="fill:#F2A559;" d="M357.955,74.777c5.193,0,9.825,3.264,11.572,8.153l29.619,82.888
		c0.709,1.969,0.584,4.141-0.347,6.015l0,0c-2.631,5.297-10.011,5.755-13.276,0.824l-41.08-70.082h-71.814V74.777H357.955z"/>
</g>
<path style="fill:#E1EFFB;" d="M245.265,452.062h123.234V288.734H245.265c-5.098,0-9.23,4.132-9.23,9.23v144.867
	C236.035,447.929,240.167,452.062,245.265,452.062z"/>
<rect x="317.15" y="288.73" style="fill:#D2E7F7;" width="51.35" height="163.33"/>
<polygon style="fill:#EA8F3D;" points="255.044,159.409 317.15,159.409 301.136,100.936 255.044,100.936 "/>
<path style="fill:#FEC37D;" d="M203.019,109.424h104.05c3.055,0,5.532-2.477,5.532-5.532V73.459c0-3.055-2.477-5.532-5.532-5.532
	h-104.05c-3.055,0-5.532,2.477-5.532,5.532v30.434C197.488,106.947,199.964,109.424,203.019,109.424z"/>
<g>
</g>
<g>
</g>
<g>
</g>
<g>
</g>
<g>
</g>
<g>
</g>
<g>
</g>
<g>
</g>
<g>
</g>
<g>
</g>
<g>
</g>
<g>
</g>
<g>
</g>
<g>
</g>
<g>
</g>
</svg>
