<?xml version="1.0" encoding="iso-8859-1"?>
<!-- Generator: Adobe Illustrator 19.0.0, SVG Export Plug-In . SVG Version: 6.00 Build 0)  -->
<svg version="1.1" id="Capa_1" xmlns="http://www.w3.org/2000/svg" xmlns:xlink="http://www.w3.org/1999/xlink" x="0px" y="0px"
	 viewBox="0 0 512 512" style="enable-background:new 0 0 512 512;" xml:space="preserve">
<path style="fill:#E0E0E2;" d="M359.788,203.957l0.032-164.936c0.001-3.185-0.822-6.315-2.389-9.088l-16.69-29.54L325.04,30.051
	c-1.409,2.662-2.146,5.629-2.146,8.641V176.37c0,12.717-9.87,23.562-22.577,24.043c-13.36,0.505-24.389-10.216-24.389-23.466V39.169
	c0-3.261-0.863-6.464-2.502-9.283L256.048,0l-17.461,29.878c-1.652,2.827-2.523,6.043-2.523,9.318v137.173
	c0,12.717-9.87,23.562-22.577,24.043c-13.36,0.505-24.389-10.216-24.389-23.466V39.023c0-3.185-0.824-6.316-2.391-9.089L170.009,0.4
	l-15.66,29.658c-1.403,2.656-2.136,5.615-2.137,8.619l-0.032,165.265c-0.003,17.91,10.568,34.132,26.954,41.362l0.006,0.003
	c48.956,21.599,104.742,21.596,153.696-0.006l0,0C349.215,238.073,359.784,221.86,359.788,203.957z"/>
<path style="fill:#D1D1D3;" d="M359.817,38.936L359.817,38.936c-0.014-3.155-0.834-6.254-2.386-9.002l-16.69-29.54L325.04,30.051
	c-1.409,2.662-2.146,5.629-2.146,8.641V176.37c0,10.091-6.217,18.997-15.132,22.487l-0.001,5.101
	c-0.003,17.902-10.573,34.115-26.951,41.343l0,0c-0.274,0.121-0.553,0.228-0.827,0.348c-33.99,4.319-68.872-0.568-100.842-14.673
	l-0.006-0.003c-16.34-7.209-26.896-23.361-26.952-41.211l-0.003,14.181c-0.003,17.91,10.568,34.132,26.954,41.362l0.006,0.003
	c16.35,7.213,33.463,12.004,50.828,14.399l0,0h0.001c4.307,0.594,8.629,1.039,12.959,1.337c0.057,0.004,0.114,0.007,0.171,0.011
	c2.105,0.143,4.211,0.251,6.318,0.324c0.058,0.002,0.115,0.005,0.173,0.007c4.274,0.144,8.551,0.143,12.825-0.002
	c0.166-0.006,0.332-0.013,0.498-0.019c1.955-0.071,3.908-0.172,5.86-0.304c0.193-0.013,0.385-0.024,0.578-0.037
	c4.161-0.293,8.314-0.722,12.453-1.289c0.316-0.043,0.631-0.091,0.946-0.135c1.744-0.248,3.486-0.52,5.224-0.816
	c0.354-0.06,0.708-0.118,1.061-0.18c4.004-0.706,7.991-1.541,11.954-2.505c0.456-0.111,0.911-0.228,1.366-0.342
	c1.54-0.387,3.077-0.794,4.609-1.22c0.485-0.135,0.97-0.266,1.454-0.405c3.844-1.102,7.662-2.327,11.448-3.676
	c0.538-0.192,1.074-0.391,1.611-0.588c1.399-0.513,2.793-1.042,4.183-1.589c0.546-0.215,1.092-0.427,1.637-0.647
	c1.855-0.75,3.704-1.519,5.54-2.33l0,0c16.378-7.228,26.947-23.441,26.951-41.343l0.032-164.936
	C359.82,38.993,359.817,38.964,359.817,38.936z"/>
<path style="fill:#C6C5CA;" d="M272.722,327.266l-33.367-0.017l0.037-74.814l9.784-33.138c2.042-6.915,11.84-6.906,13.868,0.013
	l9.715,33.141L272.722,327.266z"/>
<path style="fill:#A7AEEE;" d="M276.099,357.166l-40.151-0.02c-2.512-0.001-4.548-2.039-4.547-4.551l0.015-33.475
	c0.001-2.513,2.039-4.548,4.551-4.547l40.151,0.02c2.512,0.001,4.548,2.039,4.547,4.551l-0.015,33.475
	C280.65,355.131,278.612,357.167,276.099,357.166z"/>
<path style="fill:#8C99E5;" d="M276.119,314.593l-19.994-0.01v42.573l19.974,0.01c2.513,0.001,4.55-2.035,4.552-4.547l0.015-33.475
	C280.667,316.632,278.631,314.594,276.119,314.593z"/>
<path style="fill:#D18754;" d="M281.244,340.394l-50.423-0.025c-4.341-0.002-7.861,3.515-7.863,7.855l-0.065,130.689
	c-0.009,18.264,14.79,33.078,33.054,33.087l0,0c18.264,0.009,33.078-14.79,33.087-33.054l0.065-130.689
	C289.101,343.916,285.584,340.396,281.244,340.394z M265.624,485.208c-5.246,5.246-13.752,5.246-18.998,0s-5.246-13.752,0-18.998
	c5.246-5.246,13.752-5.246,18.998,0C270.87,471.456,270.87,479.962,265.624,485.208z"/>
<path style="fill:#BC723F;" d="M281.244,340.394l-25.254-0.013v121.901c3.483-0.035,6.977,1.271,9.634,3.928
	c5.246,5.246,5.246,13.752,0,18.998c-2.657,2.657-6.151,3.963-9.634,3.928v22.863c18.245-0.014,33.036-14.803,33.045-33.053
	l0.065-130.689C289.101,343.916,285.584,340.396,281.244,340.394z"/>
<g>
</g>
<g>
</g>
<g>
</g>
<g>
</g>
<g>
</g>
<g>
</g>
<g>
</g>
<g>
</g>
<g>
</g>
<g>
</g>
<g>
</g>
<g>
</g>
<g>
</g>
<g>
</g>
<g>
</g>
</svg>
