<?xml version="1.0" encoding="iso-8859-1"?>
<!-- Generator: Adobe Illustrator 19.0.0, SVG Export Plug-In . SVG Version: 6.00 Build 0)  -->
<svg version="1.1" id="Capa_1" xmlns="http://www.w3.org/2000/svg" xmlns:xlink="http://www.w3.org/1999/xlink" x="0px" y="0px"
	 viewBox="0 0 512 512" style="enable-background:new 0 0 512 512;" xml:space="preserve">
<path style="fill:#80C56E;" d="M424.262,218.673c-1.384-2.246-3.817-3.632-6.455-3.675c-0.894-0.02-22.24-0.255-50.929,8.817
	c-26.396,8.346-64.318,26.525-95.172,65.747c-0.023,0.028-0.044,0.058-0.066,0.086c-0.002,0.002-0.004,0.004-0.005,0.006
	c-0.01,0.012-0.02,0.026-0.031,0.039c-6.466,8.233-11.487,16.214-15.104,22.619c-3.689-6.364-8.799-14.288-15.358-22.448
	c-0.005-0.007-0.061-0.076-0.067-0.084c-0.003-0.004-0.007-0.007-0.01-0.011c-0.011-0.013-0.02-0.027-0.031-0.04
	c-31.291-38.868-69.415-56.621-95.901-64.669c-28.791-8.749-50.135-8.274-51.025-8.244c-2.638,0.073-5.055,1.486-6.413,3.747
	c-1.359,2.262-1.469,5.06-0.294,7.422c0.507,1.02,12.709,25.227,37.049,46.565c24.062,21.093,51.474,31.844,80.579,31.842
	c8.87-0.001,17.902-1.004,27.039-3.014c11.402,15.145,17.305,28.688,17.42,28.954c0.018,0.043,0.044,0.079,0.063,0.121
	c0.118,0.263,0.252,0.519,0.399,0.768c0.047,0.08,0.093,0.162,0.143,0.24c0.169,0.263,0.353,0.517,0.554,0.759
	c0.066,0.079,0.136,0.153,0.205,0.229c0.159,0.177,0.326,0.346,0.501,0.508c0.076,0.071,0.15,0.144,0.229,0.211
	c0.231,0.197,0.474,0.381,0.73,0.551c0.092,0.061,0.188,0.114,0.283,0.171c0.183,0.111,0.371,0.215,0.566,0.311
	c0.117,0.058,0.232,0.115,0.352,0.167c0.041,0.018,0.079,0.04,0.121,0.058c0.22,0.092,0.443,0.169,0.666,0.239
	c0.093,0.029,0.188,0.052,0.282,0.078c0.243,0.066,0.486,0.12,0.731,0.161c0.113,0.019,0.225,0.036,0.339,0.05
	c0.267,0.033,0.533,0.053,0.798,0.058c0.05,0.001,0.099,0.011,0.149,0.011c0.351,0,0.704-0.033,1.056-0.082
	c0.043-0.006,0.085-0.013,0.128-0.019c0.622-0.097,1.242-0.263,1.847-0.521c0.062-0.026,0.119-0.06,0.18-0.088
	c0.041-0.018,0.079-0.039,0.12-0.058c0.296-0.142,0.579-0.299,0.848-0.472c0.027-0.018,0.055-0.033,0.082-0.051
	c0.3-0.198,0.582-0.413,0.847-0.647c0.023-0.02,0.044-0.043,0.067-0.063c0.242-0.219,0.468-0.452,0.679-0.698
	c0.033-0.039,0.068-0.076,0.101-0.116c0.221-0.268,0.422-0.549,0.604-0.843c0.031-0.051,0.059-0.103,0.09-0.155
	c0.167-0.285,0.318-0.578,0.448-0.881c0.011-0.026,0.027-0.048,0.038-0.074c0.062-0.148,5.814-13.811,17.096-29.153
	c8.703,1.812,17.295,2.72,25.74,2.72c29.597-0.001,57.363-11.068,81.546-32.753c24.099-21.611,36.028-45.953,36.524-46.978
	C425.786,223.715,425.644,220.919,424.262,218.673z"/>
<path style="fill:#4D984E;" d="M263.377,143.168c-0.024-4.254-3.479-7.686-7.728-7.686c-0.015,0-0.03,0-0.044,0
	c-4.269,0.024-7.71,3.504-7.686,7.772l1.291,229.92c0.024,4.254,3.48,7.686,7.728,7.686c0.015,0,0.03,0,0.044,0
	c4.269-0.024,7.71-3.504,7.686-7.772L263.377,143.168z"/>
<path style="fill:#FD747F;" d="M366.652,79.662c-3.945-11.638-15.924-19.404-29.809-19.326c-4.122,0.023-8.24,0.722-12.241,2.078
	c-8.444,2.862-27.012,13.495-43.192,24.732c-3.442,2.39-6.466,4.589-9.161,6.631c1.047-3.196,2.135-6.749,3.271-10.754
	c5.398-19.041,9.431-40.065,9.381-48.904C284.796,15.213,271.327-0.092,254.877,0s-29.746,15.548-29.64,34.454
	c0.05,8.915,4.277,29.891,9.834,48.791c1.169,3.976,2.288,7.505,3.364,10.679c-2.703-2-5.733-4.15-9.178-6.486
	c-16.306-11.055-34.993-21.479-43.468-24.246c-4.015-1.31-8.14-1.963-12.262-1.94c-13.886,0.078-25.777,7.979-29.59,19.66
	c-2.503,7.667-1.395,15.974,3.122,23.39c4.417,7.254,11.596,12.799,20.213,15.612c10.395,3.393,38.513,6.263,60.171,6.142
	c0.001,0,0,0,0.001,0c0.082,0,0.159-0.002,0.241-0.003c-18.571,12.824-39.991,31.91-45.906,39.798
	c-5.44,7.251-8.132,15.913-7.583,24.389c0.562,8.665,4.425,16.101,10.877,20.94c4.699,3.525,10.418,5.369,16.539,5.335
	c0.001,0,0,0,0.001,0c10.532-0.059,20.963-5.616,27.899-14.864c5.304-7.072,14.583-26.364,21.585-44.875
	c1.847-4.883,3.34-9.169,4.552-12.962c1.254,3.779,2.795,8.047,4.697,12.91c7.21,18.432,16.706,37.618,22.089,44.629
	c7.04,9.17,17.531,14.609,28.064,14.549c6.121-0.034,11.819-1.943,16.478-5.52c6.397-4.911,10.176-12.391,10.641-21.061
	c0.454-8.481-2.334-17.112-7.855-24.302c-6.004-7.821-27.638-26.666-46.352-39.28c0.083,0,0.16,0,0.243,0
	c21.658-0.122,49.741-3.308,60.099-6.818c8.585-2.91,15.7-8.534,20.036-15.837C368.225,95.619,369.241,87.301,366.652,79.662z"/>
<path style="fill:#FC909D;" d="M319.772,96.586c-1.344-4.051-5.715-6.246-9.769-4.903l-46.804,15.527l-0.251-49.308
	c-0.022-4.256-3.478-7.69-7.728-7.69c-0.013,0-0.027,0-0.04,0c-4.269,0.022-7.711,3.5-7.69,7.768l0.251,49.318L200.76,92.297
	c-4.068-1.298-8.415,0.945-9.714,5.012c-1.298,4.066,0.945,8.415,5.012,9.714l46.997,15.007l-28.753,40.091
	c-2.488,3.469-1.693,8.298,1.776,10.785c1.365,0.978,2.939,1.449,4.499,1.449c2.406,0,4.777-1.121,6.287-3.225l28.736-40.068
	l29.185,39.742c1.515,2.063,3.858,3.155,6.236,3.155c1.588,0,3.191-0.488,4.569-1.5c3.441-2.527,4.182-7.364,1.655-10.805
	l-29.201-39.765l46.826-15.534C318.922,105.011,321.117,100.637,319.772,96.586z"/>
<circle style="fill:#FEEA9E;" cx="255.5" cy="117.32" r="36.01"/>
<path style="fill:#FEC37D;" d="M308.883,512H202.9c-4.36,0-8.115-3.073-8.978-7.347l-28.078-139.102H345.94l-28.078,139.102
	C316.998,508.927,313.243,512,308.883,512z"/>
<path style="fill:#F9AE5D;" d="M296.683,365.551l-28.078,139.102c-0.863,4.273-4.618,7.347-8.978,7.347h49.257
	c4.36,0,8.115-3.073,8.978-7.347l28.079-139.102L296.683,365.551L296.683,365.551z"/>
<path style="fill:#F2A559;" d="M359.597,390.333H152.186c-2.645,0-4.79-2.144-4.79-4.79v-24.825c0-2.645,2.144-4.79,4.79-4.79
	h207.411c2.645,0,4.79,2.144,4.79,4.79v24.825C364.387,388.189,362.243,390.333,359.597,390.333z"/>
<path style="fill:#EA8F3D;" d="M359.597,355.929h-47.585v34.404h47.585c2.645,0,4.79-2.145,4.79-4.79v-24.825
	C364.387,358.073,362.243,355.929,359.597,355.929z"/>
<polygon style="fill:#F2A559;" points="331.907,435.066 179.876,435.066 182.996,450.525 328.787,450.525 "/>
<polygon style="fill:#EA8F3D;" points="279.531,450.525 328.787,450.525 331.907,435.066 282.651,435.066 "/>
<path style="fill:#F9DE85;" d="M280.851,91.747l-50.92,50.92c0.086,0.086,0.165,0.176,0.252,0.262
	c14.142,13.984,36.942,13.856,50.925-0.286C295.082,128.51,294.963,105.733,280.851,91.747z"/>
<g>
	<path style="fill:#66AD66;" d="M279.033,294.793c86.382,20.412,131.783-59.007,137.925-70.658c0.232-0.44-0.235-0.92-0.678-0.693
		c-13.749,7.047-124.447,63.784-137.37,70.396C278.489,294.055,278.571,294.684,279.033,294.793z"/>
	<path style="fill:#66AD66;" d="M233.879,294.089L95.735,225.247c-0.445-0.222-0.914,0.259-0.677,0.697
		c6.273,11.581,52.564,90.487,138.714,69.103C234.232,294.933,234.303,294.3,233.879,294.089z"/>
</g>
<g>
</g>
<g>
</g>
<g>
</g>
<g>
</g>
<g>
</g>
<g>
</g>
<g>
</g>
<g>
</g>
<g>
</g>
<g>
</g>
<g>
</g>
<g>
</g>
<g>
</g>
<g>
</g>
<g>
</g>
</svg>
