<?xml version="1.0" encoding="iso-8859-1"?>
<!-- Generator: Adobe Illustrator 19.0.0, SVG Export Plug-In . SVG Version: 6.00 Build 0)  -->
<svg version="1.1" id="Capa_1" xmlns="http://www.w3.org/2000/svg" xmlns:xlink="http://www.w3.org/1999/xlink" x="0px" y="0px"
	 viewBox="0 0 512 512" style="enable-background:new 0 0 512 512;" xml:space="preserve">
<g>
	<path style="fill:#4D984E;" d="M255.999,131.137c-4.272,0-7.734,3.463-7.734,7.734v214.242c0,4.271,3.462,7.734,7.734,7.734
		c4.272,0,7.734-3.463,7.734-7.734V138.872C263.734,134.6,260.272,131.137,255.999,131.137z"/>
	<path style="fill:#4D984E;" d="M429.951,210.338c-26.859-0.425-59.844,22.14-98.079,67.01
		c-27.685,32.489-47.735,64.539-48.575,65.887c-2.258,3.625-1.15,8.395,2.475,10.654c1.273,0.793,2.686,1.171,4.083,1.171
		c2.582,0,5.106-1.293,6.572-3.646c21.825-35.037,88.062-125.612,132.795-125.612c0.164,0,0.331,0.001,0.495,0.004
		c0.04,0.001,0.08,0.001,0.119,0.001c4.217,0,7.668-3.386,7.731-7.617C437.632,213.917,434.221,210.402,429.951,210.338z"/>
	<path style="fill:#4D984E;" d="M180.128,277.348c-38.235-44.869-71.185-67.406-98.079-67.01c-4.271,0.064-7.681,3.579-7.616,7.85
		c0.063,4.27,3.604,7.649,7.85,7.616c0.166-0.003,0.328-0.004,0.494-0.004c44.701,0,110.961,90.578,132.797,125.613
		c1.466,2.352,3.99,3.645,6.571,3.645c1.397,0,2.811-0.378,4.083-1.171c3.625-2.259,4.733-7.028,2.475-10.653
		C227.863,341.886,207.813,309.837,180.128,277.348z"/>
</g>
<path style="fill:#FF5F67;" d="M339.464,38.033c-11.608-12.309-30.34-13.935-49.613,0.536C287.76,13.248,273.408,0,255.999,0
	s-31.76,13.248-33.851,38.569c-19.273-14.471-38.006-12.845-49.613-0.536c-12.929,13.711-12.123,35.469,9.386,55.753
	c19.394,18.289,57.326,36.986,74.077,30.437c16.751,6.549,54.683-12.149,74.077-30.437
	C351.587,73.502,352.393,51.744,339.464,38.033z"/>
<path style="fill:#EF4246;" d="M330.077,93.786c21.509-20.283,22.315-42.042,9.386-55.753c-11.608-12.309-30.34-13.935-49.613,0.536
	C287.76,13.248,273.408,0,255.999,0v124.223C272.751,130.772,310.683,112.074,330.077,93.786z"/>
<path style="fill:#FF5F67;" d="M499.353,251.007c2.302-15.835-7.499-30.672-29.548-36.453c17.537-16.427,18.922-34.847,8.694-47.748
	s-28.479-15.753-48.472-2.425c-0.599-22.786-12.811-35.713-28.753-37.083c-17.757-1.526-33.409,11.856-35.803,39.714
	c-2.158,25.118,6.272,64.215,20.968,72.781c4.989,16.262,41.133,33.387,66.081,37.014
	C480.19,280.831,496.789,268.644,499.353,251.007z"/>
<path style="fill:#EF4246;" d="M452.521,276.809c27.67,4.023,44.269-8.164,46.833-25.802c2.302-15.835-7.499-30.673-29.548-36.453
	c17.537-16.427,18.922-34.847,8.694-47.748l-92.06,72.988C391.428,256.057,427.572,273.181,452.521,276.809z"/>
<path style="fill:#FF5F67;" d="M12.646,251.007c-2.302-15.835,7.499-30.672,29.548-36.453
	c-17.537-16.427-18.922-34.847-8.694-47.748s28.479-15.753,48.472-2.425c0.599-22.786,12.811-35.713,28.753-37.083
	c17.757-1.526,33.409,11.856,35.803,39.714c2.158,25.118-6.272,64.215-20.968,72.781c-4.989,16.262-41.133,33.387-66.081,37.014
	C31.809,280.831,15.21,268.644,12.646,251.007z"/>
<path style="fill:#EF4246;" d="M146.527,167.013c-2.394-27.858-18.045-41.24-35.803-39.714
	c-15.942,1.37-28.154,14.297-28.753,37.083c-19.993-13.329-38.244-10.476-48.472,2.425l92.06,72.988
	C140.255,231.228,148.686,192.131,146.527,167.013z"/>
<g>
	<path style="fill:#FEEA9E;" d="M301.57,71.461c-3.602-2.295-8.384-1.236-10.679,2.367l-26.91,42.231
		c-0.09,0.142-0.167,0.289-0.247,0.434V55.488c0-4.271-3.462-7.734-7.734-7.734c-4.272,0-7.734,3.463-7.734,7.734v60.992
		c-0.137-0.247-0.285-0.49-0.452-0.726l-26.91-38.107c-2.463-3.488-7.287-4.321-10.778-1.856c-3.489,2.464-4.32,7.29-1.856,10.779
		l26.91,38.107c1.507,2.134,3.896,3.273,6.324,3.273c1.542,0,3.099-0.46,4.454-1.417c2.024-1.429,3.146-3.653,3.257-5.95
		c1.314,2.396,3.859,4.022,6.785,4.022c2.925,0,5.47-1.625,6.784-4.02c0.118,2.421,1.364,4.751,3.563,6.153
		c1.288,0.821,2.727,1.212,4.149,1.212c2.554,0,5.055-1.265,6.53-3.579l26.91-42.231C306.23,78.537,305.172,73.757,301.57,71.461z"
		/>
	<path style="fill:#FEEA9E;" d="M452.74,242.603c-0.394-4.254-4.158-7.381-8.416-6.986l-45.492,4.222l43.35-34.369
		c3.347-2.654,3.909-7.518,1.256-10.865c-2.655-3.347-7.519-3.911-10.865-1.256l-43.349,34.367l14.485-43.329
		c1.354-4.051-0.832-8.433-4.883-9.787c-4.051-1.353-8.433,0.833-9.787,4.883l-14.626,43.753c-1.354,4.051,0.832,8.433,4.883,9.787
		c0.814,0.272,1.64,0.401,2.453,0.401c0.999,0,1.968-0.216,2.874-0.581c-0.88,2.437-0.523,5.256,1.204,7.436
		c1.527,1.926,3.784,2.93,6.065,2.93c0.376,0,0.752-0.037,1.126-0.092c-1.019,1.45-1.551,3.253-1.375,5.156
		c0.372,4.011,3.743,7.02,7.692,7.02c0.24,0,0.48-0.011,0.724-0.034l45.695-4.241C450.007,250.623,453.135,246.856,452.74,242.603z"
		/>
	<path style="fill:#FEEA9E;" d="M122.988,179.569c-1.307-4.067-5.665-6.301-9.729-4.997c-4.067,1.307-6.304,5.663-4.998,9.73
		l13.756,42.816L79.425,193.35c-3.345-2.653-8.21-2.093-10.865,1.256c-2.654,3.347-2.092,8.211,1.256,10.865l43.35,34.368
		l-45.492-4.222c-4.26-0.398-8.022,2.733-8.416,6.986c-0.395,4.253,2.733,8.021,6.986,8.415l47.032,4.365
		c0.244,0.023,0.484,0.034,0.724,0.034c3.949,0,7.32-3.01,7.692-7.02c0.178-1.922-0.367-3.74-1.406-5.197
		c2.218-0.052,4.399-1.045,5.885-2.92c1.405-1.772,1.9-3.969,1.566-6.038c0.744,0.235,1.526,0.364,2.322,0.364
		c0.784,0,1.581-0.12,2.368-0.373c4.067-1.307,6.304-5.663,4.998-9.73L122.988,179.569z"/>
</g>
<path style="fill:#FEC37D;" d="M313.492,512H198.507c-4.73,0-8.804-3.334-9.74-7.971l-30.463-150.915h195.39l-30.463,150.915
	C322.296,508.666,318.221,512,313.492,512z"/>
<path style="fill:#F9AE5D;" d="M303.144,353.114l-30.463,150.915c-0.936,4.637-5.01,7.971-9.74,7.971h50.551
	c4.73,0,8.804-3.334,9.74-7.971l30.463-150.915H303.144z"/>
<path style="fill:#F2A559;" d="M368.513,380.001H143.486c-2.87,0-5.197-2.327-5.197-5.197v-26.933c0-2.87,2.327-5.197,5.197-5.197
	h225.026c2.87,0,5.197,2.327,5.197,5.197v26.933C373.709,377.674,371.383,380.001,368.513,380.001z"/>
<path style="fill:#EA8F3D;" d="M368.513,342.675h-47.213v37.326h47.213c2.87,0,5.197-2.327,5.197-5.197v-26.933
	C373.71,345.001,371.383,342.675,368.513,342.675z"/>
<polygon style="fill:#F2A559;" points="338.34,429.184 173.66,429.184 176.781,444.652 335.217,444.652 "/>
<polygon style="fill:#EA8F3D;" points="287.789,429.184 284.667,444.652 335.217,444.652 335.825,441.645 338.34,429.184 "/>
<g>
	<path style="fill:#80C56E;" d="M315.734,105.147l-6.479,11.203c-23.689,40.961-82.822,40.961-106.511,0l-6.479-11.203
		c0,0,26.432,11.724,57.297,11.724C287.881,116.871,315.734,105.147,315.734,105.147z"/>
	<path style="fill:#80C56E;" d="M435.674,272.855l-12.109,1.781c-44.275,6.511-79.019-37.311-62.581-78.934l4.495-11.383
		c0,0,6.842,26.477,24.977,49.351C410.62,259.101,435.674,272.855,435.674,272.855z"/>
	<path style="fill:#80C56E;" d="M76.325,272.855l12.109,1.781c44.275,6.511,79.019-37.311,62.581-78.934l-4.495-11.383
		c0,0-6.842,26.477-24.977,49.351C101.379,259.101,76.325,272.855,76.325,272.855z"/>
</g>
<g>
</g>
<g>
</g>
<g>
</g>
<g>
</g>
<g>
</g>
<g>
</g>
<g>
</g>
<g>
</g>
<g>
</g>
<g>
</g>
<g>
</g>
<g>
</g>
<g>
</g>
<g>
</g>
<g>
</g>
</svg>
