<?xml version="1.0" encoding="iso-8859-1"?>
<!-- Generator: Adobe Illustrator 19.0.0, SVG Export Plug-In . SVG Version: 6.00 Build 0)  -->
<svg version="1.1" id="Capa_1" xmlns="http://www.w3.org/2000/svg" xmlns:xlink="http://www.w3.org/1999/xlink" x="0px" y="0px"
	 viewBox="0 0 512 512" style="enable-background:new 0 0 512 512;" xml:space="preserve">
<path style="fill:#80C56E;" d="M207.876,308.831c35.171,5.389,48.123,1.347,48.123,1.347s12.953,4.042,48.123-1.347
	c35.171-5.389,33.768-59.281,33.768-59.281s-12.133,13.293-38.606,18.323C272.813,272.904,256,302.364,256,302.364
	s-16.813-29.461-43.286-34.491s-38.606-18.323-38.606-18.323S172.706,303.442,207.876,308.831z"/>
<g>
	<path style="fill:#66AD66;" d="M337.892,249.551c0,0,0,0.014,0,0.025c-0.301,1.033-14.52,48.644-81.862,52.787v7.826
		c0.631,0.187,13.794,3.899,48.093-1.356C339.294,303.442,337.892,249.551,337.892,249.551z"/>
	<path style="fill:#66AD66;" d="M256,302.364c0,0-16.813-29.461-43.286-34.491s-38.606-18.323-38.606-18.323
		S187.892,298.189,256,302.364z"/>
</g>
<path style="fill:#80C56E;" d="M207.876,218.567c35.171,5.389,48.123,1.347,48.123,1.347s12.953,4.042,48.123-1.347
	c35.171-5.389,33.768-59.281,33.768-59.281s-12.133,13.293-38.606,18.323C272.813,182.639,256,212.1,256,212.1
	s-16.813-29.461-43.286-34.491s-38.606-18.323-38.606-18.323S172.706,213.178,207.876,218.567z"/>
<path style="fill:#C4C9F2;" d="M346.993,45.506c-10.557-11.213-71.72,10.259-89.395,24.667s-19.321,50.235-12.012,57.998
	s45.694,10.958,63.368-3.451C326.629,110.313,357.551,56.72,346.993,45.506z"/>
<path style="fill:#B0B8EA;" d="M308.954,124.721c17.675-14.408,48.596-68.001,38.039-79.215l-101.407,82.665
	C252.895,135.935,291.28,139.129,308.954,124.721z"/>
<path style="fill:#C4C9F2;" d="M165.007,45.506c10.557-11.213,71.72,10.259,89.395,24.667s19.321,50.235,12.012,57.998
	s-45.694,10.958-63.368-3.451S154.449,56.72,165.007,45.506z"/>
<path style="fill:#B0B8EA;" d="M254.402,70.173c-17.675-14.408-78.838-35.881-89.395-24.667l101.407,82.665
	C273.723,120.409,272.076,84.582,254.402,70.173z"/>
<g>
	<path style="fill:#66AD66;" d="M337.892,159.286c0,0,0,0.014,0,0.025c-0.301,1.033-14.52,48.645-81.862,52.787v7.826
		c0.631,0.187,13.794,3.899,48.093-1.356C339.294,213.178,337.892,159.286,337.892,159.286z"/>
	<path style="fill:#66AD66;" d="M256,212.1c0,0-16.813-29.461-43.286-34.491s-38.606-18.323-38.606-18.323
		S187.892,207.925,256,212.1z"/>
</g>
<path style="fill:#4D984E;" d="M256,126.512c-4.267,0-7.726,3.459-7.726,7.726v282.773c0,4.267,3.459,7.726,7.726,7.726
	c4.268,0,7.726-3.459,7.726-7.726V134.238C263.726,129.971,260.268,126.512,256,126.512z"/>
<path style="fill:#A7AEEE;" d="M255.741,0c-17.705,0-43.063,65.806-43.063,91.068s30.806,53.87,43.063,53.87
	c12.257,0,43.063-28.608,43.063-53.87S273.446,0,255.741,0z"/>
<path style="fill:#FEC37D;" d="M311.159,512H200.841c-4.538,0-8.447-3.199-9.345-7.647l-29.227-144.792h187.462l-29.227,144.792
	C319.605,508.801,315.697,512,311.159,512z"/>
<path style="fill:#F9AE5D;" d="M299.767,359.561L270.54,504.353c-0.898,4.448-4.807,7.647-9.345,7.647h49.964
	c4.538,0,8.447-3.199,9.345-7.647l29.227-144.792L299.767,359.561L299.767,359.561z"/>
<path style="fill:#F2A559;" d="M363.947,385.357H148.053c-2.754,0-4.986-2.232-4.986-4.986v-25.84c0-2.754,2.232-4.986,4.986-4.986
	h215.895c2.754,0,4.986,2.232,4.986,4.986v25.84C368.933,383.125,366.701,385.357,363.947,385.357z"/>
<path style="fill:#EA8F3D;" d="M363.947,349.545h-47.371v35.812h47.371c2.754,0,4.986-2.232,4.986-4.986v-25.84
	C368.933,351.778,366.701,349.545,363.947,349.545z"/>
<polygon style="fill:#F2A559;" points="335.712,429.011 176.288,429.011 179.407,444.463 332.592,444.463 "/>
<polygon style="fill:#EA8F3D;" points="285.747,429.011 282.629,444.463 332.592,444.463 333.215,441.384 335.712,429.011 "/>
<path style="fill:#8C99E5;" d="M298.803,91.068C298.803,65.806,273.446,0,255.741,0v144.938
	C267.997,144.938,298.803,116.33,298.803,91.068z"/>
<g>
</g>
<g>
</g>
<g>
</g>
<g>
</g>
<g>
</g>
<g>
</g>
<g>
</g>
<g>
</g>
<g>
</g>
<g>
</g>
<g>
</g>
<g>
</g>
<g>
</g>
<g>
</g>
<g>
</g>
</svg>
