<?xml version="1.0" encoding="iso-8859-1"?>
<!-- Generator: Adobe Illustrator 19.0.0, SVG Export Plug-In . SVG Version: 6.00 Build 0)  -->
<svg version="1.1" id="Capa_1" xmlns="http://www.w3.org/2000/svg" xmlns:xlink="http://www.w3.org/1999/xlink" x="0px" y="0px"
	 viewBox="0 0 512.001 512.001" style="enable-background:new 0 0 512.001 512.001;" xml:space="preserve">
<path style="fill:#4D984E;" d="M377.76,165.63c-1.691-3.917-6.238-5.721-10.156-4.031c-39.322,16.975-79.757,51.738-103.878,81.809
	V62.436c0-4.267-3.459-7.726-7.726-7.726c-4.267,0-7.726,3.459-7.726,7.726v180.972c-24.121-30.072-64.556-64.835-103.878-81.809
	c-3.917-1.693-8.465,0.114-10.156,4.031c-1.691,3.918,0.114,8.465,4.031,10.156c45.093,19.466,91.632,63.616,110.003,94.313v77.265
	c0,4.267,3.459,7.726,7.726,7.726c4.267,0,7.726-3.459,7.726-7.726v-77.265c18.37-30.697,64.91-74.847,110.003-94.313
	C377.646,174.095,379.451,169.548,377.76,165.63z"/>
<path style="fill:#FEEA9E;" d="M411.364,126.173c-3.304,12.386-23.027,34.182-39.044,29.909s-22.262-32.997-18.958-45.383
	s18.967-18.963,34.984-14.691C404.363,100.282,414.668,113.787,411.364,126.173z"/>
<g>
	<path style="fill:#F9DE85;" d="M387.971,213.858c3.304-12.386-2.941-41.11-18.958-45.383s-35.74,17.523-39.044,29.909
		c-3.304,12.386,7.001,25.891,23.018,30.164C369.004,232.822,384.667,226.245,387.971,213.858z"/>
	<path style="fill:#F9DE85;" d="M406.772,202.976c-12.386-3.304-34.182-23.027-29.909-39.044s32.997-22.262,45.383-18.958
		c12.386,3.304,18.964,18.967,14.691,34.984S419.158,206.281,406.772,202.976z"/>
</g>
<path style="fill:#FEEA9E;" d="M319.087,179.584c12.386,3.304,41.11-2.941,45.383-18.958c4.273-16.017-17.523-35.74-29.909-39.044
	c-12.386-3.304-25.891,7.001-30.164,23.018S306.701,176.279,319.087,179.584z"/>
<circle style="fill:#F2A559;" cx="370.67" cy="162.28" r="21.458"/>
<path style="fill:#FEEA9E;" d="M100.636,126.173c3.304,12.386,23.027,34.182,39.044,29.909s22.262-32.997,18.958-45.383
	s-18.967-18.963-34.984-14.691C107.637,100.282,97.332,113.787,100.636,126.173z"/>
<path style="fill:#F9DE85;" d="M124.029,213.858c-3.304-12.386,2.941-41.11,18.958-45.383s35.74,17.523,39.044,29.909
	s-7.001,25.891-23.018,30.164C142.996,232.822,127.333,226.245,124.029,213.858z"/>
<path style="fill:#FEEA9E;" d="M105.228,202.976c12.386-3.304,34.182-23.027,29.909-39.044s-32.997-22.262-45.383-18.958
	c-12.386,3.304-18.963,18.967-14.691,34.984C79.337,195.975,92.842,206.281,105.228,202.976z"/>
<path style="fill:#F9DE85;" d="M192.913,179.584c-12.386,3.304-41.11-2.941-45.383-18.958s17.523-35.74,29.909-39.044
	c12.386-3.304,25.891,7.001,30.164,23.018S205.299,176.279,192.913,179.584z"/>
<circle style="fill:#F2A559;" cx="141.33" cy="162.28" r="21.458"/>
<path style="fill:#FEEA9E;" d="M286.015,23.212c0,12.82-13.438,38.963-30.015,38.963s-30.015-26.143-30.015-38.963S239.423,0,256,0
	S286.015,10.392,286.015,23.212z"/>
<g>
	<path style="fill:#F9DE85;" d="M286.015,113.963C286.015,101.143,272.577,75,256,75s-30.015,26.143-30.015,38.963
		s13.438,23.212,30.015,23.212S286.015,126.783,286.015,113.963z"/>
	<path style="fill:#F9DE85;" d="M301.376,98.603c-12.82,0-38.963-13.438-38.963-30.015s26.143-30.015,38.963-30.015
		c12.819,0,23.212,13.438,23.212,30.015S314.195,98.603,301.376,98.603z"/>
</g>
<path style="fill:#FEEA9E;" d="M210.624,98.603c12.82,0,38.963-13.438,38.963-30.015s-26.143-30.015-38.963-30.015
	s-23.212,13.438-23.212,30.015S197.805,98.603,210.624,98.603z"/>
<circle style="fill:#F2A559;" cx="256" cy="68.59" r="21.458"/>
<path style="fill:#80C56E;" d="M251.674,343.045l83.653-99.519c0,0-0.693,58.28-36.56,94.148S251.674,343.045,251.674,343.045z"/>
<g>
	<path style="fill:#66AD66;" d="M335.327,243.526c0,0-18.44,58.065-75.355,109.369c7.09,4.161,19.302,4.271,38.795-15.222
		C334.634,301.806,335.327,243.526,335.327,243.526z"/>
	<path style="fill:#66AD66;" d="M257.747,343.045l-83.653-99.519c0,0,0.693,58.28,36.56,94.148S257.747,343.045,257.747,343.045z"/>
</g>
<path style="fill:#80C56E;" d="M250.185,352.44c-55.78-39.544-76.091-108.915-76.091-108.915s0.692,58.28,36.56,94.148
	C230.837,357.856,243.217,357.026,250.185,352.44z"/>
<path style="fill:#FEC37D;" d="M304.919,512h-97.837c-5.992,0-11.202-4.108-12.6-9.935l-37.11-154.702h197.256l-37.11,154.702
	C316.121,507.892,310.91,512,304.919,512z"/>
<path style="fill:#F9AE5D;" d="M306.207,347.364l-37.11,154.702c-1.398,5.827-6.608,9.935-12.6,9.935h48.421
	c5.992,0,11.202-4.108,12.6-9.935l37.11-154.702L306.207,347.364L306.207,347.364z"/>
<path style="fill:#F2A559;" d="M365.277,373.06H146.723c-4.29,0-7.768-3.478-7.768-7.768v-19.767c0-4.29,3.478-7.768,7.768-7.768
	h218.554c4.29,0,7.768,3.478,7.768,7.768v19.767C373.045,369.582,369.567,373.06,365.277,373.06z"/>
<path style="fill:#EA8F3D;" d="M365.277,337.758h-44.589v35.302h44.589c4.29,0,7.768-3.478,7.768-7.767v-19.767
	C373.045,341.235,369.567,337.758,365.277,337.758z"/>
<polygon style="fill:#F2A559;" points="335.043,429.011 176.957,429.011 180.664,444.463 331.336,444.463 "/>
<polygon style="fill:#EA8F3D;" points="282.915,444.463 331.336,444.463 335.043,429.011 286.622,429.011 "/>
<g>
</g>
<g>
</g>
<g>
</g>
<g>
</g>
<g>
</g>
<g>
</g>
<g>
</g>
<g>
</g>
<g>
</g>
<g>
</g>
<g>
</g>
<g>
</g>
<g>
</g>
<g>
</g>
<g>
</g>
</svg>
