<?xml version="1.0" encoding="iso-8859-1"?>
<!-- Generator: Adobe Illustrator 19.0.0, SVG Export Plug-In . SVG Version: 6.00 Build 0)  -->
<svg version="1.1" id="Capa_1" xmlns="http://www.w3.org/2000/svg" xmlns:xlink="http://www.w3.org/1999/xlink" x="0px" y="0px"
	 viewBox="0 0 512 512" style="enable-background:new 0 0 512 512;" xml:space="preserve">
<g>
	<g>
		<path d="M196.858,360.714c-8.262,0-14.959,6.698-14.959,14.959v60.834c0,8.261,6.698,14.959,14.959,14.959
			c8.261,0,14.959-6.698,14.959-14.959v-60.834C211.818,367.412,205.12,360.714,196.858,360.714z"/>
	</g>
</g>
<g>
	<g>
		<path d="M256.695,360.714c-8.261,0-14.959,6.698-14.959,14.959v60.834c0,8.261,6.698,14.959,14.959,14.959
			c8.261,0,14.959-6.698,14.959-14.959v-60.834C271.655,367.412,264.957,360.714,256.695,360.714z"/>
	</g>
</g>
<g>
	<g>
		<path d="M316.532,360.714c-8.262,0-14.959,6.698-14.959,14.959v60.834c0,8.261,6.698,14.959,14.959,14.959
			s14.959-6.698,14.959-14.959v-60.834C331.492,367.412,324.794,360.714,316.532,360.714z"/>
	</g>
</g>
<g>
	<g>
		<path d="M377.367,360.714c-8.261,0-14.959,6.698-14.959,14.959v60.834c0,8.261,6.698,14.959,14.959,14.959
			s14.959-6.698,14.959-14.959v-60.834C392.326,367.412,385.628,360.714,377.367,360.714z"/>
	</g>
</g>
<g>
	<g>
		<path d="M512,76.488c0-8.262-6.698-14.959-14.959-14.959c-47.514,0-91.435,25.301-115.556,65.52
			c-10.676-3.679-22.127-5.682-34.036-5.682c-15.888,0-31.677,3.617-45.875,10.274V45.572c0-24.746-20.132-44.878-44.878-44.878
			c-24.746,0-44.878,20.132-44.878,44.878V180.47l-23.605-38.876c-10.486-17.574-28.553-29.725-49.358-32.464l-20.5-50.871
			C107.205,30.59,72.72,21.287,49.166,39.618c-11.723,9.124-20.048,15.604-31.839,24.781c-23.54,18.321-23.013,54.038,1.084,71.648
			l44.281,32.362c-2.409,20.479,4.65,40.729,18.813,55.246c0.514,0.613,1.065,1.173,1.652,1.682l15.714,15.703H46.268
			c-24.746,0-44.878,20.132-44.878,44.878c0,20.224,13.45,37.36,31.873,42.949l24.001,144.938c3.622,21.729,22.238,37.5,44.267,37.5
			h310.327c22.028,0,40.645-15.771,44.269-37.515l23.999-144.921c18.424-5.59,31.874-22.726,31.874-42.95
			c0-17.891-10.527-33.366-25.711-40.569C502.844,222.543,512,194.893,512,166.245V76.488z M301.573,166.275
			c12.913-9.582,29.289-14.991,45.875-14.991c41.243,0,74.796,33.554,74.796,74.796c0,5.064-0.514,10.065-1.506,14.959H301.573
			V166.275z M241.735,45.572h0.001c0-8.249,6.711-14.959,14.959-14.959c8.249,0,14.959,6.711,14.959,14.959V241.04h-29.919V45.572z
			 M73.355,139.144l-37.29-27.253c-8.028-5.867-8.213-17.772-0.362-23.883l4.115-3.202l37.788,48.552
			C76.085,135.214,74.667,137.145,73.355,139.144z M63.429,66.43l4.114-3.202c7.847-6.106,19.343-3.016,23.063,6.213l17.264,42.84
			c-2.26,0.781-4.481,1.681-6.653,2.701L63.429,66.43z M95.923,192.789c-7.772-16.098-3.248-35.384,10.828-46.34
			c17.966-13.984,44.15-9.04,55.79,10.509c0.022,0.037,0.044,0.074,0.067,0.111l49.21,81.047v2.923h-70.623l-25.638-25.621
			l27.945-21.75c6.52-5.074,7.691-14.474,2.618-20.993c-5.075-6.52-14.475-7.691-20.993-2.618L95.923,192.789z M426.615,468.886
			c-1.207,7.243-7.413,12.5-14.756,12.5H101.531c-7.343,0-13.548-5.257-14.753-12.485l-22.87-138.105h385.574L426.615,468.886z
			 M467.122,300.877H46.268c-8.249,0-14.959-6.711-14.959-14.959s6.711-14.959,14.959-14.959c26.1,0,396.62,0,420.854,0
			c8.249,0,14.959,6.711,14.959,14.959S475.371,300.877,467.122,300.877z M451.156,240.532c0.658-4.767,1.007-9.589,1.007-14.452
			c0-35.133-17.393-66.28-44.019-85.284c16.325-26.127,43.515-43.847,73.938-48.268v73.715h0
			C482.082,194.194,470.879,220.927,451.156,240.532z"/>
	</g>
</g>
<g>
	<g>
		<circle cx="347.44" cy="196.169" r="14.959"/>
	</g>
</g>
<g>
	<g>
		<path d="M136.024,360.714c-8.262,0-14.959,6.698-14.959,14.959v60.834c0,8.261,6.698,14.959,14.959,14.959
			c8.261,0,14.959-6.698,14.959-14.959v-60.834C150.983,367.412,144.285,360.714,136.024,360.714z"/>
	</g>
</g>
<g>
</g>
<g>
</g>
<g>
</g>
<g>
</g>
<g>
</g>
<g>
</g>
<g>
</g>
<g>
</g>
<g>
</g>
<g>
</g>
<g>
</g>
<g>
</g>
<g>
</g>
<g>
</g>
<g>
</g>
</svg>
