<?xml version="1.0" encoding="iso-8859-1"?>
<!-- Generator: Adobe Illustrator 19.0.0, SVG Export Plug-In . SVG Version: 6.00 Build 0)  -->
<svg version="1.1" id="Capa_1" xmlns="http://www.w3.org/2000/svg" xmlns:xlink="http://www.w3.org/1999/xlink" x="0px" y="0px"
	 viewBox="0 0 384 384" style="enable-background:new 0 0 384 384;" xml:space="preserve">
<g>
	<g>
		<path d="M341.438,42.667h-0.105v42.667h-42.667V42.667h-128v42.667H128V42.667H42.562C19.043,42.667,0,61.79,0,85.379v255.909
			C0,364.917,19.056,384,42.562,384h298.876C364.957,384,384,364.877,384,341.288V85.379C384,61.75,364.944,42.667,341.438,42.667z
			 M42.667,341.288c-0.003-170.633-0.007-255.951-0.015-255.955c199.121,0.014,298.682,0.029,298.682,0.045
			c0.002,170.633,0.007,255.951,0.015,255.955C142.227,341.32,42.667,341.304,42.667,341.288z"/>
	</g>
</g>
<g>
	<g>
		<rect x="85.333" y="256" width="42.667" height="42.667"/>
	</g>
</g>
<g>
	<g>
		<rect x="170.667" y="256" width="42.667" height="42.667"/>
	</g>
</g>
<g>
	<g>
		<rect x="170.667" y="170.667" width="42.667" height="42.667"/>
	</g>
</g>
<g>
	<g>
		<rect x="85.333" y="170.667" width="42.667" height="42.667"/>
	</g>
</g>
<g>
	<g>
		<rect x="256" y="170.667" width="42.667" height="42.667"/>
	</g>
</g>
<g>
	<g>
		<rect x="85.333" width="42.667" height="106.667"/>
	</g>
</g>
<g>
	<g>
		<rect x="256" width="42.667" height="106.667"/>
	</g>
</g>
<g>
</g>
<g>
</g>
<g>
</g>
<g>
</g>
<g>
</g>
<g>
</g>
<g>
</g>
<g>
</g>
<g>
</g>
<g>
</g>
<g>
</g>
<g>
</g>
<g>
</g>
<g>
</g>
<g>
</g>
</svg>
