<?xml version="1.0" encoding="iso-8859-1"?>
<!-- Generator: Adobe Illustrator 19.0.0, SVG Export Plug-In . SVG Version: 6.00 Build 0)  -->
<svg version="1.1" id="Capa_1" xmlns="http://www.w3.org/2000/svg" xmlns:xlink="http://www.w3.org/1999/xlink" x="0px" y="0px"
	 viewBox="0 0 426.667 426.667" style="enable-background:new 0 0 426.667 426.667;" xml:space="preserve">
<g>
	<g>
		<path d="M382.713,140.038L243.547,11.683c-16.878-15.566-43.524-15.589-60.427,0L43.953,140.038
			c-13.073,12.057-22.62,33.752-22.62,51.485v192.533c0,23.529,19.193,42.61,42.67,42.61h128.337V299.528h42.44v127.138h127.814
			c23.579,0,42.738-19.033,42.738-42.61V191.523C405.333,173.786,395.813,152.119,382.713,140.038z M362.595,384h-85.147V256.862
			H149.674V384C92.558,384.016,64,384.035,64,384.056V191.523c0-5.793,4.546-16.125,8.88-20.122L212.047,43.047
			c0.551-0.508,2.024-0.507,2.573,0l139.167,128.354c4.354,4.016,8.88,14.316,8.88,20.122C362.66,319.841,362.636,384,362.595,384z"
			/>
	</g>
</g>
<g>
</g>
<g>
</g>
<g>
</g>
<g>
</g>
<g>
</g>
<g>
</g>
<g>
</g>
<g>
</g>
<g>
</g>
<g>
</g>
<g>
</g>
<g>
</g>
<g>
</g>
<g>
</g>
<g>
</g>
</svg>
