<svg id="Capa_1" enable-background="new 0 0 512 512" height="512" viewBox="0 0 512 512" width="512" xmlns="http://www.w3.org/2000/svg"><g><path d="m420.75 26.042h-329.5c-50.31 0-91.25 40.94-91.25 91.26v179.08c0 50.32 40.94 91.25 91.25 91.25h82.02l70.82 92.45c6 7.84 17.82 7.83 23.82 0l70.82-92.45h82.02c50.31 0 91.25-40.93 91.25-91.25v-179.08c0-50.32-40.94-91.26-91.25-91.26zm-59.68 203.06-94.46 94.46c-5.85 5.86-15.35 5.86-21.21 0l-94.47-94.46c-28.25-28.25-28.25-73.97 0-102.21 28.18-28.18 74.03-28.18 102.21 0l2.86 2.86 2.86-2.85c13.65-13.66 31.8-21.18 51.1-21.18 19.31 0 37.46 7.52 51.11 21.17 28.18 28.18 28.18 74.03 0 102.21z"/><path d="m339.86 207.892-83.86 83.85-83.86-83.85c-26.37-26.37-7.93-72.17 29.89-72.17 11.3 0 21.91 4.39 29.9 12.38l13.47 13.47c5.85 5.86 15.36 5.86 21.21 0l13.46-13.46c7.99-7.99 18.6-12.39 29.9-12.39 37.38 0 56.54 45.52 29.89 72.17z"/></g></svg>