<?xml version="1.0" encoding="iso-8859-1"?>
<!-- Generator: Adobe Illustrator 19.0.0, SVG Export Plug-In . SVG Version: 6.00 Build 0)  -->
<svg version="1.1" id="Capa_1" xmlns="http://www.w3.org/2000/svg" xmlns:xlink="http://www.w3.org/1999/xlink" x="0px" y="0px"
	 viewBox="0 0 512 512" style="enable-background:new 0 0 512 512;" xml:space="preserve">
<g>
	<g>
		<path d="M109.134,198v282.146c0,17.564,14.29,31.854,31.854,31.854h189.246c17.59,0,31.9-14.289,31.9-31.854V198H109.134z
			 M236.087,414.843c-42.408,0-76.91-34.502-76.91-76.91c0-20.658,8.202-39.425,21.501-53.256c0.297-0.358,0.607-0.708,0.942-1.042
			c0.283-0.282,0.581-0.539,0.879-0.794c13.862-13.487,32.766-21.818,53.588-21.818c42.409,0,76.911,34.502,76.911,76.91
			C312.998,380.341,278.496,414.843,236.087,414.843z"/>
	</g>
</g>
<g>
	<g>
		<path d="M303.24,96.29c-2.66-2.13-5.966-3.29-9.374-3.29h-11.232V77.429c0-4.709-2.258-9.085-5.975-11.976
			c-5.646-4.391-9.279-11.246-9.279-18.953s3.633-14.562,9.279-18.953c3.717-2.891,5.975-7.267,5.975-11.976V15
			c0-8.284-6.716-15-15-15h-64c-8.284,0-15,6.716-15,15v78h-11.233c-3.408,0-6.714,1.16-9.374,3.29
			c-22.978,18.394-37.631,43.951-41.536,71.71h218.286C340.872,140.241,326.219,114.684,303.24,96.29z"/>
	</g>
</g>
<g>
	<g>
		<path d="M194.005,317.233c-3.086,6.248-4.828,13.273-4.828,20.7c0,25.866,21.044,46.91,46.91,46.91
			c7.427,0,14.452-1.742,20.699-4.828L194.005,317.233z"/>
	</g>
</g>
<g>
	<g>
		<path d="M236.087,291.022c-7.516,0-14.62,1.787-20.924,4.943l62.891,62.892c3.156-6.304,4.943-13.408,4.943-20.925
			C282.998,312.066,261.954,291.022,236.087,291.022z"/>
	</g>
</g>
<g>
	<g>
		<path d="M387.865,5.24h-12.96c-8.284,0-15,6.716-15,15s6.716,15,15,15h12.96c8.284,0,15-6.716,15-15S396.149,5.24,387.865,5.24z"
			/>
	</g>
</g>
<g>
	<g>
		<path d="M387.866,69.5h-12.96c-8.284,0-15,6.716-15,15s6.716,15,15,15h12.96c8.284,0,15-6.716,15-15S396.15,69.5,387.866,69.5z"/>
	</g>
</g>
<g>
	<g>
		<path d="M345.8,37.37h-12.96c-8.284,0-15,6.716-15,15s6.716,15,15,15h12.96c8.284,0,15-6.716,15-15S354.084,37.37,345.8,37.37z"/>
	</g>
</g>
<g>
</g>
<g>
</g>
<g>
</g>
<g>
</g>
<g>
</g>
<g>
</g>
<g>
</g>
<g>
</g>
<g>
</g>
<g>
</g>
<g>
</g>
<g>
</g>
<g>
</g>
<g>
</g>
<g>
</g>
</svg>
