<svg id="Capa_1" enable-background="new 0 0 512 512" height="512" viewBox="0 0 512 512" width="512" xmlns="http://www.w3.org/2000/svg"><g><path d="m401 145c0-79.953-65.047-145-145-145s-145 65.047-145 145 65.047 145 145 145 145-65.047 145-145zm-145 115c-63.411 0-115-51.589-115-115s51.589-115 115-115 115 51.589 115 115-51.589 115-115 115z"/><path d="m268.879 67.311c-5.82-9.748-19.939-9.748-25.759 0l-37.503 62.818c-6.291 10.539-9.617 22.598-9.617 34.871 0 33.084 26.916 60 60 60s60-26.916 60-60c0-12.273-3.325-24.332-9.617-34.871zm-12.879 127.689c-16.542 0-30-13.458-30-30 0-6.861 1.859-13.602 5.376-19.494l24.624-41.244 24.623 41.244c3.518 5.892 5.377 12.633 5.377 19.494 0 16.542-13.458 30-30 30z"/><path d="m220 317c-6.903 0-12.5 5.597-12.5 12.5v45.442h-58.042v-45.442c0-6.903-5.597-12.5-12.5-12.5s-12.5 5.597-12.5 12.5v120c0 6.903 5.597 12.5 12.5 12.5s12.5-5.597 12.5-12.5v-49.558h58.042v49.558c0 6.903 5.597 12.5 12.5 12.5s12.5-5.597 12.5-12.5v-120c0-6.903-5.597-12.5-12.5-12.5z"/><path d="m52.5 357c-10.394 0-20.084 3.049-28.246 8.281-1.732-4.824-6.334-8.281-11.754-8.281-6.903 0-12.5 5.597-12.5 12.5v130c0 6.903 5.597 12.5 12.5 12.5s12.5-5.597 12.5-12.5v-45.302c8.003 4.942 17.423 7.802 27.5 7.802 28.949 0 52.5-23.551 52.5-52.5s-23.551-52.5-52.5-52.5zm0 80c-15.164 0-27.5-12.336-27.5-27.5s12.336-27.5 27.5-27.5 27.5 12.336 27.5 27.5-12.336 27.5-27.5 27.5z"/><path d="m321.645 364.71c-3.36 0-6.334.144-9.038.42l3.832-23.13h33.803c6.903 0 12.5-5.597 12.5-12.5s-5.597-12.5-12.5-12.5h-44.402c-6.115 0-11.332 4.424-12.332 10.457l-8.796 53.091c-.772 4.666 1.132 9.38 4.956 12.163 3.825 2.782 8.87 3.18 13.071 1.007.099-.05.436-.215.969-.455 4.768-2.146 8.592-3.553 17.938-3.553 6.543 0 12.632 2.618 17.146 7.373 4.511 4.75 6.807 10.982 6.466 17.547-.638 12.293-10.792 22.117-23.117 22.365-11.939.242-22.259-8.497-23.909-20.323-.152-1.091-.229-2.207-.229-3.316 0-6.903-5.597-12.5-12.5-12.5s-12.5 5.597-12.5 12.5c0 2.259.157 4.536.469 6.769 3.354 24.036 23.973 41.877 48.181 41.875.33 0 .662-.003.993-.01 25.366-.511 46.266-20.745 47.58-46.064.699-13.48-4.024-26.285-13.302-36.057-9.15-9.633-22.008-15.159-35.279-15.159z"/><path d="m498.63 379.869c-9.146-9.633-22.005-15.159-35.276-15.159-3.36 0-6.334.144-9.038.42l3.832-23.13h33.803c6.903 0 12.5-5.597 12.5-12.5s-5.597-12.5-12.5-12.5h-44.402c-6.115 0-11.332 4.424-12.332 10.457l-8.796 53.091c-.772 4.666 1.132 9.38 4.956 12.163 3.824 2.782 8.87 3.18 13.071 1.007.099-.05.436-.215.969-.455 4.768-2.146 8.592-3.553 17.938-3.553 6.543 0 12.632 2.618 17.146 7.373 4.511 4.75 6.807 10.982 6.466 17.547-.638 12.293-10.792 22.117-23.117 22.365-11.931.242-22.259-8.497-23.91-20.331-.151-1.082-.229-2.195-.229-3.309 0-6.903-5.597-12.5-12.5-12.5s-12.5 5.597-12.5 12.5c0 2.269.158 4.547.469 6.769 3.354 24.036 23.973 41.877 48.181 41.875.33 0 .662-.003.993-.01 25.366-.511 46.266-20.745 47.58-46.064.697-13.479-4.026-26.284-13.304-36.056z"/><circle cx="392" cy="449.5" r="12.5"/></g></svg>