<svg xmlns="http://www.w3.org/2000/svg" viewBox="0 0 24 24"><path fill="none" stroke="#303C42" stroke-linecap="round" stroke-linejoin="round" stroke-miterlimit="10" d="M22.474 17.269c.008-.09.026-.177.026-.269a3.5 3.5 0 0 0-3.5-3.5c-.395 0-.768.08-1.122.2A2.991 2.991 0 0 0 15 11.5c-.985 0-1.852.482-2.399 1.215A2.983 2.983 0 0 0 11.5 12.5c-1.123 0-2.095.62-2.607 1.533"/><g fill="none" stroke="#303C42" stroke-linecap="round" stroke-linejoin="round" stroke-miterlimit="10"><path d="M.5 12.5l4.072.814a1 1 0 01.794 1.122l-.743 5.205a1 1 0 01-.99.859H.5v-8zM5.5 14.5s1.417-.5 3-.5 2.49 1.092 4.5 1.5c2.156.438 3.5.938 3.5 2s-1.625 1.594-7 0"/><path d="M16.5 18s3.25-1 4.5-1 2.5.5 2.5 1.5c-1.708.75-7.667 4-10 4s-8.5-3-8.5-3"/></g><g fill="none" stroke="#303C42" stroke-linecap="round" stroke-linejoin="round" stroke-miterlimit="10"><path d="M8.132 1.5c3.247 0 7.368 2.351 7.368 5.264 0 .654-.246 1.301-.84 1.896s-1.242.84-1.896.84C9.851 9.5 7.5 5.38 7.5 2.132c0-.35.283-.632.632-.632zM9.5 3.5c2.813 1.208 5.5 3 6.5 8"/></g><g fill="none" stroke="#303C42" stroke-linecap="round" stroke-linejoin="round" stroke-miterlimit="10"><path d="M22.058 4.5c-2.274 0-5.158 1.646-5.158 3.685 0 .458.172.91.588 1.327.416.416.87.588 1.327.588 2.039 0 3.685-2.884 3.685-5.158a.442.442 0 00-.442-.442zM20.5 6.5c-2 1.333-3.344 2.719-4.5 5"/></g></svg>