<?xml version="1.0" encoding="iso-8859-1"?>
<!-- Generator: Adobe Illustrator 19.0.0, SVG Export Plug-In . SVG Version: 6.00 Build 0)  -->
<svg version="1.1" id="Layer_1" xmlns="http://www.w3.org/2000/svg" xmlns:xlink="http://www.w3.org/1999/xlink" x="0px" y="0px"
	 viewBox="0 0 465.9 465.9" style="enable-background:new 0 0 465.9 465.9;" xml:space="preserve">
<path d="M347.053,378.692c-7.965,0-15.672,1.088-23.002,3.089c-19.461-21.066-46.136-35.361-76.101-38.977V316.93l48.373-28.754
	c16.926,8.63,34.757,13.166,52.053,13.166c16.942,0,32.643-4.226,46.662-12.559c30.86-18.344,48.272-54.277,46.58-96.122
	l-0.328-8.108l-6.966-4.162c-19.236-11.494-39.995-17.569-60.034-17.569c-16.943,0-32.642,4.226-46.662,12.559
	c-28.592,16.996-45.629,49.098-46.633,87.006L247.95,282.03v-68.253c39.673-24.359,63.086-62.188,63.086-102.689
	c0-43.109-26.523-83.194-70.949-107.227L232.95,0l-7.137,3.861c-44.426,24.033-70.949,64.118-70.949,107.227
	c0,40.501,23.414,78.329,63.086,102.689v68.253l-33.045-19.643c-1.004-37.908-18.041-70.01-46.633-87.006
	c-14.02-8.333-29.719-12.559-46.662-12.559c-20.039,0-40.798,6.075-60.034,17.569l-6.966,4.162l-0.328,8.108
	c-1.693,41.844,15.72,77.778,46.58,96.122c14.02,8.334,29.719,12.56,46.662,12.56c17.296,0,35.126-4.536,52.053-13.166
	l48.373,28.755v25.875c-29.965,3.615-56.64,17.911-76.101,38.977c-7.331-2-15.037-3.089-23.002-3.089
	c-48.164,0-87.208,39.044-87.208,87.208h402.622C434.261,417.737,395.217,378.692,347.053,378.692z"/>
<g>
</g>
<g>
</g>
<g>
</g>
<g>
</g>
<g>
</g>
<g>
</g>
<g>
</g>
<g>
</g>
<g>
</g>
<g>
</g>
<g>
</g>
<g>
</g>
<g>
</g>
<g>
</g>
<g>
</g>
</svg>
