<svg id="Capa_1" enable-background="new 0 0 497 497" height="512" viewBox="0 0 497 497" width="512" xmlns="http://www.w3.org/2000/svg"><g><path d="m495 248.5c0 92.379-49.501 172.984-123.719 215.812-36.044 20.799-209.45 20.879-245.699.209-51.525-29.381-91.518-76.665-111.511-133.382-9.113-25.854 16.075-218.477 64.34-263.808 44.456-41.754 104.286-67.331 170.089-67.331 137.243 0 246.5 111.257 246.5 248.5z" fill="#60b7ff"/><g fill="#a2e62e"><path d="m298.2 364.467c9.149 0 16.567-7.417 16.567-16.567s-7.417-16.567-16.567-16.567h-33.133c-9.15 0-16.567 7.417-16.567 16.567s7.417 16.567 16.567 16.567z"/><path d="m231.933 82.833c9.15 0 16.567-7.417 16.567-16.567s-7.417-16.567-16.567-16.567h-33.133c-9.15 0-16.567 7.417-16.567 16.567 0 9.149 7.417 16.567 16.567 16.567z"/><path d="m132.533 397.6c9.15 0 16.567-7.417 16.567-16.567s-7.417-16.567-16.567-16.567h-33.133c-9.15 0-16.567 7.417-16.567 16.567s7.417 16.567 16.567 16.567z"/><path d="m0 248.5c0 29.047 5.001 56.922 14.16 82.833h151.507c18.299 0 33.133-14.834 33.133-33.133s-14.834-33.133-33.133-33.133h-49.7c-9.15 0-16.567-7.417-16.567-16.567s7.417-16.567 16.567-16.567h49.7c18.299 0 33.133-14.834 33.133-33.133s-14.834-33.133-33.133-33.133h-82.834c-9.15 0-16.567-7.417-16.567-16.567s7.417-16.567 16.567-16.567h33.133c18.299 0 33.133-14.834 33.133-33.133s-14.834-33.133-33.133-33.133h-36.39c-48.937 45.384-79.576 110.226-79.576 182.233z"/></g><path d="m248.5 0c-8.99 0-17.865.489-26.609 1.42 1.046-.013 2.09-.04 3.139-.04 137.243 0 248.5 111.257 248.5 248.5 0 128.253-97.162 233.8-221.891 247.08 23.548-.292 46.308-8.859 67.845-15.266 18.477-5.497 36.053-8.085 52.455-17.489 29.415-16.866 55.051-39.574 75.325-66.542 31.229-41.54 42.736-93.189 42.736-149.163 0-92.227-43.242-172.719-117.849-215.6-36.415-20.93-78.635-32.9-123.651-32.9z" fill="#26a6fe"/><path d="m248.5 497c44.945 0 87.102-11.935 123.479-32.804-3.71-19.067-20.493-33.463-40.645-33.463h-16.567c0-18.299-14.834-33.133-33.133-33.133h-66.267c-18.299 0-33.133 14.834-33.133 33.133h-16.567c-20.152 0-36.935 14.396-40.645 33.463 36.376 20.869 78.533 32.804 123.478 32.804z" fill="#c8effe"/><path d="m368.09 453.079c-33.624 23.713-73.393 39.297-116.45 43.881 43.769-.543 84.804-12.413 120.333-32.794-.767-3.923-2.094-7.644-3.883-11.087z" fill="#99e2fc"/><path d="m281.633 66.267c0 18.299 14.834 33.133 33.133 33.133h33.134c9.15 0 16.567 7.417 16.567 16.567s-7.417 16.567-16.567 16.567h-66.267c-18.299 0-33.133 14.834-33.133 33.133s14.834 33.133 33.133 33.133h149.1c9.15 0 16.567 7.417 16.567 16.567s-7.417 16.567-16.567 16.567h-66.267c-18.299 0-33.133 14.834-33.133 33.133s14.834 33.133 33.133 33.133h66.267c9.15 0 16.567 7.417 16.567 16.567s-7.417 16.567-16.567 16.567h-33.133c-18.299 0-33.133 14.834-33.133 33.133s14.834 33.133 33.133 33.133h49.711c31.198-41.533 49.689-93.156 49.689-149.1 0-92.063-50.065-172.428-124.452-215.367h-57.781c-18.299 0-33.134 14.835-33.134 33.134z" fill="#a2e62e"/><path d="m372.548 33.133h-25.821c74.387 42.939 125.273 123.304 125.273 215.367 0 55.944-16.008 107.567-47.206 149.1h22.517c31.198-41.533 49.689-93.156 49.689-149.1 0-92.063-50.065-172.428-124.452-215.367z" fill="#89d12a"/></g></svg>