<svg id="Capa_1" enable-background="new 0 0 497 497" height="512" viewBox="0 0 497 497" width="512" xmlns="http://www.w3.org/2000/svg"><g><g><path d="m182.233 442.766h-132.533c-4.142 0-7.5-3.357-7.5-7.5s3.358-7.5 7.5-7.5h132.533c23.269 0 42.2-18.931 42.2-42.2s-18.931-42.2-42.2-42.2-42.2 18.931-42.2 42.2c0 4.143-3.358 7.5-7.5 7.5s-7.5-3.357-7.5-7.5c0-31.54 25.66-57.2 57.2-57.2s57.2 25.66 57.2 57.2-25.66 57.2-57.2 57.2z" fill="#60b7ff"/></g><g><path d="m182.233 409.634c-4.142 0-7.5-3.357-7.5-7.5s3.358-7.5 7.5-7.5c4.999 0 9.066-4.067 9.066-9.067 0-4.999-4.067-9.066-9.066-9.066s-9.067 4.067-9.067 9.066c0 4.143-3.358 7.5-7.5 7.5s-7.5-3.357-7.5-7.5c0-13.271 10.796-24.066 24.067-24.066 13.27 0 24.066 10.796 24.066 24.066s-10.795 24.067-24.066 24.067z" fill="#60b7ff"/></g><g><path d="m397.6 475.9h-132.533c-4.142 0-7.5-3.357-7.5-7.5s3.358-7.5 7.5-7.5h132.533c23.269 0 42.2-18.931 42.2-42.2s-18.931-42.2-42.2-42.2-42.2 18.931-42.2 42.2c0 4.143-3.358 7.5-7.5 7.5s-7.5-3.357-7.5-7.5c0-31.54 25.66-57.2 57.2-57.2s57.2 25.66 57.2 57.2-25.66 57.2-57.2 57.2z" fill="#60b7ff"/></g><g><path d="m397.6 442.766c-4.142 0-7.5-3.357-7.5-7.5s3.358-7.5 7.5-7.5c4.999 0 9.066-4.067 9.066-9.066s-4.067-9.066-9.066-9.066c-5 0-9.067 4.067-9.067 9.066 0 4.143-3.358 7.5-7.5 7.5s-7.5-3.357-7.5-7.5c0-13.27 10.796-24.066 24.067-24.066 13.27 0 24.066 10.796 24.066 24.066.001 13.271-10.796 24.066-24.066 24.066z" fill="#60b7ff"/></g><g><path d="m331.333 359.933h-33.133c-4.142 0-7.5-3.357-7.5-7.5s3.358-7.5 7.5-7.5h33.133c4.142 0 7.5 3.357 7.5 7.5s-3.357 7.5-7.5 7.5z" fill="#60b7ff"/></g><g><path d="m99.4 376.5h-33.133c-4.142 0-7.5-3.357-7.5-7.5s3.358-7.5 7.5-7.5h33.133c4.142 0 7.5 3.357 7.5 7.5s-3.358 7.5-7.5 7.5z" fill="#60b7ff"/></g><path d="m404.74 120.5h-69.507c-2.9 0-5.362-2.08-5.897-4.931-10.155-54.171-57.967-95.069-115.225-94.462-63.744.674-114.711 53.37-114.711 117.117v9.409c0 3.314-2.686 6-6 6h-17.914c-41.107 0-75.179 32.879-75.484 73.985-.307 41.432 33.187 75.115 74.548 75.115h331.333c50.552 0 91.49-41.168 91.114-91.807-.372-50.24-42.016-90.426-92.257-90.426z" fill="#c8effe"/><g fill="#99e2fc"><g><path d="m404.74 120.5h-23c50.241 0 91.885 40.186 92.258 90.426.375 50.639-40.562 91.808-91.114 91.808h23c50.552 0 91.49-41.168 91.114-91.808-.373-50.24-42.017-90.426-92.258-90.426z"/><path d="m306.336 115.569c.534 2.851 2.996 4.931 5.897 4.931h23c-2.9 0-5.362-2.08-5.897-4.931-10.155-54.171-57.967-95.069-115.225-94.462-3.438.036-6.835.233-10.192.566 51.461 5.089 93.029 43.82 102.417 93.896z"/></g><path d="m149.1 153.634c4.143 0 7.5-3.357 7.5-7.5s-3.357-7.5-7.5-7.5h-49.7v8.999c0 3.314-2.686 6-6 6h-17.914c-.007 0-.013.001-.019.001z"/></g></g></svg>