<svg id="Capa_1" enable-background="new 0 0 504.5 504.5" height="512" viewBox="0 0 504.5 504.5" width="512" xmlns="http://www.w3.org/2000/svg"><g><g><path d="m40.633 48.134c-4.142 0-7.5-3.357-7.5-7.5v-33.134c0-4.143 3.358-7.5 7.5-7.5s7.5 3.357 7.5 7.5v33.134c0 4.142-3.358 7.5-7.5 7.5z" fill="#ffa400"/></g><g><path d="m57.2 31.566h-33.133c-4.142 0-7.5-3.357-7.5-7.5s3.358-7.5 7.5-7.5h33.133c4.142 0 7.5 3.357 7.5 7.5s-3.358 7.5-7.5 7.5z" fill="#ffa400"/></g><g><path d="m90.333 97.833c-4.142 0-7.5-3.357-7.5-7.5v-33.133c0-4.143 3.358-7.5 7.5-7.5s7.5 3.357 7.5 7.5v33.133c0 4.143-3.357 7.5-7.5 7.5z" fill="#ffa400"/></g><g><path d="m106.9 81.267h-33.133c-4.142 0-7.5-3.357-7.5-7.5s3.358-7.5 7.5-7.5h33.133c4.142 0 7.5 3.357 7.5 7.5s-3.358 7.5-7.5 7.5z" fill="#ffa400"/></g><path d="m413.923 120.909c-3.115 1.974-6.93 2.938-10.997 2.418-7.352-.94-13.274-6.848-14.245-14.196-.377-2.853-.018-5.578.906-8.029.981-2.603-.007-5.538-2.329-7.07-35.127-23.171-77.166-36.712-122.366-36.832-123.054-.328-223.856 99.85-224.257 222.904-.212 65.033 27.344 123.625 71.473 164.621 2.141 1.989 5.411 2.171 7.725.386 6.023-4.645 13.686-7.265 21.976-6.832 16.152.844 29.548 13.549 31.183 29.64.402 3.957.102 7.788-.786 11.388-.7 2.839.761 5.767 3.445 6.927 27.132 11.727 57.042 18.244 88.474 18.266 123.935.086 223.809-99.716 223.809-223.651 0-62.282-25.467-118.609-66.546-159.159-2.001-1.974-5.091-2.286-7.465-.781z" fill="#ffd900"/><g fill="#fb0"><g><path d="m364.258 94.033c2.322 1.532 3.31 4.467 2.329 7.07-.924 2.45-1.283 5.176-.906 8.029.971 7.348 6.893 13.256 14.245 14.196 4.068.52 7.883-.444 10.997-2.419 1.26-.799 2.719-1.07 4.112-.869-3.393-2.61-5.771-6.494-6.354-10.909-.377-2.852-.018-5.578.906-8.029.981-2.603-.007-5.538-2.329-7.07-35.127-23.171-77.166-36.712-122.366-36.832-4.059-.011-8.092.095-12.099.3 41.051 2.084 79.179 15.236 111.465 36.533z"/><path d="m421.388 121.69c-2-1.974-5.091-2.286-7.464-.782-3.115 1.974-6.93 2.938-10.997 2.419-1.365-.175-2.681-.522-3.925-1.017 40.715 40.504 65.932 96.57 65.932 158.538 0 120.003-93.638 217.378-212.089 223.358 3.737.189 7.497.291 11.28.293 123.935.086 223.809-99.716 223.809-223.651-.001-62.281-25.468-118.607-66.546-159.158z"/></g><ellipse cx="388.526" cy="222.866" rx="16.567" ry="16.567" transform="matrix(.659 -.752 .752 .659 -35.103 368.332)"/><circle cx="322.267" cy="280.85" r="16.567"/><ellipse cx="123.464" cy="322.263" rx="16.567" ry="16.567" transform="matrix(.159 -.987 .987 .159 -214.33 392.919)"/><ellipse cx="305.709" cy="173.173" rx="33.134" ry="33.134"/></g></g></svg>