<svg id="Capa_1" enable-background="new 0 0 497 497" height="512" viewBox="0 0 497 497" width="512" xmlns="http://www.w3.org/2000/svg"><g><g><path d="m404.74 124.25h-69.507c-2.9 0-5.362-2.08-5.897-4.93-10.155-54.171-57.967-95.069-115.225-94.463-63.744.675-114.711 53.37-114.711 117.117v9.409c0 3.314-2.686 6-6 6h-17.914c-41.106 0-75.179 32.879-75.484 73.984-.307 41.432 33.187 75.116 74.548 75.116h331.333c50.553 0 91.49-41.168 91.114-91.808-.372-50.239-42.016-90.425-92.257-90.425z" fill="#c8effe"/><g fill="#99e2fc"><g><path d="m404.74 124.25h-23c50.242 0 91.886 40.186 92.258 90.426.375 50.639-40.562 91.808-91.114 91.808h23c50.553 0 91.49-41.168 91.114-91.808-.373-50.24-42.017-90.426-92.258-90.426z"/><path d="m306.336 119.319c.535 2.851 2.996 4.931 5.897 4.931h23c-2.9 0-5.362-2.08-5.897-4.931-10.155-54.171-57.967-95.069-115.225-94.463-3.438.036-6.835.233-10.192.566 51.461 5.091 93.03 43.821 102.417 93.897z"/></g><path d="m149.1 157.384c4.143 0 7.5-3.357 7.5-7.5s-3.357-7.5-7.5-7.5h-49.7v8.999c0 3.314-2.686 6-6 6h-17.914c-.007 0-.013.001-.02.001z"/></g></g><path d="m457.775 472.15c3.373 0 6.1-2.782 6.005-6.154-3.257-116.098-98.395-209.213-215.28-209.213s-212.023 93.115-215.28 209.213c-.095 3.372 2.632 6.154 6.005 6.154h28.14c3.146 0 137.259-95.833 181.136-95.833s177.121 95.833 180.267 95.833z" fill="#fd4755"/><g><path d="m248.5 323.05c-82.346 0-149.1 66.754-149.1 149.1h60.474c3.146 0 5.769-2.43 5.977-5.568 2.864-43.151 38.773-77.265 82.649-77.265s79.785 34.114 82.649 77.265c.208 3.139 2.832 5.568 5.977 5.568h60.474c0-82.346-66.754-149.1-149.1-149.1z" fill="#60b7ff"/></g><path d="m99.4 472.15c0-82.346 66.754-149.1 149.1-149.1s149.1 66.754 149.1 149.1h33.133c0-100.645-81.589-182.233-182.233-182.233s-182.233 81.588-182.233 182.233z" fill="#ffd900"/><path d="m99.4 472.15c0-82.346 66.754-149.1 149.1-149.1s149.1 66.754 149.1 149.1h-33.133c0-64.047-51.92-115.967-115.967-115.967s-115.967 51.92-115.967 115.967z" fill="#a2e62e"/></g></svg>