<svg id="Capa_1" enable-background="new 0 0 497 497" height="512" viewBox="0 0 497 497" width="512" xmlns="http://www.w3.org/2000/svg"><g><path d="m404.739 124.25h-69.507c-2.9 0-5.362-2.08-5.897-4.931-10.155-54.171-57.967-95.069-115.225-94.463-63.743.676-114.71 53.371-114.71 117.118v9.409c0 3.314-2.686 6-6 6h-17.914c-41.107 0-75.179 32.879-75.484 73.984-.307 41.432 33.187 75.115 74.548 75.115h331.333c50.552 0 91.49-41.168 91.114-91.807-.372-50.239-42.016-90.425-92.258-90.425z" fill="#c8effe"/><g fill="#99e2fc"><path d="m404.739 124.25h-23c50.241 0 91.885 40.186 92.258 90.426.375 50.639-40.562 91.808-91.114 91.808h23c50.552 0 91.49-41.168 91.114-91.808-.372-50.24-42.016-90.426-92.258-90.426z"/><path d="m306.336 119.32c.534 2.851 2.996 4.931 5.897 4.931h23c-2.9 0-5.362-2.08-5.897-4.931-10.155-54.171-57.967-95.069-115.225-94.463-3.438.036-6.835.233-10.192.566 51.461 5.09 93.029 43.82 102.417 93.897z"/></g><path d="m149.1 157.384c4.143 0 7.5-3.357 7.5-7.5s-3.357-7.5-7.5-7.5h-49.7v8.999c0 3.314-2.686 6-6 6h-17.914c-.007 0-.013.001-.019.001z" fill="#99e2fc"/><g fill="#c8effe"><ellipse cx="248.5" cy="364.467" rx="24.85" ry="24.85" transform="matrix(.707 -.707 .707 .707 -184.933 282.466)"/><ellipse cx="331.333" cy="447.3" rx="24.85" ry="24.85" transform="matrix(.707 -.707 .707 .707 -219.244 365.299)"/><ellipse cx="165.666" cy="447.3" rx="24.85" ry="24.85" transform="matrix(.23 -.973 .973 .23 -307.73 505.766)"/><ellipse cx="414.166" cy="364.467" rx="24.85" ry="24.85" transform="matrix(.16 -.987 .987 .16 -11.936 714.904)"/><ellipse cx="82.833" cy="364.467" rx="24.85" ry="24.85" transform="matrix(.23 -.973 .973 .23 -290.915 361.346)"/></g><path d="m82.833 339.617c-4.314 0-8.371 1.101-11.907 3.035 7.712 4.218 12.943 12.405 12.943 21.815s-5.231 17.597-12.943 21.815c3.536 1.934 7.593 3.035 11.907 3.035 13.724 0 24.85-11.126 24.85-24.85 0-13.725-11.126-24.85-24.85-24.85z" fill="#99e2fc"/><path d="m248.5 339.617c-4.314 0-8.371 1.101-11.907 3.035 7.712 4.218 12.943 12.405 12.943 21.815s-5.231 17.597-12.943 21.815c3.536 1.934 7.593 3.035 11.907 3.035 13.724 0 24.85-11.126 24.85-24.85 0-13.725-11.126-24.85-24.85-24.85z" fill="#99e2fc"/><path d="m414.167 339.617c-4.314 0-8.371 1.101-11.907 3.035 7.712 4.218 12.943 12.405 12.943 21.815s-5.231 17.597-12.943 21.815c3.536 1.934 7.593 3.035 11.907 3.035 13.724 0 24.85-11.126 24.85-24.85 0-13.725-11.126-24.85-24.85-24.85z" fill="#99e2fc"/><path d="m331.333 422.45c-4.315 0-8.371 1.101-11.907 3.035 7.712 4.218 12.943 12.405 12.943 21.815s-5.231 17.597-12.943 21.815c3.536 1.934 7.593 3.035 11.907 3.035 13.724 0 24.85-11.126 24.85-24.85s-11.126-24.85-24.85-24.85z" fill="#99e2fc"/><path d="m165.667 422.45c-4.314 0-8.371 1.101-11.907 3.035 7.712 4.218 12.943 12.405 12.943 21.815s-5.231 17.597-12.943 21.815c3.536 1.934 7.593 3.035 11.907 3.035 13.724 0 24.85-11.126 24.85-24.85s-11.126-24.85-24.85-24.85z" fill="#99e2fc"/></g></svg>