<svg height="512pt" viewBox="0 -14 512 512" width="512pt" xmlns="http://www.w3.org/2000/svg"><path d="m292.980469 8.445312-6.007813-6.011718c-3.449218-3.449219-9.074218-3.203125-12.191406.550781-10.292969 12.410156-31.398438 41.539063-43.554688 84.089844v8.257812h41.289063v-8.257812c3.804687-30.449219 16.382813-57.976563 22.011719-69.101563 1.613281-3.1875.980468-7.003906-1.546875-9.527344zm0 0" fill="#96cd82"/><path d="m289.625 5.085938-2.652344-2.652344c-3.449218-3.449219-9.074218-3.203125-12.191406.550781-10.292969 12.410156-31.398438 41.539063-43.554688 84.089844v8.257812h16.515626v-8.257812c11.570312-40.492188 31.136718-68.648438 41.882812-81.988281zm0 0" fill="#7dbe81"/><path d="m256 483.460938h49.546875c114.019531 0 206.453125-45.125 206.453125-198.191407 0-153.070312-92.429688-198.195312-206.453125-198.195312h-49.546875zm0 0" fill="#ffaa5f"/><path d="m256 483.460938h36.761719c84.597656 0 153.175781-45.125 153.175781-198.191407 0-153.070312-68.578125-198.195312-153.175781-198.195312h-36.761719zm0 0" fill="#ffc369"/><path d="m256 87.074219h-49.546875c-114.023437 0-206.453125 45.125-206.453125 198.195312 0 153.066407 92.429688 198.191407 206.453125 198.191407h49.546875zm0 0" fill="#ff7350"/><path d="m256 87.074219h-36.761719c-84.597656 0-153.175781 45.125-153.175781 198.195312 0 153.066407 68.578125 198.191407 153.175781 198.191407h36.761719zm0 0" fill="#ff8c5a"/><path d="m338.582031 285.269531c0-166.378906-36.972656-198.195312-82.582031-198.195312s-82.582031 31.8125-82.582031 198.195312c0 166.378907 36.972656 198.191407 82.582031 198.191407s82.582031-31.816407 82.582031-198.191407zm0 0" fill="#ffaa5f"/></svg>